<svg width="933" height="213" viewBox="0 0 933 213" fill="none" xmlns="http://www.w3.org/2000/svg">
<path d="M332.935 208H331.59V199.351C331.59 198.631 331.612 197.951 331.657 197.309C331.541 197.425 331.41 197.547 331.267 197.674C331.123 197.801 330.464 198.341 329.291 199.292L328.561 198.346L331.773 195.864H332.935V208ZM345.602 201.916C345.602 204.013 345.27 205.579 344.606 206.614C343.947 207.649 342.938 208.166 341.576 208.166C340.27 208.166 339.277 207.638 338.596 206.581C337.916 205.518 337.575 203.963 337.575 201.916C337.575 199.802 337.904 198.233 338.563 197.209C339.222 196.185 340.226 195.673 341.576 195.673C342.893 195.673 343.892 196.207 344.573 197.275C345.259 198.343 345.602 199.89 345.602 201.916ZM338.97 201.916C338.97 203.681 339.177 204.967 339.592 205.775C340.007 206.578 340.669 206.979 341.576 206.979C342.495 206.979 343.159 206.572 343.568 205.759C343.983 204.94 344.191 203.659 344.191 201.916C344.191 200.172 343.983 198.897 343.568 198.089C343.159 197.275 342.495 196.869 341.576 196.869C340.669 196.869 340.007 197.27 339.592 198.072C339.177 198.869 338.97 200.15 338.97 201.916ZM355.331 201.916C355.331 204.013 354.999 205.579 354.334 206.614C353.676 207.649 352.666 208.166 351.305 208.166C349.999 208.166 349.005 207.638 348.325 206.581C347.644 205.518 347.304 203.963 347.304 201.916C347.304 199.802 347.633 198.233 348.292 197.209C348.95 196.185 349.954 195.673 351.305 195.673C352.622 195.673 353.621 196.207 354.301 197.275C354.987 198.343 355.331 199.89 355.331 201.916ZM348.698 201.916C348.698 203.681 348.906 204.967 349.321 205.775C349.736 206.578 350.397 206.979 351.305 206.979C352.223 206.979 352.887 206.572 353.297 205.759C353.712 204.94 353.919 203.659 353.919 201.916C353.919 200.172 353.712 198.897 353.297 198.089C352.887 197.275 352.223 196.869 351.305 196.869C350.397 196.869 349.736 197.27 349.321 198.072C348.906 198.869 348.698 200.15 348.698 201.916ZM358.194 199.483C358.194 200.424 358.297 201.13 358.501 201.6C358.706 202.07 359.038 202.306 359.498 202.306C360.405 202.306 360.859 201.365 360.859 199.483C360.859 197.613 360.405 196.678 359.498 196.678C359.038 196.678 358.706 196.91 358.501 197.375C358.297 197.84 358.194 198.543 358.194 199.483ZM361.996 199.483C361.996 200.745 361.783 201.7 361.357 202.347C360.936 202.989 360.317 203.31 359.498 203.31C358.723 203.31 358.12 202.981 357.688 202.322C357.262 201.664 357.049 200.717 357.049 199.483C357.049 198.227 357.254 197.281 357.663 196.645C358.078 196.008 358.69 195.69 359.498 195.69C360.3 195.69 360.917 196.019 361.349 196.678C361.78 197.336 361.996 198.271 361.996 199.483ZM365.499 204.348C365.499 205.294 365.601 206.002 365.806 206.473C366.011 206.938 366.346 207.17 366.811 207.17C367.275 207.17 367.618 206.94 367.84 206.481C368.061 206.016 368.172 205.305 368.172 204.348C368.172 203.401 368.061 202.701 367.84 202.248C367.618 201.788 367.275 201.559 366.811 201.559C366.346 201.559 366.011 201.788 365.806 202.248C365.601 202.701 365.499 203.401 365.499 204.348ZM369.309 204.348C369.309 205.604 369.096 206.556 368.67 207.203C368.249 207.845 367.63 208.166 366.811 208.166C366.025 208.166 365.419 207.837 364.993 207.178C364.572 206.52 364.362 205.576 364.362 204.348C364.362 203.091 364.567 202.145 364.976 201.509C365.391 200.872 366.003 200.554 366.811 200.554C367.596 200.554 368.208 200.881 368.645 201.534C369.088 202.181 369.309 203.119 369.309 204.348ZM367.167 195.864L360.436 208H359.215L365.947 195.864H367.167ZM383.113 204.771C383.113 205.839 382.726 206.672 381.951 207.27C381.176 207.867 380.125 208.166 378.797 208.166C377.358 208.166 376.251 207.981 375.477 207.61V206.249C375.975 206.459 376.517 206.625 377.104 206.747C377.69 206.868 378.271 206.929 378.847 206.929C379.787 206.929 380.496 206.752 380.972 206.398C381.448 206.038 381.686 205.54 381.686 204.904C381.686 204.483 381.6 204.14 381.428 203.875C381.262 203.603 380.98 203.354 380.582 203.127C380.189 202.901 379.588 202.643 378.78 202.355C377.651 201.951 376.843 201.473 376.356 200.919C375.875 200.366 375.634 199.644 375.634 198.753C375.634 197.818 375.986 197.073 376.688 196.52C377.391 195.967 378.321 195.69 379.478 195.69C380.684 195.69 381.793 195.911 382.806 196.354L382.366 197.583C381.365 197.162 380.391 196.952 379.444 196.952C378.697 196.952 378.113 197.112 377.693 197.433C377.272 197.754 377.062 198.2 377.062 198.77C377.062 199.19 377.139 199.536 377.294 199.807C377.449 200.073 377.709 200.319 378.075 200.546C378.445 200.767 379.01 201.014 379.768 201.285C381.041 201.738 381.915 202.225 382.391 202.746C382.873 203.266 383.113 203.941 383.113 204.771ZM389.231 208.166C387.886 208.166 386.824 207.757 386.043 206.938C385.269 206.118 384.881 204.981 384.881 203.526C384.881 202.059 385.241 200.895 385.96 200.031C386.685 199.168 387.657 198.736 388.874 198.736C390.014 198.736 390.916 199.113 391.58 199.865C392.244 200.612 392.576 201.6 392.576 202.829V203.7H386.309C386.337 204.768 386.605 205.579 387.114 206.132C387.629 206.686 388.351 206.962 389.281 206.962C390.26 206.962 391.229 206.758 392.186 206.348V207.577C391.699 207.787 391.237 207.936 390.8 208.025C390.368 208.119 389.845 208.166 389.231 208.166ZM388.857 199.89C388.127 199.89 387.543 200.128 387.106 200.604C386.674 201.08 386.42 201.738 386.342 202.58H391.099C391.099 201.711 390.905 201.047 390.518 200.587C390.13 200.123 389.577 199.89 388.857 199.89ZM398.569 208.166C397.252 208.166 396.231 207.762 395.506 206.954C394.787 206.141 394.427 204.992 394.427 203.509C394.427 201.987 394.792 200.812 395.523 199.981C396.259 199.151 397.305 198.736 398.661 198.736C399.098 198.736 399.535 198.783 399.972 198.877C400.409 198.972 400.752 199.082 401.001 199.209L400.578 200.38C400.274 200.258 399.942 200.159 399.582 200.081C399.222 199.998 398.904 199.957 398.627 199.957C396.779 199.957 395.855 201.135 395.855 203.493C395.855 204.611 396.079 205.468 396.527 206.066C396.981 206.664 397.651 206.962 398.536 206.962C399.294 206.962 400.072 206.799 400.869 206.473V207.693C400.26 208.008 399.493 208.166 398.569 208.166ZM404.33 198.902V204.804C404.33 205.546 404.499 206.099 404.836 206.464C405.174 206.83 405.702 207.012 406.422 207.012C407.374 207.012 408.068 206.752 408.505 206.232C408.948 205.712 409.169 204.862 409.169 203.684V198.902H410.547V208H409.41L409.211 206.78H409.136C408.854 207.228 408.461 207.571 407.958 207.809C407.459 208.047 406.889 208.166 406.248 208.166C405.141 208.166 404.311 207.903 403.757 207.377C403.209 206.852 402.936 206.011 402.936 204.854V198.902H404.33ZM417.628 198.736C418.032 198.736 418.394 198.77 418.715 198.836L418.524 200.114C418.148 200.031 417.816 199.99 417.528 199.99C416.792 199.99 416.161 200.289 415.636 200.886C415.116 201.484 414.855 202.228 414.855 203.119V208H413.478V198.902H414.615L414.772 200.587H414.839C415.176 199.995 415.583 199.539 416.059 199.218C416.535 198.897 417.058 198.736 417.628 198.736ZM424.26 208.166C422.916 208.166 421.853 207.757 421.073 206.938C420.298 206.118 419.911 204.981 419.911 203.526C419.911 202.059 420.27 200.895 420.99 200.031C421.715 199.168 422.686 198.736 423.903 198.736C425.043 198.736 425.945 199.113 426.609 199.865C427.273 200.612 427.605 201.6 427.605 202.829V203.7H421.338C421.366 204.768 421.634 205.579 422.144 206.132C422.658 206.686 423.38 206.962 424.31 206.962C425.29 206.962 426.258 206.758 427.215 206.348V207.577C426.728 207.787 426.266 207.936 425.829 208.025C425.397 208.119 424.875 208.166 424.26 208.166ZM423.887 199.89C423.156 199.89 422.572 200.128 422.135 200.604C421.704 201.08 421.449 201.738 421.372 202.58H426.128C426.128 201.711 425.934 201.047 425.547 200.587C425.16 200.123 424.606 199.89 423.887 199.89ZM438.612 208.166C438.02 208.166 437.478 208.058 436.985 207.842C436.498 207.621 436.089 207.283 435.757 206.83H435.657C435.724 207.361 435.757 207.864 435.757 208.34V212.084H434.379V198.902H435.5L435.69 200.147H435.757C436.111 199.649 436.523 199.29 436.994 199.068C437.464 198.847 438.004 198.736 438.612 198.736C439.819 198.736 440.748 199.149 441.401 199.973C442.06 200.798 442.389 201.954 442.389 203.443C442.389 204.937 442.054 206.099 441.385 206.929C440.721 207.754 439.797 208.166 438.612 208.166ZM438.413 199.907C437.483 199.907 436.811 200.164 436.396 200.679C435.981 201.193 435.768 202.012 435.757 203.136V203.443C435.757 204.721 435.97 205.637 436.396 206.19C436.822 206.738 437.506 207.012 438.446 207.012C439.232 207.012 439.846 206.694 440.289 206.058C440.737 205.421 440.961 204.544 440.961 203.426C440.961 202.292 440.737 201.423 440.289 200.82C439.846 200.211 439.221 199.907 438.413 199.907ZM450.399 208L450.125 206.705H450.059C449.605 207.275 449.152 207.662 448.698 207.867C448.25 208.066 447.688 208.166 447.013 208.166C446.111 208.166 445.402 207.934 444.888 207.469C444.379 207.004 444.124 206.343 444.124 205.485C444.124 203.648 445.593 202.685 448.532 202.596L450.076 202.546V201.982C450.076 201.268 449.921 200.742 449.611 200.405C449.306 200.062 448.817 199.89 448.142 199.89C447.383 199.89 446.526 200.123 445.568 200.587L445.145 199.533C445.593 199.29 446.083 199.099 446.614 198.96C447.151 198.822 447.688 198.753 448.225 198.753C449.309 198.753 450.112 198.994 450.632 199.475C451.158 199.957 451.42 200.729 451.42 201.791V208H450.399ZM447.287 207.029C448.144 207.029 448.817 206.794 449.304 206.323C449.796 205.853 450.042 205.194 450.042 204.348V203.526L448.665 203.584C447.569 203.623 446.778 203.794 446.291 204.099C445.809 204.397 445.568 204.865 445.568 205.501C445.568 206 445.718 206.379 446.017 206.639C446.321 206.899 446.744 207.029 447.287 207.029ZM452.823 198.902H454.301L456.293 204.09C456.73 205.275 457.001 206.13 457.106 206.655H457.173C457.245 206.373 457.394 205.892 457.621 205.211C457.854 204.525 458.606 202.422 459.879 198.902H461.356L457.447 209.262C457.059 210.285 456.606 211.01 456.085 211.437C455.571 211.868 454.937 212.084 454.185 212.084C453.764 212.084 453.349 212.037 452.939 211.943V210.839C453.244 210.905 453.584 210.938 453.96 210.938C454.907 210.938 455.582 210.407 455.986 209.345L456.492 208.05L452.823 198.902ZM474.43 208V202.082C474.43 201.357 474.275 200.814 473.965 200.455C473.655 200.089 473.174 199.907 472.521 199.907C471.663 199.907 471.03 200.153 470.62 200.646C470.211 201.138 470.006 201.896 470.006 202.92V208H468.628V202.082C468.628 201.357 468.473 200.814 468.163 200.455C467.853 200.089 467.369 199.907 466.71 199.907C465.847 199.907 465.214 200.167 464.81 200.687C464.411 201.202 464.212 202.048 464.212 203.227V208H462.834V198.902H463.955L464.179 200.147H464.245C464.505 199.705 464.87 199.359 465.341 199.11C465.817 198.861 466.348 198.736 466.935 198.736C468.357 198.736 469.286 199.251 469.724 200.28H469.79C470.061 199.804 470.454 199.428 470.969 199.151C471.483 198.875 472.07 198.736 472.729 198.736C473.758 198.736 474.527 199.002 475.036 199.533C475.551 200.059 475.808 200.903 475.808 202.065V208H474.43ZM482.499 208.166C481.154 208.166 480.091 207.757 479.311 206.938C478.536 206.118 478.149 204.981 478.149 203.526C478.149 202.059 478.509 200.895 479.228 200.031C479.953 199.168 480.924 198.736 482.142 198.736C483.282 198.736 484.184 199.113 484.848 199.865C485.512 200.612 485.844 201.6 485.844 202.829V203.7H479.577C479.604 204.768 479.873 205.579 480.382 206.132C480.896 206.686 481.619 206.962 482.548 206.962C483.528 206.962 484.496 206.758 485.454 206.348V207.577C484.967 207.787 484.505 207.936 484.067 208.025C483.636 208.119 483.113 208.166 482.499 208.166ZM482.125 199.89C481.395 199.89 480.811 200.128 480.374 200.604C479.942 201.08 479.687 201.738 479.61 202.58H484.366C484.366 201.711 484.173 201.047 483.785 200.587C483.398 200.123 482.844 199.89 482.125 199.89ZM494.427 208V202.115C494.427 201.373 494.258 200.82 493.92 200.455C493.583 200.089 493.054 199.907 492.335 199.907C491.383 199.907 490.686 200.164 490.243 200.679C489.8 201.193 489.579 202.043 489.579 203.227V208H488.201V198.902H489.322L489.546 200.147H489.612C489.895 199.699 490.29 199.353 490.799 199.11C491.308 198.861 491.876 198.736 492.501 198.736C493.597 198.736 494.421 199.002 494.975 199.533C495.528 200.059 495.805 200.903 495.805 202.065V208H494.427ZM501.582 207.029C501.826 207.029 502.061 207.012 502.288 206.979C502.514 206.94 502.694 206.902 502.827 206.863V207.917C502.678 207.989 502.456 208.047 502.163 208.091C501.875 208.141 501.615 208.166 501.383 208.166C499.623 208.166 498.743 207.239 498.743 205.385V199.973H497.44V199.309L498.743 198.736L499.324 196.794H500.121V198.902H502.761V199.973H500.121V205.327C500.121 205.875 500.251 206.296 500.511 206.589C500.771 206.882 501.128 207.029 501.582 207.029ZM520.666 208V202.082C520.666 201.357 520.511 200.814 520.201 200.455C519.891 200.089 519.409 199.907 518.756 199.907C517.899 199.907 517.265 200.153 516.855 200.646C516.446 201.138 516.241 201.896 516.241 202.92V208H514.863V202.082C514.863 201.357 514.708 200.814 514.398 200.455C514.089 200.089 513.604 199.907 512.946 199.907C512.083 199.907 511.449 200.167 511.045 200.687C510.646 201.202 510.447 202.048 510.447 203.227V208H509.069V198.902H510.19L510.414 200.147H510.48C510.741 199.705 511.106 199.359 511.576 199.11C512.052 198.861 512.583 198.736 513.17 198.736C514.592 198.736 515.522 199.251 515.959 200.28H516.025C516.297 199.804 516.689 199.428 517.204 199.151C517.719 198.875 518.305 198.736 518.964 198.736C519.993 198.736 520.762 199.002 521.271 199.533C521.786 200.059 522.043 200.903 522.043 202.065V208H520.666ZM528.734 208.166C527.389 208.166 526.327 207.757 525.546 206.938C524.772 206.118 524.384 204.981 524.384 203.526C524.384 202.059 524.744 200.895 525.463 200.031C526.188 199.168 527.16 198.736 528.377 198.736C529.517 198.736 530.419 199.113 531.083 199.865C531.747 200.612 532.079 201.6 532.079 202.829V203.7H525.812C525.84 204.768 526.108 205.579 526.617 206.132C527.132 206.686 527.854 206.962 528.784 206.962C529.763 206.962 530.732 206.758 531.689 206.348V207.577C531.202 207.787 530.74 207.936 530.303 208.025C529.871 208.119 529.348 208.166 528.734 208.166ZM528.36 199.89C527.63 199.89 527.046 200.128 526.609 200.604C526.177 201.08 525.923 201.738 525.845 202.58H530.602C530.602 201.711 530.408 201.047 530.021 200.587C529.633 200.123 529.08 199.89 528.36 199.89ZM537.375 207.029C537.618 207.029 537.854 207.012 538.081 206.979C538.307 206.94 538.487 206.902 538.62 206.863V207.917C538.471 207.989 538.249 208.047 537.956 208.091C537.668 208.141 537.408 208.166 537.176 208.166C535.416 208.166 534.536 207.239 534.536 205.385V199.973H533.233V199.309L534.536 198.736L535.117 196.794H535.914V198.902H538.554V199.973H535.914V205.327C535.914 205.875 536.044 206.296 536.304 206.589C536.564 206.882 536.921 207.029 537.375 207.029ZM546.672 208V202.115C546.672 201.373 546.503 200.82 546.166 200.455C545.828 200.089 545.299 199.907 544.58 199.907C543.623 199.907 542.923 200.167 542.48 200.687C542.043 201.207 541.824 202.059 541.824 203.244V208H540.446V195.084H541.824V198.994C541.824 199.464 541.802 199.854 541.758 200.164H541.841C542.112 199.727 542.497 199.384 542.995 199.135C543.498 198.88 544.071 198.753 544.713 198.753C545.825 198.753 546.658 199.019 547.211 199.55C547.77 200.076 548.05 200.914 548.05 202.065V208H546.672ZM558.741 203.443C558.741 204.926 558.368 206.085 557.621 206.921C556.874 207.751 555.841 208.166 554.524 208.166C553.711 208.166 552.989 207.975 552.358 207.593C551.727 207.211 551.24 206.664 550.897 205.95C550.554 205.236 550.382 204.4 550.382 203.443C550.382 201.96 550.753 200.806 551.495 199.981C552.236 199.151 553.265 198.736 554.583 198.736C555.855 198.736 556.865 199.16 557.612 200.006C558.365 200.853 558.741 201.999 558.741 203.443ZM551.81 203.443C551.81 204.605 552.042 205.49 552.507 206.099C552.972 206.708 553.656 207.012 554.558 207.012C555.46 207.012 556.143 206.711 556.608 206.107C557.078 205.499 557.313 204.611 557.313 203.443C557.313 202.286 557.078 201.409 556.608 200.812C556.143 200.208 555.454 199.907 554.541 199.907C553.639 199.907 552.958 200.203 552.499 200.795C552.04 201.387 551.81 202.27 551.81 203.443ZM567.357 206.78H567.283C566.646 207.704 565.694 208.166 564.427 208.166C563.237 208.166 562.311 207.759 561.646 206.946C560.988 206.132 560.659 204.976 560.659 203.476C560.659 201.976 560.991 200.812 561.655 199.981C562.319 199.151 563.243 198.736 564.427 198.736C565.661 198.736 566.608 199.185 567.266 200.081H567.374L567.316 199.425L567.283 198.786V195.084H568.661V208H567.54L567.357 206.78ZM564.602 207.012C565.542 207.012 566.223 206.758 566.644 206.249C567.07 205.734 567.283 204.907 567.283 203.767V203.476C567.283 202.187 567.067 201.268 566.635 200.72C566.209 200.167 565.526 199.89 564.585 199.89C563.777 199.89 563.157 200.206 562.726 200.836C562.299 201.462 562.086 202.347 562.086 203.493C562.086 204.655 562.299 205.532 562.726 206.124C563.152 206.716 563.777 207.012 564.602 207.012ZM577.459 205.518C577.459 206.365 577.144 207.018 576.513 207.477C575.882 207.936 574.997 208.166 573.857 208.166C572.651 208.166 571.71 207.975 571.035 207.593V206.315C571.472 206.536 571.939 206.711 572.438 206.838C572.941 206.965 573.425 207.029 573.89 207.029C574.61 207.029 575.163 206.915 575.55 206.688C575.938 206.456 576.131 206.105 576.131 205.634C576.131 205.28 575.976 204.979 575.667 204.729C575.362 204.475 574.764 204.176 573.874 203.833C573.027 203.518 572.424 203.244 572.064 203.011C571.71 202.773 571.444 202.505 571.267 202.206C571.096 201.907 571.01 201.55 571.01 201.135C571.01 200.394 571.311 199.81 571.915 199.384C572.518 198.952 573.345 198.736 574.396 198.736C575.376 198.736 576.333 198.936 577.269 199.334L576.779 200.455C575.866 200.078 575.038 199.89 574.297 199.89C573.644 199.89 573.151 199.993 572.819 200.197C572.487 200.402 572.321 200.684 572.321 201.044C572.321 201.287 572.382 201.495 572.504 201.667C572.631 201.838 572.833 202.001 573.11 202.156C573.387 202.311 573.918 202.535 574.704 202.829C575.783 203.222 576.51 203.617 576.887 204.016C577.269 204.414 577.459 204.915 577.459 205.518Z" fill="#303030"/>
<path d="M360.31 169.33C360.31 171.13 359.66 172.57 358.36 173.65C357.08 174.71 355.39 175.24 353.29 175.24C351.01 175.24 349.12 174.81 347.62 173.95V170.08C349.34 171.32 351.22 171.94 353.26 171.94C354.18 171.94 354.92 171.72 355.48 171.28C356.04 170.82 356.32 170.21 356.32 169.45C356.32 169.09 356.25 168.77 356.11 168.49C355.97 168.21 355.68 167.93 355.24 167.65C354.82 167.37 354.49 167.17 354.25 167.05C354.03 166.93 353.56 166.71 352.84 166.39C352.64 166.29 352.49 166.22 352.39 166.18C351.65 165.84 351.05 165.54 350.59 165.28C350.13 165 349.63 164.63 349.09 164.17C348.55 163.71 348.14 163.16 347.86 162.52C347.6 161.88 347.47 161.15 347.47 160.33C347.47 158.61 348.1 157.23 349.36 156.19C350.64 155.15 352.33 154.63 354.43 154.63C356.33 154.63 357.97 154.96 359.35 155.62V159.28C357.85 158.38 356.25 157.93 354.55 157.93C353.61 157.93 352.87 158.14 352.33 158.56C351.81 158.98 351.55 159.52 351.55 160.18C351.55 160.84 351.83 161.39 352.39 161.83C352.97 162.25 353.83 162.72 354.97 163.24C355.77 163.6 356.42 163.92 356.92 164.2C357.42 164.46 357.96 164.83 358.54 165.31C359.14 165.79 359.58 166.37 359.86 167.05C360.16 167.71 360.31 168.47 360.31 169.33ZM375.087 174.16C374.027 174.82 372.497 175.15 370.497 175.15C368.077 175.15 366.167 174.43 364.767 172.99C363.367 171.55 362.667 169.69 362.667 167.41C362.667 164.99 363.327 163.09 364.647 161.71C365.967 160.33 367.617 159.64 369.597 159.64C371.577 159.64 373.147 160.24 374.307 161.44C375.467 162.64 376.047 164.39 376.047 166.69C376.047 167.25 375.977 167.97 375.837 168.85H366.297C366.557 169.95 367.097 170.79 367.917 171.37C368.757 171.95 369.797 172.24 371.037 172.24C372.637 172.24 373.987 171.84 375.087 171.04V174.16ZM369.687 162.46C368.827 162.46 368.077 162.78 367.437 163.42C366.817 164.04 366.417 164.95 366.237 166.15H372.627V165.7C372.587 164.72 372.317 163.94 371.817 163.36C371.337 162.76 370.627 162.46 369.687 162.46ZM390.366 174.34C389.306 174.96 387.986 175.27 386.406 175.27C384.066 175.27 382.166 174.53 380.706 173.05C379.266 171.57 378.546 169.7 378.546 167.44C378.566 165.22 379.286 163.35 380.706 161.83C382.146 160.31 384.106 159.55 386.586 159.55C388.066 159.55 389.326 159.83 390.366 160.39V163.57C389.366 162.93 388.226 162.61 386.946 162.61C385.546 162.61 384.416 163.05 383.556 163.93C382.696 164.81 382.256 165.98 382.236 167.44C382.276 168.88 382.706 170.04 383.526 170.92C384.366 171.8 385.496 172.24 386.916 172.24C388.156 172.24 389.306 171.9 390.366 171.22V174.34ZM406.498 175H402.868V172.51C402.068 174.27 400.508 175.15 398.188 175.15C396.648 175.15 395.448 174.71 394.588 173.83C393.728 172.95 393.298 171.7 393.298 170.08V159.79H396.898V169.24C396.898 170.2 397.128 170.93 397.588 171.43C398.068 171.93 398.718 172.18 399.538 172.18C400.578 172.18 401.388 171.83 401.968 171.13C402.568 170.43 402.868 169.37 402.868 167.95V159.79H406.498V175ZM414.011 175H410.381L410.411 159.79H414.011V162.49C414.711 160.61 415.991 159.67 417.851 159.67C418.271 159.67 418.611 159.7 418.871 159.76V163.24C418.411 163.04 417.901 162.94 417.341 162.94C416.361 162.94 415.561 163.34 414.941 164.14C414.321 164.94 414.011 165.94 414.011 167.14V175ZM432.597 174.16C431.537 174.82 430.007 175.15 428.007 175.15C425.587 175.15 423.677 174.43 422.277 172.99C420.877 171.55 420.177 169.69 420.177 167.41C420.177 164.99 420.837 163.09 422.157 161.71C423.477 160.33 425.127 159.64 427.107 159.64C429.087 159.64 430.657 160.24 431.817 161.44C432.977 162.64 433.557 164.39 433.557 166.69C433.557 167.25 433.487 167.97 433.347 168.85H423.807C424.067 169.95 424.607 170.79 425.427 171.37C426.267 171.95 427.307 172.24 428.547 172.24C430.147 172.24 431.497 171.84 432.597 171.04V174.16ZM427.197 162.46C426.337 162.46 425.587 162.78 424.947 163.42C424.327 164.04 423.927 164.95 423.747 166.15H430.137V165.7C430.097 164.72 429.827 163.94 429.327 163.36C428.847 162.76 428.137 162.46 427.197 162.46ZM450.672 168.13H448.032V175H444.252V154.78H450.582C452.862 154.78 454.682 155.4 456.042 156.64C457.422 157.88 458.112 159.47 458.112 161.41C458.112 163.47 457.402 165.11 455.982 166.33C454.582 167.53 452.812 168.13 450.672 168.13ZM450.252 157.87H448.032V165.07H450.162C451.542 165.07 452.572 164.74 453.252 164.08C453.932 163.42 454.272 162.53 454.272 161.41C454.272 160.31 453.932 159.45 453.252 158.83C452.572 158.19 451.572 157.87 450.252 157.87ZM465.992 172.45C466.792 172.45 467.412 172.22 467.852 171.76C468.312 171.28 468.542 170.66 468.542 169.9V168.46H466.682C465.742 168.46 465.022 168.66 464.522 169.06C464.022 169.44 463.772 169.93 463.772 170.53C463.772 171.81 464.512 172.45 465.992 172.45ZM468.692 173.17C467.992 174.47 466.672 175.12 464.732 175.12C463.292 175.12 462.142 174.7 461.282 173.86C460.442 173.02 460.022 171.96 460.022 170.68C460.022 169.24 460.562 168.11 461.642 167.29C462.722 166.47 464.282 166.06 466.322 166.06H468.542V165.13C468.542 164.29 468.322 163.65 467.882 163.21C467.442 162.77 466.692 162.55 465.632 162.55C464.012 162.55 462.522 163 461.162 163.9V160.57C462.302 159.87 463.942 159.52 466.082 159.52C470.202 159.52 472.262 161.44 472.262 165.28V175H468.692V173.17ZM483.777 174.58C482.257 178.64 479.937 180.67 476.817 180.67C476.237 180.67 475.737 180.62 475.317 180.52V177.55C475.637 177.63 475.977 177.67 476.337 177.67C478.157 177.67 479.447 176.68 480.207 174.7L474.207 159.79H478.197L479.967 164.65C480.507 166.09 480.937 167.3 481.257 168.28C481.597 169.26 481.807 169.88 481.887 170.14L481.977 170.56C482.177 169.86 482.817 167.89 483.897 164.65L485.487 159.79H489.267L483.777 174.58ZM513.045 175H509.415V165.67C509.415 163.63 508.635 162.61 507.075 162.61C506.295 162.61 505.595 162.95 504.975 163.63C504.375 164.31 504.075 165.38 504.075 166.84V175H500.445V165.67C500.445 163.63 499.665 162.61 498.105 162.61C497.325 162.61 496.625 162.95 496.005 163.63C495.385 164.31 495.075 165.38 495.075 166.84V175H491.475V159.79H495.075V162.19C495.935 160.47 497.365 159.61 499.365 159.61C501.585 159.61 503.025 160.57 503.685 162.49C504.085 161.57 504.685 160.86 505.485 160.36C506.285 159.86 507.195 159.61 508.215 159.61C509.755 159.61 510.945 160.08 511.785 161.02C512.625 161.94 513.045 163.26 513.045 164.98V175ZM528.369 174.16C527.309 174.82 525.779 175.15 523.779 175.15C521.359 175.15 519.449 174.43 518.049 172.99C516.649 171.55 515.949 169.69 515.949 167.41C515.949 164.99 516.609 163.09 517.929 161.71C519.249 160.33 520.899 159.64 522.879 159.64C524.859 159.64 526.429 160.24 527.589 161.44C528.749 162.64 529.329 164.39 529.329 166.69C529.329 167.25 529.259 167.97 529.119 168.85H519.579C519.839 169.95 520.379 170.79 521.199 171.37C522.039 171.95 523.079 172.24 524.319 172.24C525.919 172.24 527.269 171.84 528.369 171.04V174.16ZM522.969 162.46C522.109 162.46 521.359 162.78 520.719 163.42C520.099 164.04 519.699 164.95 519.519 166.15H525.909V165.7C525.869 164.72 525.599 163.94 525.099 163.36C524.619 162.76 523.909 162.46 522.969 162.46ZM545.837 175H542.238V165.64C542.238 164.64 541.998 163.89 541.518 163.39C541.038 162.87 540.388 162.61 539.568 162.61C538.628 162.61 537.838 162.98 537.198 163.72C536.558 164.44 536.238 165.48 536.238 166.84V175H532.638V159.79H536.238V162.4C537.098 160.54 538.658 159.61 540.918 159.61C542.438 159.61 543.638 160.07 544.518 160.99C545.398 161.91 545.837 163.21 545.837 164.89V175ZM558 174.64C557.3 174.98 556.4 175.15 555.3 175.15C552.02 175.15 550.38 173.49 550.38 170.17V162.49H548.1V159.79H550.38V156.13H553.98V159.79H557.76V162.49H553.98V170.23C553.98 170.87 554.15 171.36 554.49 171.7C554.83 172.02 555.3 172.18 555.9 172.18C556.66 172.18 557.36 171.97 558 171.55V174.64Z" fill="#232323"/>
<g filter="url(#filter0_d_1_65)">
<rect x="403" y="19" width="100" height="100" rx="5" fill="white"/>
</g>
<mask id="mask0_1_65" style="mask-type:alpha" maskUnits="userSpaceOnUse" x="414" y="39" width="78" height="60">
<rect x="414" y="39" width="78" height="60" rx="10" fill="white"/>
</mask>
<g mask="url(#mask0_1_65)">
<path d="M457.93 89.3125L451.041 84.7198L451.893 83.4427L457.93 87.4681L463.968 83.4427L464.82 84.7198L457.93 89.3125Z" fill="#9E3040"/>
<path d="M473.169 57.2376C470.283 56.8186 467.463 56.0268 464.78 54.8824C462.351 53.8519 460.051 52.5411 457.927 50.9762C453.436 54.2757 448.206 56.4255 442.693 57.2376L442.47 55.7188C447.921 54.9172 453.079 52.7464 457.462 49.4098L457.93 49.0531L458.391 49.4098C460.539 51.0515 462.885 52.4167 465.375 53.4727C467.936 54.5654 470.628 55.3212 473.384 55.7214L473.169 57.2376Z" fill="#9E3040"/>
<path d="M463.302 73.6612H460.233V72.1263H463.302C463.726 72.1263 464.07 71.7826 464.07 71.3588C464.07 70.935 463.726 70.5914 463.302 70.5914H461.768C460.496 70.5914 459.465 69.5605 459.465 68.289C459.465 67.0172 460.496 65.9867 461.768 65.9867H464.837V67.5216H461.768C461.344 67.5216 461 67.8652 461 68.289C461 68.7129 461.344 69.0565 461.768 69.0565H463.302C464.574 69.0565 465.605 70.087 465.605 71.3588C465.605 72.6303 464.574 73.6612 463.302 73.6612Z" fill="#9E3040"/>
<path d="M461.768 64.4518H463.302V66.7541H461.768V64.4518Z" fill="#9E3040"/>
<path d="M461.768 72.8938H463.302V75.1961H461.768V72.8938Z" fill="#9E3040"/>
<path d="M475.959 52.9109C472.728 52.6827 469.559 51.9171 466.58 50.6453C463.599 49.3821 460.85 47.6306 458.445 45.4628L457.93 45L457.416 45.4605C452.564 49.8141 446.404 52.4343 439.903 52.9094L438.743 52.9862V58.3123H435.565C435.179 56.8152 433.74 55.8394 432.206 56.0343C430.673 56.2291 429.523 57.5336 429.523 59.0797C429.523 60.6255 430.673 61.9303 432.206 62.1248C433.74 62.3196 435.179 61.3438 435.565 59.8472H448.403L450.706 62.1495H456.395V65.9867H449.806L447.504 63.6844H428V65.2193H440.729L447.636 72.1263H456.395V75.9635H443.709L440.577 72.2027C441.424 70.8676 441.143 69.1105 439.922 68.1054C438.702 67.1004 436.923 67.1615 435.775 68.2486C434.627 69.3353 434.468 71.1074 435.404 72.3811C436.341 73.6552 438.079 74.0322 439.46 73.2606L441.711 75.9635H428V77.4984H450.3L447.558 81.3356H437.1C436.714 79.8386 435.275 78.8628 433.741 79.0577C432.208 79.2525 431.058 80.5569 431.058 82.1031C431.058 83.6488 432.208 84.9536 433.741 85.1481C435.275 85.343 436.714 84.3672 437.1 82.8705H444.408C445.839 84.5613 447.499 86.0449 449.34 87.277L457.93 93.0006L466.521 87.2755C473.147 82.8668 477.124 75.4336 477.117 67.4755V52.9907L475.959 52.9109ZM432.605 60.6146C431.757 60.6146 431.07 59.9273 431.07 59.0797C431.07 58.2317 431.757 57.5448 432.605 57.5448C433.452 57.5448 434.14 58.2317 434.14 59.0797C434.14 59.9273 433.452 60.6146 432.605 60.6146ZM437.977 72.1263C437.129 72.1263 436.442 71.439 436.442 70.5914C436.442 69.7434 437.129 69.0565 437.977 69.0565C438.824 69.0565 439.512 69.7434 439.512 70.5914C439.512 71.439 438.824 72.1263 437.977 72.1263ZM434.14 83.638C433.292 83.638 432.605 82.9507 432.605 82.1031C432.605 81.2551 433.292 80.5682 434.14 80.5682C434.987 80.5682 435.674 81.2551 435.674 82.1031C435.674 82.9507 434.987 83.638 434.14 83.638ZM448.271 70.5914L442.899 65.2193H446.868L449.171 67.5216H456.395V70.5914H448.271ZM475.582 67.4755C475.59 74.9206 471.868 81.8752 465.67 85.9999L457.93 91.1588L450.192 86.0014C448.839 85.0953 447.587 84.0457 446.46 82.8705H448.349L452.186 77.4984H456.395V84.4054H457.93V80.3685C462.755 82.4812 468.399 81.0497 471.633 76.8921C474.868 72.7345 474.868 66.9123 471.633 62.7547C468.399 58.5974 462.755 57.1656 457.93 59.2783V55.2425H456.395V60.6146H451.341L449.039 58.3123H440.279V54.4218C446.792 53.8882 452.97 51.3093 457.93 47.0546C460.337 49.1295 463.053 50.8173 465.978 52.0573C469.031 53.3602 472.274 54.1588 475.582 54.4218V67.4755ZM462.535 78.2659C466.138 78.2644 469.344 75.9763 470.515 72.5688C471.687 69.1614 470.567 65.386 467.726 63.1691C464.886 60.9519 460.951 60.7821 457.93 62.7464V60.9983C462.128 58.7852 467.304 59.8355 470.307 63.5094C473.31 67.1832 473.31 72.4643 470.307 76.1381C467.304 79.812 462.128 80.8624 457.93 78.6496V76.9011C459.299 77.7956 460.9 78.2696 462.535 78.2659ZM457.93 74.9611V64.6864C460.697 62.2005 464.934 62.3511 467.517 65.0274C470.1 67.7034 470.1 71.9442 467.517 74.6201C464.934 77.2964 460.697 77.4471 457.93 74.9611Z" fill="#9E3040"/>
</g>
<path d="M3.07959 208H1.66846V195.864H8.43359V197.118H3.07959V201.559H8.10986V202.812H3.07959V208ZM18.0957 203.443C18.0957 204.926 17.7222 206.085 16.9751 206.921C16.228 207.751 15.196 208.166 13.8789 208.166C13.0654 208.166 12.3433 207.975 11.7124 207.593C11.0815 207.211 10.5946 206.664 10.2515 205.95C9.90837 205.236 9.73682 204.4 9.73682 203.443C9.73682 201.96 10.1076 200.806 10.8491 199.981C11.5907 199.151 12.62 198.736 13.937 198.736C15.2098 198.736 16.2197 199.16 16.9668 200.006C17.7194 200.853 18.0957 201.999 18.0957 203.443ZM11.1646 203.443C11.1646 204.605 11.397 205.49 11.8618 206.099C12.3267 206.708 13.0101 207.012 13.9121 207.012C14.8141 207.012 15.4976 206.711 15.9624 206.107C16.4328 205.499 16.668 204.611 16.668 203.443C16.668 202.286 16.4328 201.409 15.9624 200.812C15.4976 200.208 14.8086 199.907 13.8955 199.907C12.9935 199.907 12.3128 200.203 11.8535 200.795C11.3942 201.387 11.1646 202.27 11.1646 203.443ZM24.6699 198.736C25.0739 198.736 25.4364 198.77 25.7573 198.836L25.5664 200.114C25.1901 200.031 24.8581 199.99 24.5703 199.99C23.8343 199.99 23.2035 200.289 22.6777 200.886C22.1576 201.484 21.8975 202.228 21.8975 203.119V208H20.5195V198.902H21.6567L21.8145 200.587H21.8809C22.2184 199.995 22.6252 199.539 23.1011 199.218C23.577 198.897 24.0999 198.736 24.6699 198.736ZM37.4697 208L37.1958 206.705H37.1294C36.6756 207.275 36.2218 207.662 35.7681 207.867C35.3198 208.066 34.7581 208.166 34.083 208.166C33.181 208.166 32.4727 207.934 31.958 207.469C31.4489 207.004 31.1943 206.343 31.1943 205.485C31.1943 203.648 32.6636 202.685 35.6021 202.596L37.146 202.546V201.982C37.146 201.268 36.991 200.742 36.6812 200.405C36.3768 200.062 35.887 199.89 35.2119 199.89C34.4538 199.89 33.596 200.123 32.6387 200.587L32.2153 199.533C32.6636 199.29 33.1533 199.099 33.6846 198.96C34.2214 198.822 34.7581 198.753 35.2949 198.753C36.3796 198.753 37.182 198.994 37.7021 199.475C38.2279 199.957 38.4907 200.729 38.4907 201.791V208H37.4697ZM34.3569 207.029C35.2147 207.029 35.887 206.794 36.374 206.323C36.8665 205.853 37.1128 205.194 37.1128 204.348V203.526L35.7349 203.584C34.6392 203.623 33.8478 203.794 33.3608 204.099C32.8794 204.397 32.6387 204.865 32.6387 205.501C32.6387 206 32.7881 206.379 33.0869 206.639C33.3913 206.899 33.8146 207.029 34.3569 207.029ZM42.7158 208H41.3379V195.084H42.7158V208ZM47.0156 208H45.6377V195.084H47.0156V208ZM62.2061 203.443C62.2061 204.926 61.8325 206.085 61.0854 206.921C60.3384 207.751 59.3063 208.166 57.9893 208.166C57.1758 208.166 56.4536 207.975 55.8228 207.593C55.1919 207.211 54.7049 206.664 54.3618 205.95C54.0187 205.236 53.8472 204.4 53.8472 203.443C53.8472 201.96 54.2179 200.806 54.9595 199.981C55.701 199.151 56.7303 198.736 58.0474 198.736C59.3201 198.736 60.3301 199.16 61.0771 200.006C61.8298 200.853 62.2061 201.999 62.2061 203.443ZM55.2749 203.443C55.2749 204.605 55.5073 205.49 55.9722 206.099C56.437 206.708 57.1204 207.012 58.0225 207.012C58.9245 207.012 59.6079 206.711 60.0728 206.107C60.5431 205.499 60.7783 204.611 60.7783 203.443C60.7783 202.286 60.5431 201.409 60.0728 200.812C59.6079 200.208 58.9189 199.907 58.0059 199.907C57.1038 199.907 56.4232 200.203 55.9639 200.795C55.5046 201.387 55.2749 202.27 55.2749 203.443ZM68.7803 198.736C69.1842 198.736 69.5467 198.77 69.8677 198.836L69.6768 200.114C69.3005 200.031 68.9684 199.99 68.6807 199.99C67.9447 199.99 67.3138 200.289 66.7881 200.886C66.2679 201.484 66.0078 202.228 66.0078 203.119V208H64.6299V198.902H65.7671L65.9248 200.587H65.9912C66.3288 199.995 66.7355 199.539 67.2114 199.218C67.6873 198.897 68.2103 198.736 68.7803 198.736ZM77.7617 206.78H77.687C77.0506 207.704 76.0988 208.166 74.8315 208.166C73.6418 208.166 72.7148 207.759 72.0508 206.946C71.3923 206.132 71.063 204.976 71.063 203.476C71.063 201.976 71.395 200.812 72.0591 199.981C72.7231 199.151 73.6473 198.736 74.8315 198.736C76.0656 198.736 77.0119 199.185 77.6704 200.081H77.7783L77.7202 199.425L77.687 198.786V195.084H79.0649V208H77.9443L77.7617 206.78ZM75.0059 207.012C75.9466 207.012 76.6273 206.758 77.0479 206.249C77.474 205.734 77.687 204.907 77.687 203.767V203.476C77.687 202.187 77.4712 201.268 77.0396 200.72C76.6134 200.167 75.93 199.89 74.9893 199.89C74.1813 199.89 73.5615 200.206 73.1299 200.836C72.7038 201.462 72.4907 202.347 72.4907 203.493C72.4907 204.655 72.7038 205.532 73.1299 206.124C73.556 206.716 74.1813 207.012 75.0059 207.012ZM85.8384 208.166C84.4937 208.166 83.4312 207.757 82.6509 206.938C81.8761 206.118 81.4888 204.981 81.4888 203.526C81.4888 202.059 81.8485 200.895 82.5679 200.031C83.2928 199.168 84.264 198.736 85.4814 198.736C86.6214 198.736 87.5234 199.113 88.1875 199.865C88.8516 200.612 89.1836 201.6 89.1836 202.829V203.7H82.9165C82.9442 204.768 83.2126 205.579 83.7217 206.132C84.2363 206.686 84.9585 206.962 85.8882 206.962C86.8677 206.962 87.8361 206.758 88.7935 206.348V207.577C88.3065 207.787 87.8444 207.936 87.4072 208.025C86.9756 208.119 86.4526 208.166 85.8384 208.166ZM85.4648 199.89C84.7344 199.89 84.1506 200.128 83.7134 200.604C83.2817 201.08 83.0272 201.738 82.9497 202.58H87.7061C87.7061 201.711 87.5124 201.047 87.125 200.587C86.7376 200.123 86.1842 199.89 85.4648 199.89ZM95.6914 198.736C96.0954 198.736 96.4578 198.77 96.7788 198.836L96.5879 200.114C96.2116 200.031 95.8796 199.99 95.5918 199.99C94.8558 199.99 94.2249 200.289 93.6992 200.886C93.179 201.484 92.9189 202.228 92.9189 203.119V208H91.541V198.902H92.6782L92.8359 200.587H92.9023C93.2399 199.995 93.6466 199.539 94.1226 199.218C94.5985 198.897 95.1214 198.736 95.6914 198.736ZM104.349 205.518C104.349 206.365 104.034 207.018 103.403 207.477C102.772 207.936 101.887 208.166 100.747 208.166C99.5402 208.166 98.5994 207.975 97.9243 207.593V206.315C98.3615 206.536 98.8291 206.711 99.3271 206.838C99.8307 206.965 100.315 207.029 100.78 207.029C101.499 207.029 102.053 206.915 102.44 206.688C102.827 206.456 103.021 206.105 103.021 205.634C103.021 205.28 102.866 204.979 102.556 204.729C102.252 204.475 101.654 204.176 100.763 203.833C99.9165 203.518 99.3133 203.244 98.9536 203.011C98.5994 202.773 98.3338 202.505 98.1567 202.206C97.9852 201.907 97.8994 201.55 97.8994 201.135C97.8994 200.394 98.201 199.81 98.8042 199.384C99.4074 198.952 100.235 198.736 101.286 198.736C102.266 198.736 103.223 198.936 104.158 199.334L103.668 200.455C102.755 200.078 101.928 199.89 101.187 199.89C100.534 199.89 100.041 199.993 99.709 200.197C99.377 200.402 99.2109 200.684 99.2109 201.044C99.2109 201.287 99.2718 201.495 99.3936 201.667C99.5208 201.838 99.7228 202.001 99.9995 202.156C100.276 202.311 100.807 202.535 101.593 202.829C102.672 203.222 103.4 203.617 103.776 204.016C104.158 204.414 104.349 204.915 104.349 205.518ZM116.609 208L116.335 206.705H116.269C115.815 207.275 115.361 207.662 114.908 207.867C114.459 208.066 113.898 208.166 113.223 208.166C112.321 208.166 111.612 207.934 111.098 207.469C110.589 207.004 110.334 206.343 110.334 205.485C110.334 203.648 111.803 202.685 114.742 202.596L116.286 202.546V201.982C116.286 201.268 116.131 200.742 115.821 200.405C115.516 200.062 115.027 199.89 114.352 199.89C113.593 199.89 112.736 200.123 111.778 200.587L111.355 199.533C111.803 199.29 112.293 199.099 112.824 198.96C113.361 198.822 113.898 198.753 114.435 198.753C115.519 198.753 116.322 198.994 116.842 199.475C117.368 199.957 117.63 200.729 117.63 201.791V208H116.609ZM113.497 207.029C114.354 207.029 115.027 206.794 115.514 206.323C116.006 205.853 116.252 205.194 116.252 204.348V203.526L114.875 203.584C113.779 203.623 112.987 203.794 112.5 204.099C112.019 204.397 111.778 204.865 111.778 205.501C111.778 206 111.928 206.379 112.227 206.639C112.531 206.899 112.954 207.029 113.497 207.029ZM124.711 198.753C125.906 198.753 126.833 199.162 127.492 199.981C128.156 200.795 128.488 201.949 128.488 203.443C128.488 204.937 128.153 206.099 127.483 206.929C126.819 207.754 125.895 208.166 124.711 208.166C124.119 208.166 123.576 208.058 123.084 207.842C122.597 207.621 122.188 207.283 121.855 206.83H121.756L121.465 208H120.478V195.084H121.855V198.222C121.855 198.924 121.833 199.555 121.789 200.114H121.855C122.497 199.207 123.449 198.753 124.711 198.753ZM124.512 199.907C123.571 199.907 122.893 200.178 122.478 200.72C122.063 201.257 121.855 202.165 121.855 203.443C121.855 204.721 122.069 205.637 122.495 206.19C122.921 206.738 123.604 207.012 124.545 207.012C125.392 207.012 126.022 206.705 126.438 206.091C126.853 205.471 127.06 204.583 127.06 203.426C127.06 202.242 126.853 201.359 126.438 200.778C126.022 200.197 125.381 199.907 124.512 199.907ZM138.756 203.443C138.756 204.926 138.382 206.085 137.635 206.921C136.888 207.751 135.856 208.166 134.539 208.166C133.726 208.166 133.003 207.975 132.373 207.593C131.742 207.211 131.255 206.664 130.912 205.95C130.569 205.236 130.397 204.4 130.397 203.443C130.397 201.96 130.768 200.806 131.509 199.981C132.251 199.151 133.28 198.736 134.597 198.736C135.87 198.736 136.88 199.16 137.627 200.006C138.38 200.853 138.756 201.999 138.756 203.443ZM131.825 203.443C131.825 204.605 132.057 205.49 132.522 206.099C132.987 206.708 133.67 207.012 134.572 207.012C135.474 207.012 136.158 206.711 136.623 206.107C137.093 205.499 137.328 204.611 137.328 203.443C137.328 202.286 137.093 201.409 136.623 200.812C136.158 200.208 135.469 199.907 134.556 199.907C133.654 199.907 132.973 200.203 132.514 200.795C132.054 201.387 131.825 202.27 131.825 203.443ZM143.172 208L139.719 198.902H141.196L143.155 204.298C143.598 205.56 143.858 206.379 143.936 206.755H144.002C144.063 206.462 144.254 205.856 144.575 204.937C144.901 204.013 145.629 202.001 146.758 198.902H148.235L144.782 208H143.172ZM153.54 208.166C152.195 208.166 151.132 207.757 150.352 206.938C149.577 206.118 149.19 204.981 149.19 203.526C149.19 202.059 149.55 200.895 150.269 200.031C150.994 199.168 151.965 198.736 153.183 198.736C154.323 198.736 155.225 199.113 155.889 199.865C156.553 200.612 156.885 201.6 156.885 202.829V203.7H150.618C150.645 204.768 150.914 205.579 151.423 206.132C151.938 206.686 152.66 206.962 153.589 206.962C154.569 206.962 155.537 206.758 156.495 206.348V207.577C156.008 207.787 155.546 207.936 155.108 208.025C154.677 208.119 154.154 208.166 153.54 208.166ZM153.166 199.89C152.436 199.89 151.852 200.128 151.415 200.604C150.983 201.08 150.728 201.738 150.651 202.58H155.407C155.407 201.711 155.214 201.047 154.826 200.587C154.439 200.123 153.885 199.89 153.166 199.89ZM170.797 204.273C170.797 205.026 170.515 205.648 169.95 206.141C169.386 206.628 168.597 206.935 167.584 207.062V208.988H166.514V207.137C165.894 207.137 165.293 207.09 164.712 206.996C164.131 206.896 163.655 206.76 163.285 206.589V205.294C163.744 205.499 164.272 205.667 164.87 205.8C165.473 205.928 166.021 205.991 166.514 205.991V202.339C165.379 201.979 164.582 201.561 164.123 201.085C163.669 200.61 163.442 199.995 163.442 199.243C163.442 198.518 163.722 197.923 164.281 197.458C164.845 196.993 165.59 196.711 166.514 196.611V195.101H167.584V196.595C168.603 196.622 169.585 196.827 170.531 197.209L170.1 198.296C169.275 197.97 168.437 197.776 167.584 197.715V201.318C168.453 201.595 169.104 201.866 169.535 202.131C169.967 202.391 170.285 202.693 170.49 203.036C170.694 203.374 170.797 203.786 170.797 204.273ZM169.386 204.381C169.386 203.982 169.261 203.661 169.012 203.418C168.769 203.169 168.293 202.923 167.584 202.679V205.908C168.785 205.742 169.386 205.233 169.386 204.381ZM164.845 199.226C164.845 199.647 164.97 199.984 165.219 200.239C165.468 200.493 165.899 200.734 166.514 200.961V197.749C165.966 197.837 165.551 198.011 165.269 198.271C164.986 198.526 164.845 198.844 164.845 199.226ZM180.276 198.72C180.276 199.494 180.058 200.128 179.621 200.621C179.189 201.113 178.575 201.442 177.778 201.608V201.675C178.752 201.797 179.474 202.106 179.944 202.604C180.415 203.103 180.65 203.756 180.65 204.563C180.65 205.72 180.249 206.611 179.446 207.236C178.644 207.856 177.504 208.166 176.026 208.166C175.384 208.166 174.795 208.116 174.258 208.017C173.727 207.923 173.21 207.754 172.706 207.51V206.199C173.232 206.459 173.791 206.658 174.383 206.796C174.98 206.929 175.545 206.996 176.076 206.996C178.174 206.996 179.222 206.174 179.222 204.53C179.222 203.058 178.066 202.322 175.752 202.322H174.557V201.135H175.769C176.715 201.135 177.465 200.928 178.019 200.513C178.572 200.092 178.849 199.511 178.849 198.77C178.849 198.177 178.644 197.713 178.234 197.375C177.83 197.037 177.28 196.869 176.583 196.869C176.051 196.869 175.55 196.941 175.08 197.084C174.61 197.228 174.073 197.494 173.47 197.881L172.772 196.952C173.271 196.559 173.843 196.252 174.491 196.03C175.144 195.803 175.83 195.69 176.549 195.69C177.728 195.69 178.644 195.961 179.297 196.503C179.95 197.04 180.276 197.779 180.276 198.72ZM186.278 200.587C187.556 200.587 188.561 200.906 189.291 201.542C190.027 202.173 190.395 203.039 190.395 204.14C190.395 205.396 189.994 206.381 189.191 207.095C188.395 207.809 187.293 208.166 185.888 208.166C184.521 208.166 183.478 207.947 182.758 207.51V206.182C183.146 206.431 183.627 206.628 184.203 206.771C184.778 206.91 185.345 206.979 185.904 206.979C186.878 206.979 187.634 206.749 188.17 206.29C188.713 205.831 188.984 205.167 188.984 204.298C188.984 202.604 187.946 201.758 185.871 201.758C185.345 201.758 184.643 201.838 183.763 201.999L183.049 201.542L183.505 195.864H189.54V197.134H184.684L184.377 200.778C185.013 200.651 185.647 200.587 186.278 200.587Z" fill="#303030"/>
<path d="M21.93 166.93H14.91V175H11.1V154.78H22.95V157.87H14.91V163.84H21.93V166.93ZM29.5207 175H25.8907L25.9207 159.79H29.5207V162.49C30.2207 160.61 31.5007 159.67 33.3607 159.67C33.7807 159.67 34.1207 159.7 34.3807 159.76V163.24C33.9207 163.04 33.4107 162.94 32.8507 162.94C31.8707 162.94 31.0707 163.34 30.4507 164.14C29.8307 164.94 29.5207 165.94 29.5207 167.14V175ZM48.1069 174.16C47.0469 174.82 45.5169 175.15 43.5169 175.15C41.0969 175.15 39.1869 174.43 37.7869 172.99C36.3869 171.55 35.6869 169.69 35.6869 167.41C35.6869 164.99 36.3469 163.09 37.6669 161.71C38.9869 160.33 40.6369 159.64 42.6169 159.64C44.5969 159.64 46.1669 160.24 47.3269 161.44C48.4869 162.64 49.0669 164.39 49.0669 166.69C49.0669 167.25 48.9969 167.97 48.8569 168.85H39.3169C39.5769 169.95 40.1169 170.79 40.9369 171.37C41.7769 171.95 42.8169 172.24 44.0569 172.24C45.6569 172.24 47.0069 171.84 48.1069 171.04V174.16ZM42.7069 162.46C41.8469 162.46 41.0969 162.78 40.4569 163.42C39.8369 164.04 39.4369 164.95 39.2569 166.15H45.6469V165.7C45.6069 164.72 45.3369 163.94 44.8369 163.36C44.3569 162.76 43.6469 162.46 42.7069 162.46ZM63.9858 174.16C62.9258 174.82 61.3958 175.15 59.3958 175.15C56.9758 175.15 55.0658 174.43 53.6658 172.99C52.2658 171.55 51.5658 169.69 51.5658 167.41C51.5658 164.99 52.2258 163.09 53.5458 161.71C54.8658 160.33 56.5158 159.64 58.4958 159.64C60.4758 159.64 62.0458 160.24 63.2058 161.44C64.3658 162.64 64.9458 164.39 64.9458 166.69C64.9458 167.25 64.8758 167.97 64.7358 168.85H55.1958C55.4558 169.95 55.9958 170.79 56.8158 171.37C57.6558 171.95 58.6958 172.24 59.9358 172.24C61.5358 172.24 62.8858 171.84 63.9858 171.04V174.16ZM58.5858 162.46C57.7258 162.46 56.9758 162.78 56.3358 163.42C55.7158 164.04 55.3158 164.95 55.1358 166.15H61.5258V165.7C61.4858 164.72 61.2158 163.94 60.7158 163.36C60.2358 162.76 59.5258 162.46 58.5858 162.46ZM82.241 175H75.641V154.78H82.241C85.261 154.78 87.731 155.71 89.651 157.57C91.571 159.43 92.531 161.78 92.531 164.62C92.531 167.72 91.601 170.23 89.741 172.15C87.881 174.05 85.381 175 82.241 175ZM82.121 157.96H79.511V171.85H82.181C84.301 171.85 85.911 171.2 87.011 169.9C88.111 168.58 88.661 166.82 88.661 164.62C88.661 162.68 88.071 161.09 86.891 159.85C85.731 158.59 84.141 157.96 82.121 157.96ZM107.345 174.16C106.285 174.82 104.755 175.15 102.755 175.15C100.335 175.15 98.4252 174.43 97.0252 172.99C95.6252 171.55 94.9252 169.69 94.9252 167.41C94.9252 164.99 95.5852 163.09 96.9052 161.71C98.2252 160.33 99.8752 159.64 101.855 159.64C103.835 159.64 105.405 160.24 106.565 161.44C107.725 162.64 108.305 164.39 108.305 166.69C108.305 167.25 108.235 167.97 108.095 168.85H98.5552C98.8152 169.95 99.3552 170.79 100.175 171.37C101.015 171.95 102.055 172.24 103.295 172.24C104.895 172.24 106.245 171.84 107.345 171.04V174.16ZM101.945 162.46C101.085 162.46 100.335 162.78 99.6952 163.42C99.0752 164.04 98.6752 164.95 98.4952 166.15H104.885V165.7C104.845 164.72 104.575 163.94 104.075 163.36C103.595 162.76 102.885 162.46 101.945 162.46ZM115.364 175H111.764V153.79H115.364V175ZM123.157 175H119.557V159.79H123.157V175ZM123.517 155.23C123.517 155.85 123.307 156.37 122.887 156.79C122.467 157.21 121.957 157.42 121.357 157.42C120.757 157.42 120.247 157.21 119.827 156.79C119.407 156.37 119.197 155.85 119.197 155.23C119.197 154.63 119.407 154.12 119.827 153.7C120.247 153.28 120.757 153.07 121.357 153.07C121.957 153.07 122.467 153.28 122.887 153.7C123.307 154.12 123.517 154.63 123.517 155.23ZM135.03 175H131.13L125.64 159.79H129.42L131.43 166.24C131.83 167.5 132.17 168.63 132.45 169.63C132.73 170.61 132.91 171.28 132.99 171.64L133.08 172.18C133.28 171.06 133.85 169.08 134.79 166.24L136.89 159.79H140.61L135.03 175ZM154.542 174.16C153.482 174.82 151.952 175.15 149.952 175.15C147.532 175.15 145.622 174.43 144.222 172.99C142.822 171.55 142.122 169.69 142.122 167.41C142.122 164.99 142.782 163.09 144.102 161.71C145.422 160.33 147.072 159.64 149.052 159.64C151.032 159.64 152.602 160.24 153.762 161.44C154.922 162.64 155.502 164.39 155.502 166.69C155.502 167.25 155.432 167.97 155.292 168.85H145.752C146.012 169.95 146.552 170.79 147.372 171.37C148.212 171.95 149.252 172.24 150.492 172.24C152.092 172.24 153.442 171.84 154.542 171.04V174.16ZM149.142 162.46C148.282 162.46 147.532 162.78 146.892 163.42C146.272 164.04 145.872 164.95 145.692 166.15H152.082V165.7C152.042 164.72 151.772 163.94 151.272 163.36C150.792 162.76 150.082 162.46 149.142 162.46ZM162.411 175H158.781L158.811 159.79H162.411V162.49C163.111 160.61 164.391 159.67 166.251 159.67C166.671 159.67 167.011 159.7 167.271 159.76V163.24C166.811 163.04 166.301 162.94 165.741 162.94C164.761 162.94 163.961 163.34 163.341 164.14C162.721 164.94 162.411 165.94 162.411 167.14V175ZM177.188 174.58C175.668 178.64 173.348 180.67 170.228 180.67C169.648 180.67 169.148 180.62 168.728 180.52V177.55C169.048 177.63 169.388 177.67 169.748 177.67C171.568 177.67 172.858 176.68 173.618 174.7L167.618 159.79H171.608L173.378 164.65C173.918 166.09 174.348 167.3 174.668 168.28C175.008 169.26 175.218 169.88 175.298 170.14L175.388 170.56C175.588 169.86 176.228 167.89 177.308 164.65L178.898 159.79H182.678L177.188 174.58Z" fill="#232323"/>
<g filter="url(#filter1_d_1_65)">
<rect x="46" y="19" width="100" height="100" rx="5" fill="white"/>
</g>
<mask id="mask1_1_65" style="mask-type:alpha" maskUnits="userSpaceOnUse" x="63" y="44" width="66" height="50">
<rect x="63.5" y="44" width="65" height="50" rx="10" fill="white"/>
</mask>
<g mask="url(#mask1_1_65)">
<path d="M79.0894 80.6871C78.5731 80.6871 78.1545 81.1057 78.1545 81.622C78.1545 82.1375 77.735 82.557 77.2195 82.557C76.704 82.557 76.2846 82.1375 76.2846 81.622C76.2846 81.1065 76.704 80.6871 77.2195 80.6871C77.7359 80.6871 78.1545 80.2684 78.1545 79.7521C78.1545 79.2358 77.7359 78.8171 77.2195 78.8171C75.6729 78.8171 74.4146 80.0755 74.4146 81.622C74.4146 83.1686 75.6729 84.4269 77.2195 84.4269C78.7662 84.4269 80.0244 83.1686 80.0244 81.622C80.0244 81.1057 79.6058 80.6871 79.0894 80.6871Z" fill="#9E3040"/>
<path d="M116.488 80.6871C115.971 80.6871 115.553 81.1057 115.553 81.622C115.553 82.1375 115.133 82.557 114.618 82.557C114.102 82.557 113.683 82.1375 113.683 81.622C113.683 81.1065 114.102 80.6871 114.618 80.6871C115.134 80.6871 115.553 80.2684 115.553 79.7521C115.553 79.2358 115.134 78.8171 114.618 78.8171C113.071 78.8171 111.813 80.0755 111.813 81.622C111.813 83.1686 113.071 84.4269 114.618 84.4269C116.165 84.4269 117.423 83.1686 117.423 81.622C117.423 81.1057 117.004 80.6871 116.488 80.6871Z" fill="#9E3040"/>
<path d="M125.837 68.5326C125.837 68.2718 125.73 68.0362 125.558 67.8666C125.159 66.7616 124.348 65.8338 123.253 65.2861C123.224 65.2715 123.194 65.2586 123.164 65.2471L120.074 64.0872L118.191 56.9353C118.189 56.925 118.186 56.9148 118.183 56.9046C117.585 54.9121 115.786 53.5732 113.705 53.5732H107.138V51.7033C107.138 50.6723 106.299 49.8334 105.268 49.8334H67.8699C66.8389 49.8334 66 50.6723 66 51.7033V77.8822C66 78.9132 66.8389 79.7521 67.8699 79.7521H70.9484C70.8578 80.0552 70.7885 80.3674 70.7426 80.687H66.935C66.4186 80.687 66 81.1057 66 81.622C66 82.1383 66.4186 82.5569 66.935 82.5569H70.7427C71.1979 85.7244 73.9283 88.1667 77.2195 88.1667C80.5107 88.1667 83.2412 85.7244 83.6963 82.5569H85.6341C85.6341 84.1035 86.8924 85.3618 88.439 85.3618H94.0488C95.5954 85.3618 96.8537 84.1035 96.8537 82.5569H108.141C108.596 85.7244 111.327 88.1667 114.618 88.1667C117.909 88.1667 120.64 85.7244 121.095 82.5569H124.902C125.419 82.5569 125.837 82.1383 125.837 81.622C125.837 81.1057 125.419 80.687 124.902 80.687H121.095C121.049 80.3674 120.979 80.0552 120.889 79.7521H123.967C124.999 79.7521 125.837 78.9132 125.837 77.8822V69.4675C125.837 69.2478 125.822 69.031 125.793 68.818C125.822 68.728 125.837 68.6321 125.837 68.5326ZM123.967 74.1423H123.033V73.2074H123.967V74.1423ZM123.254 67.5976H107.138V65.7277H119.123L122.458 66.9794C122.765 67.1391 123.032 67.35 123.254 67.5976ZM113.705 55.4431C114.949 55.4431 116.025 56.2401 116.388 57.4278L118.08 63.8578H107.138V55.4431H113.705ZM71.6099 77.8822H67.8699V73.2074H96.8541C97.3705 73.2074 97.7891 72.7887 97.7891 72.2724C97.7891 71.7561 97.3705 71.3374 96.8541 71.3374H67.8699V51.7033H105.268V77.8822H94.0488H88.439H82.8295C82.7523 77.8822 82.6776 77.8926 82.6057 77.9102C81.4239 76.2004 79.4508 75.0773 77.2195 75.0773C74.9882 75.0773 73.0152 76.2004 71.8333 77.9102C71.7616 77.8926 71.687 77.8822 71.6099 77.8822ZM77.2195 86.2968C74.6418 86.2968 72.5447 84.1997 72.5447 81.622C72.5447 79.0443 74.6418 76.9472 77.2195 76.9472C79.7972 76.9472 81.8943 79.0443 81.8943 81.622C81.8943 84.1997 79.7972 86.2968 77.2195 86.2968ZM83.6963 80.687C83.6504 80.3674 83.5811 80.0552 83.4905 79.7521H85.795C85.6912 80.0447 85.6341 80.3593 85.6341 80.687H83.6963ZM94.9837 82.5569C94.9837 83.0725 94.5643 83.4919 94.0488 83.4919H88.439C87.9235 83.4919 87.5041 83.0725 87.5041 82.5569V81.6242C87.5041 81.6234 87.5042 81.6227 87.5042 81.622C87.5042 81.6213 87.5041 81.6205 87.5041 81.6198V80.687C87.5041 80.1715 87.9235 79.7521 88.439 79.7521H94.0488C94.5643 79.7521 94.9837 80.1715 94.9837 80.687V82.5569ZM96.6928 79.7521H106.203H108.347C108.256 80.0552 108.187 80.3674 108.141 80.687H96.8537C96.8537 80.3593 96.7966 80.0447 96.6928 79.7521ZM114.618 86.2968C112.04 86.2968 109.943 84.1997 109.943 81.622C109.943 79.0443 112.04 76.9472 114.618 76.9472C117.196 76.9472 119.293 79.0443 119.293 81.622C119.293 84.1997 117.196 86.2968 114.618 86.2968ZM120.228 77.8822C120.151 77.8822 120.076 77.8926 120.004 77.9102C118.822 76.2004 116.849 75.0773 114.618 75.0773C112.387 75.0773 110.414 76.2004 109.232 77.9102C109.16 77.8926 109.085 77.8822 109.008 77.8822H107.138V69.4675H123.968V71.3374H123.033C122.002 71.3374 121.163 72.1763 121.163 73.2074V74.1423C121.163 75.1733 122.002 76.0122 123.033 76.0122H123.968V77.8822H120.228Z" fill="#9E3040"/>
<path d="M89.374 80.687C89.1274 80.687 88.8866 80.7874 88.7125 80.9605C88.5384 81.1346 88.439 81.3765 88.439 81.622C88.439 81.8684 88.5384 82.1093 88.7125 82.2835C88.8866 82.4575 89.1274 82.5569 89.374 82.5569C89.6206 82.5569 89.8613 82.4575 90.0355 82.2835C90.2096 82.1093 90.3089 81.8673 90.3089 81.622C90.3089 81.3764 90.2096 81.1346 90.0355 80.9605C89.8613 80.7874 89.6206 80.687 89.374 80.687Z" fill="#9E3040"/>
<path d="M100.594 73.2073H102.463C102.98 73.2073 103.398 72.7887 103.398 72.2724C103.398 71.756 102.98 71.3374 102.463 71.3374H100.594C100.078 71.3374 99.659 71.756 99.659 72.2724C99.659 72.7887 100.078 73.2073 100.594 73.2073Z" fill="#9E3040"/>
</g>
<path d="M726.26 208H724.866L722.417 199.874C722.301 199.514 722.171 199.06 722.027 198.512C721.883 197.964 721.808 197.635 721.803 197.524C721.681 198.255 721.487 199.055 721.222 199.923L718.848 208H717.453L714.224 195.864H715.718L717.636 203.36C717.901 204.411 718.095 205.363 718.217 206.215C718.366 205.203 718.588 204.212 718.881 203.244L721.056 195.864H722.55L724.833 203.31C725.098 204.168 725.322 205.136 725.505 206.215C725.61 205.43 725.809 204.472 726.103 203.343L728.012 195.864H729.506L726.26 208ZM735.042 208.166C733.698 208.166 732.635 207.757 731.855 206.938C731.08 206.118 730.693 204.981 730.693 203.526C730.693 202.059 731.053 200.895 731.772 200.031C732.497 199.168 733.468 198.736 734.686 198.736C735.826 198.736 736.728 199.113 737.392 199.865C738.056 200.612 738.388 201.6 738.388 202.829V203.7H732.121C732.148 204.768 732.417 205.579 732.926 206.132C733.44 206.686 734.163 206.962 735.092 206.962C736.072 206.962 737.04 206.758 737.998 206.348V207.577C737.511 207.787 737.049 207.936 736.611 208.025C736.18 208.119 735.657 208.166 735.042 208.166ZM734.669 199.89C733.938 199.89 733.355 200.128 732.917 200.604C732.486 201.08 732.231 201.738 732.154 202.58H736.91C736.91 201.711 736.716 201.047 736.329 200.587C735.942 200.123 735.388 199.89 734.669 199.89ZM751.387 208V202.115C751.387 201.373 751.218 200.82 750.88 200.455C750.543 200.089 750.014 199.907 749.295 199.907C748.338 199.907 747.638 200.167 747.195 200.687C746.758 201.207 746.539 202.059 746.539 203.244V208H745.161V195.084H746.539V198.994C746.539 199.464 746.517 199.854 746.473 200.164H746.556C746.827 199.727 747.211 199.384 747.709 199.135C748.213 198.88 748.786 198.753 749.428 198.753C750.54 198.753 751.373 199.019 751.926 199.55C752.485 200.076 752.765 200.914 752.765 202.065V208H751.387ZM761.198 208L760.924 206.705H760.858C760.404 207.275 759.95 207.662 759.497 207.867C759.048 208.066 758.487 208.166 757.812 208.166C756.91 208.166 756.201 207.934 755.687 207.469C755.177 207.004 754.923 206.343 754.923 205.485C754.923 203.648 756.392 202.685 759.331 202.596L760.875 202.546V201.982C760.875 201.268 760.72 200.742 760.41 200.405C760.105 200.062 759.616 199.89 758.94 199.89C758.182 199.89 757.325 200.123 756.367 200.587L755.944 199.533C756.392 199.29 756.882 199.099 757.413 198.96C757.95 198.822 758.487 198.753 759.023 198.753C760.108 198.753 760.91 198.994 761.431 199.475C761.956 199.957 762.219 200.729 762.219 201.791V208H761.198ZM758.085 207.029C758.943 207.029 759.616 206.794 760.103 206.323C760.595 205.853 760.841 205.194 760.841 204.348V203.526L759.463 203.584C758.368 203.623 757.576 203.794 757.089 204.099C756.608 204.397 756.367 204.865 756.367 205.501C756.367 206 756.517 206.379 756.815 206.639C757.12 206.899 757.543 207.029 758.085 207.029ZM767.059 208L763.605 198.902H765.083L767.042 204.298C767.485 205.56 767.745 206.379 767.822 206.755H767.889C767.95 206.462 768.14 205.856 768.461 204.937C768.788 204.013 769.516 202.001 770.645 198.902H772.122L768.669 208H767.059ZM777.426 208.166C776.082 208.166 775.019 207.757 774.239 206.938C773.464 206.118 773.077 204.981 773.077 203.526C773.077 202.059 773.436 200.895 774.156 200.031C774.881 199.168 775.852 198.736 777.069 198.736C778.209 198.736 779.111 199.113 779.775 199.865C780.439 200.612 780.771 201.6 780.771 202.829V203.7H774.504C774.532 204.768 774.8 205.579 775.31 206.132C775.824 206.686 776.546 206.962 777.476 206.962C778.456 206.962 779.424 206.758 780.381 206.348V207.577C779.894 207.787 779.432 207.936 778.995 208.025C778.563 208.119 778.041 208.166 777.426 208.166ZM777.053 199.89C776.322 199.89 775.738 200.128 775.301 200.604C774.87 201.08 774.615 201.738 774.538 202.58H779.294C779.294 201.711 779.1 201.047 778.713 200.587C778.326 200.123 777.772 199.89 777.053 199.89ZM793.737 206.78H793.663C793.026 207.704 792.074 208.166 790.807 208.166C789.617 208.166 788.69 207.759 788.026 206.946C787.368 206.132 787.039 204.976 787.039 203.476C787.039 201.976 787.371 200.812 788.035 199.981C788.699 199.151 789.623 198.736 790.807 198.736C792.041 198.736 792.987 199.185 793.646 200.081H793.754L793.696 199.425L793.663 198.786V195.084H795.041V208H793.92L793.737 206.78ZM790.981 207.012C791.922 207.012 792.603 206.758 793.023 206.249C793.45 205.734 793.663 204.907 793.663 203.767V203.476C793.663 202.187 793.447 201.268 793.015 200.72C792.589 200.167 791.906 199.89 790.965 199.89C790.157 199.89 789.537 200.206 789.105 200.836C788.679 201.462 788.466 202.347 788.466 203.493C788.466 204.655 788.679 205.532 789.105 206.124C789.532 206.716 790.157 207.012 790.981 207.012ZM801.814 208.166C800.469 208.166 799.407 207.757 798.626 206.938C797.852 206.118 797.464 204.981 797.464 203.526C797.464 202.059 797.824 200.895 798.543 200.031C799.268 199.168 800.24 198.736 801.457 198.736C802.597 198.736 803.499 199.113 804.163 199.865C804.827 200.612 805.159 201.6 805.159 202.829V203.7H798.892C798.92 204.768 799.188 205.579 799.697 206.132C800.212 206.686 800.934 206.962 801.864 206.962C802.843 206.962 803.812 206.758 804.769 206.348V207.577C804.282 207.787 803.82 207.936 803.383 208.025C802.951 208.119 802.428 208.166 801.814 208.166ZM801.44 199.89C800.71 199.89 800.126 200.128 799.689 200.604C799.257 201.08 799.003 201.738 798.925 202.58H803.682C803.682 201.711 803.488 201.047 803.101 200.587C802.713 200.123 802.16 199.89 801.44 199.89ZM813.709 206.78H813.634C812.998 207.704 812.046 208.166 810.779 208.166C809.589 208.166 808.662 207.759 807.998 206.946C807.34 206.132 807.01 204.976 807.01 203.476C807.01 201.976 807.342 200.812 808.006 199.981C808.67 199.151 809.595 198.736 810.779 198.736C812.013 198.736 812.959 199.185 813.618 200.081H813.726L813.667 199.425L813.634 198.786V195.084H815.012V208H813.892L813.709 206.78ZM810.953 207.012C811.894 207.012 812.575 206.758 812.995 206.249C813.421 205.734 813.634 204.907 813.634 203.767V203.476C813.634 202.187 813.418 201.268 812.987 200.72C812.561 200.167 811.877 199.89 810.937 199.89C810.129 199.89 809.509 200.206 809.077 200.836C808.651 201.462 808.438 202.347 808.438 203.493C808.438 204.655 808.651 205.532 809.077 206.124C809.503 206.716 810.129 207.012 810.953 207.012ZM819.32 208H817.942V198.902H819.32V208ZM817.826 196.437C817.826 196.122 817.904 195.892 818.059 195.748C818.214 195.599 818.407 195.524 818.64 195.524C818.861 195.524 819.052 195.599 819.212 195.748C819.373 195.897 819.453 196.127 819.453 196.437C819.453 196.747 819.373 196.979 819.212 197.134C819.052 197.284 818.861 197.358 818.64 197.358C818.407 197.358 818.214 197.284 818.059 197.134C817.904 196.979 817.826 196.747 817.826 196.437ZM825.878 208.166C824.561 208.166 823.54 207.762 822.815 206.954C822.096 206.141 821.736 204.992 821.736 203.509C821.736 201.987 822.101 200.812 822.832 199.981C823.568 199.151 824.613 198.736 825.969 198.736C826.406 198.736 826.844 198.783 827.281 198.877C827.718 198.972 828.061 199.082 828.31 199.209L827.887 200.38C827.582 200.258 827.25 200.159 826.891 200.081C826.531 199.998 826.213 199.957 825.936 199.957C824.088 199.957 823.164 201.135 823.164 203.493C823.164 204.611 823.388 205.468 823.836 206.066C824.29 206.664 824.959 206.962 825.845 206.962C826.603 206.962 827.38 206.799 828.177 206.473V207.693C827.569 208.008 826.802 208.166 825.878 208.166ZM835.938 208L835.665 206.705H835.598C835.144 207.275 834.691 207.662 834.237 207.867C833.789 208.066 833.227 208.166 832.552 208.166C831.65 208.166 830.941 207.934 830.427 207.469C829.918 207.004 829.663 206.343 829.663 205.485C829.663 203.648 831.132 202.685 834.071 202.596L835.615 202.546V201.982C835.615 201.268 835.46 200.742 835.15 200.405C834.846 200.062 834.356 199.89 833.681 199.89C832.923 199.89 832.065 200.123 831.107 200.587L830.684 199.533C831.132 199.29 831.622 199.099 832.153 198.96C832.69 198.822 833.227 198.753 833.764 198.753C834.848 198.753 835.651 198.994 836.171 199.475C836.697 199.957 836.959 200.729 836.959 201.791V208H835.938ZM832.826 207.029C833.683 207.029 834.356 206.794 834.843 206.323C835.335 205.853 835.582 205.194 835.582 204.348V203.526L834.204 203.584C833.108 203.623 832.317 203.794 831.83 204.099C831.348 204.397 831.107 204.865 831.107 205.501C831.107 206 831.257 206.379 831.556 206.639C831.86 206.899 832.283 207.029 832.826 207.029ZM842.745 207.029C842.989 207.029 843.224 207.012 843.451 206.979C843.678 206.94 843.857 206.902 843.99 206.863V207.917C843.841 207.989 843.619 208.047 843.326 208.091C843.038 208.141 842.778 208.166 842.546 208.166C840.786 208.166 839.906 207.239 839.906 205.385V199.973H838.603V199.309L839.906 198.736L840.487 196.794H841.284V198.902H843.924V199.973H841.284V205.327C841.284 205.875 841.414 206.296 841.674 206.589C841.934 206.882 842.291 207.029 842.745 207.029ZM849.66 208.166C848.315 208.166 847.252 207.757 846.472 206.938C845.697 206.118 845.31 204.981 845.31 203.526C845.31 202.059 845.67 200.895 846.389 200.031C847.114 199.168 848.085 198.736 849.303 198.736C850.443 198.736 851.345 199.113 852.009 199.865C852.673 200.612 853.005 201.6 853.005 202.829V203.7H846.738C846.765 204.768 847.034 205.579 847.543 206.132C848.058 206.686 848.78 206.962 849.709 206.962C850.689 206.962 851.657 206.758 852.615 206.348V207.577C852.128 207.787 851.666 207.936 851.229 208.025C850.797 208.119 850.274 208.166 849.66 208.166ZM849.286 199.89C848.556 199.89 847.972 200.128 847.535 200.604C847.103 201.08 846.848 201.738 846.771 202.58H851.527C851.527 201.711 851.334 201.047 850.946 200.587C850.559 200.123 850.006 199.89 849.286 199.89ZM861.555 206.78H861.48C860.844 207.704 859.892 208.166 858.625 208.166C857.435 208.166 856.508 207.759 855.844 206.946C855.185 206.132 854.856 204.976 854.856 203.476C854.856 201.976 855.188 200.812 855.852 199.981C856.516 199.151 857.44 198.736 858.625 198.736C859.859 198.736 860.805 199.185 861.463 200.081H861.571L861.513 199.425L861.48 198.786V195.084H862.858V208H861.737L861.555 206.78ZM858.799 207.012C859.74 207.012 860.42 206.758 860.841 206.249C861.267 205.734 861.48 204.907 861.48 203.767V203.476C861.48 202.187 861.264 201.268 860.833 200.72C860.406 200.167 859.723 199.89 858.782 199.89C857.974 199.89 857.354 200.206 856.923 200.836C856.497 201.462 856.284 202.347 856.284 203.493C856.284 204.655 856.497 205.532 856.923 206.124C857.349 206.716 857.974 207.012 858.799 207.012ZM877.26 204.771C877.26 205.839 876.872 206.672 876.098 207.27C875.323 207.867 874.271 208.166 872.943 208.166C871.505 208.166 870.398 207.981 869.623 207.61V206.249C870.121 206.459 870.663 206.625 871.25 206.747C871.837 206.868 872.418 206.929 872.993 206.929C873.934 206.929 874.642 206.752 875.118 206.398C875.594 206.038 875.832 205.54 875.832 204.904C875.832 204.483 875.746 204.14 875.575 203.875C875.409 203.603 875.126 203.354 874.728 203.127C874.335 202.901 873.735 202.643 872.927 202.355C871.798 201.951 870.99 201.473 870.503 200.919C870.021 200.366 869.781 199.644 869.781 198.753C869.781 197.818 870.132 197.073 870.835 196.52C871.538 195.967 872.467 195.69 873.624 195.69C874.83 195.69 875.94 195.911 876.953 196.354L876.513 197.583C875.511 197.162 874.537 196.952 873.591 196.952C872.844 196.952 872.26 197.112 871.839 197.433C871.419 197.754 871.208 198.2 871.208 198.77C871.208 199.19 871.286 199.536 871.441 199.807C871.596 200.073 871.856 200.319 872.221 200.546C872.592 200.767 873.156 201.014 873.915 201.285C875.187 201.738 876.062 202.225 876.538 202.746C877.019 203.266 877.26 203.941 877.26 204.771ZM880.829 198.902V204.804C880.829 205.546 880.998 206.099 881.335 206.464C881.673 206.83 882.201 207.012 882.921 207.012C883.873 207.012 884.567 206.752 885.004 206.232C885.447 205.712 885.668 204.862 885.668 203.684V198.902H887.046V208H885.909L885.71 206.78H885.635C885.353 207.228 884.96 207.571 884.457 207.809C883.958 208.047 883.389 208.166 882.747 208.166C881.64 208.166 880.81 207.903 880.256 207.377C879.708 206.852 879.435 206.011 879.435 204.854V198.902H880.829ZM894.21 208.166C893.618 208.166 893.076 208.058 892.583 207.842C892.096 207.621 891.687 207.283 891.354 206.83H891.255C891.321 207.361 891.354 207.864 891.354 208.34V212.084H889.977V198.902H891.097L891.288 200.147H891.354C891.709 199.649 892.121 199.29 892.591 199.068C893.062 198.847 893.601 198.736 894.21 198.736C895.416 198.736 896.346 199.149 896.999 199.973C897.658 200.798 897.987 201.954 897.987 203.443C897.987 204.937 897.652 206.099 896.982 206.929C896.318 207.754 895.394 208.166 894.21 208.166ZM894.011 199.907C893.081 199.907 892.409 200.164 891.994 200.679C891.579 201.193 891.366 202.012 891.354 203.136V203.443C891.354 204.721 891.568 205.637 891.994 206.19C892.42 206.738 893.103 207.012 894.044 207.012C894.83 207.012 895.444 206.694 895.887 206.058C896.335 205.421 896.559 204.544 896.559 203.426C896.559 202.292 896.335 201.423 895.887 200.82C895.444 200.211 894.819 199.907 894.011 199.907ZM904.636 208.166C904.044 208.166 903.501 208.058 903.009 207.842C902.522 207.621 902.112 207.283 901.78 206.83H901.681C901.747 207.361 901.78 207.864 901.78 208.34V212.084H900.402V198.902H901.523L901.714 200.147H901.78C902.134 199.649 902.547 199.29 903.017 199.068C903.487 198.847 904.027 198.736 904.636 198.736C905.842 198.736 906.772 199.149 907.425 199.973C908.083 200.798 908.413 201.954 908.413 203.443C908.413 204.937 908.078 206.099 907.408 206.929C906.744 207.754 905.82 208.166 904.636 208.166ZM904.437 199.907C903.507 199.907 902.834 200.164 902.419 200.679C902.004 201.193 901.791 202.012 901.78 203.136V203.443C901.78 204.721 901.993 205.637 902.419 206.19C902.846 206.738 903.529 207.012 904.47 207.012C905.256 207.012 905.87 206.694 906.312 206.058C906.761 205.421 906.985 204.544 906.985 203.426C906.985 202.292 906.761 201.423 906.312 200.82C905.87 200.211 905.244 199.907 904.437 199.907ZM918.681 203.443C918.681 204.926 918.307 206.085 917.56 206.921C916.813 207.751 915.781 208.166 914.464 208.166C913.65 208.166 912.928 207.975 912.297 207.593C911.667 207.211 911.18 206.664 910.836 205.95C910.493 205.236 910.322 204.4 910.322 203.443C910.322 201.96 910.693 200.806 911.434 199.981C912.176 199.151 913.205 198.736 914.522 198.736C915.795 198.736 916.805 199.16 917.552 200.006C918.304 200.853 918.681 201.999 918.681 203.443ZM911.75 203.443C911.75 204.605 911.982 205.49 912.447 206.099C912.912 206.708 913.595 207.012 914.497 207.012C915.399 207.012 916.083 206.711 916.547 206.107C917.018 205.499 917.253 204.611 917.253 203.443C917.253 202.286 917.018 201.409 916.547 200.812C916.083 200.208 915.394 199.907 914.48 199.907C913.578 199.907 912.898 200.203 912.438 200.795C911.979 201.387 911.75 202.27 911.75 203.443ZM925.255 198.736C925.659 198.736 926.021 198.77 926.342 198.836L926.151 200.114C925.775 200.031 925.443 199.99 925.155 199.99C924.419 199.99 923.788 200.289 923.263 200.886C922.743 201.484 922.482 202.228 922.482 203.119V208H921.104V198.902H922.242L922.399 200.587H922.466C922.803 199.995 923.21 199.539 923.686 199.218C924.162 198.897 924.685 198.736 925.255 198.736ZM930.982 207.029C931.226 207.029 931.461 207.012 931.688 206.979C931.915 206.94 932.095 206.902 932.228 206.863V207.917C932.078 207.989 931.857 208.047 931.563 208.091C931.276 208.141 931.016 208.166 930.783 208.166C929.023 208.166 928.144 207.239 928.144 205.385V199.973H926.84V199.309L928.144 198.736L928.725 196.794H929.521V198.902H932.161V199.973H929.521V205.327C929.521 205.875 929.652 206.296 929.912 206.589C930.172 206.882 930.529 207.029 930.982 207.029Z" fill="#303030"/>
<path d="M746.8 175H733.99V172.12C736.33 170.46 738.35 168.69 740.05 166.81C741.75 164.91 742.6 163.2 742.6 161.68C742.6 160.68 742.31 159.9 741.73 159.34C741.15 158.78 740.31 158.5 739.21 158.5C737.55 158.5 735.96 159.12 734.44 160.36V156.85C735.1 156.35 735.92 155.94 736.9 155.62C737.88 155.3 738.86 155.14 739.84 155.14C741.76 155.14 743.32 155.67 744.52 156.73C745.74 157.77 746.35 159.24 746.35 161.14C746.35 164.7 743.89 168.29 738.97 171.91H746.8V175ZM752.561 167.5H757.721V157.63L752.561 167.5ZM761.321 175H757.721V170.59H748.991V167.5L755.531 155.35H761.321V167.5H763.901V170.59H761.321V175ZM768.123 178.09H764.403L775.233 153.79H778.983L768.123 178.09ZM783.555 175H779.715L787.545 158.47H778.305V155.35H791.355V158.47L783.555 175ZM820.64 169.33C820.64 171.13 819.99 172.57 818.69 173.65C817.41 174.71 815.72 175.24 813.62 175.24C811.34 175.24 809.45 174.81 807.95 173.95V170.08C809.67 171.32 811.55 171.94 813.59 171.94C814.51 171.94 815.25 171.72 815.81 171.28C816.37 170.82 816.65 170.21 816.65 169.45C816.65 169.09 816.58 168.77 816.44 168.49C816.3 168.21 816.01 167.93 815.57 167.65C815.15 167.37 814.82 167.17 814.58 167.05C814.36 166.93 813.89 166.71 813.17 166.39C812.97 166.29 812.82 166.22 812.72 166.18C811.98 165.84 811.38 165.54 810.92 165.28C810.46 165 809.96 164.63 809.42 164.17C808.88 163.71 808.47 163.16 808.19 162.52C807.93 161.88 807.8 161.15 807.8 160.33C807.8 158.61 808.43 157.23 809.69 156.19C810.97 155.15 812.66 154.63 814.76 154.63C816.66 154.63 818.3 154.96 819.68 155.62V159.28C818.18 158.38 816.58 157.93 814.88 157.93C813.94 157.93 813.2 158.14 812.66 158.56C812.14 158.98 811.88 159.52 811.88 160.18C811.88 160.84 812.16 161.39 812.72 161.83C813.3 162.25 814.16 162.72 815.3 163.24C816.1 163.6 816.75 163.92 817.25 164.2C817.75 164.46 818.29 164.83 818.87 165.31C819.47 165.79 819.91 166.37 820.19 167.05C820.49 167.71 820.64 168.47 820.64 169.33ZM836.857 175H833.227V172.51C832.427 174.27 830.867 175.15 828.547 175.15C827.007 175.15 825.807 174.71 824.947 173.83C824.087 172.95 823.657 171.7 823.657 170.08V159.79H827.257V169.24C827.257 170.2 827.487 170.93 827.947 171.43C828.427 171.93 829.077 172.18 829.897 172.18C830.937 172.18 831.747 171.83 832.327 171.13C832.927 170.43 833.227 169.37 833.227 167.95V159.79H836.857V175ZM844.37 180.73H840.77V159.79H844.37V162.13C845.45 160.43 847 159.58 849.02 159.58C851 159.58 852.57 160.29 853.73 161.71C854.91 163.13 855.5 165 855.5 167.32C855.5 169.6 854.91 171.49 853.73 172.99C852.57 174.47 850.99 175.21 848.99 175.21C846.95 175.21 845.41 174.38 844.37 172.72V180.73ZM845.51 163.81C844.75 164.59 844.37 165.75 844.37 167.29C844.37 168.83 844.74 170.02 845.48 170.86C846.22 171.7 847.11 172.12 848.15 172.12C849.23 172.12 850.11 171.71 850.79 170.89C851.47 170.05 851.81 168.88 851.81 167.38C851.81 165.88 851.47 164.72 850.79 163.9C850.11 163.06 849.25 162.64 848.21 162.64C847.17 162.64 846.27 163.03 845.51 163.81ZM862.183 180.73H858.583V159.79H862.183V162.13C863.263 160.43 864.813 159.58 866.833 159.58C868.813 159.58 870.383 160.29 871.543 161.71C872.723 163.13 873.313 165 873.313 167.32C873.313 169.6 872.723 171.49 871.543 172.99C870.383 174.47 868.803 175.21 866.803 175.21C864.763 175.21 863.223 174.38 862.183 172.72V180.73ZM863.323 163.81C862.563 164.59 862.183 165.75 862.183 167.29C862.183 168.83 862.553 170.02 863.293 170.86C864.033 171.7 864.923 172.12 865.963 172.12C867.043 172.12 867.923 171.71 868.603 170.89C869.283 170.05 869.623 168.88 869.623 167.38C869.623 165.88 869.283 164.72 868.603 163.9C867.923 163.06 867.063 162.64 866.023 162.64C864.983 162.64 864.083 163.03 863.323 163.81ZM890.255 167.35C890.255 169.65 889.605 171.54 888.305 173.02C887.025 174.5 885.225 175.24 882.905 175.24C880.605 175.24 878.805 174.52 877.505 173.08C876.225 171.64 875.585 169.8 875.585 167.56C875.585 165.24 876.255 163.33 877.595 161.83C878.935 160.31 880.705 159.55 882.905 159.55C885.245 159.55 887.055 160.29 888.335 161.77C889.615 163.23 890.255 165.09 890.255 167.35ZM879.365 167.44C879.365 168.84 879.675 170.01 880.295 170.95C880.915 171.89 881.795 172.36 882.935 172.36C884.115 172.36 885.005 171.9 885.605 170.98C886.205 170.06 886.505 168.89 886.505 167.47C886.505 166.01 886.215 164.82 885.635 163.9C885.055 162.96 884.145 162.49 882.905 162.49C881.765 162.49 880.885 162.96 880.265 163.9C879.665 164.84 879.365 166.02 879.365 167.44ZM896.958 175H893.328L893.358 159.79H896.958V162.49C897.658 160.61 898.938 159.67 900.798 159.67C901.218 159.67 901.558 159.7 901.818 159.76V163.24C901.358 163.04 900.848 162.94 900.288 162.94C899.308 162.94 898.508 163.34 897.888 164.14C897.268 164.94 896.958 165.94 896.958 167.14V175ZM912.334 174.64C911.634 174.98 910.734 175.15 909.634 175.15C906.354 175.15 904.714 173.49 904.714 170.17V162.49H902.434V159.79H904.714V156.13H908.314V159.79H912.094V162.49H908.314V170.23C908.314 170.87 908.484 171.36 908.824 171.7C909.164 172.02 909.634 172.18 910.234 172.18C910.994 172.18 911.694 171.97 912.334 171.55V174.64Z" fill="#232323"/>
<g filter="url(#filter2_d_1_65)">
<rect x="773" y="19" width="100" height="100" rx="5" fill="white"/>
</g>
<mask id="mask2_1_65" style="mask-type:alpha" maskUnits="userSpaceOnUse" x="784" y="39" width="78" height="60">
<rect x="784" y="39" width="78" height="60" rx="10" fill="white"/>
</mask>
<g mask="url(#mask2_1_65)">
<path d="M838.973 80.5772C840.928 82.4928 840.929 85.5934 838.973 87.5093L837.768 88.6901C837.442 89.0092 836.914 89.0093 836.589 88.6901C836.263 88.371 836.263 87.8538 836.589 87.5347L837.794 86.3539C839.097 85.0769 839.098 83.0098 837.794 81.7325L833.151 77.1832C831.85 75.9092 829.734 75.9092 828.434 77.1832L826.493 79.0848C824.918 80.628 822.369 80.6282 820.793 79.0848L812.195 70.6603C810.62 69.1172 810.62 66.6194 812.195 65.0761L814.136 63.1745C815.436 61.9004 815.436 59.8272 814.136 58.5531L809.493 54.0039C808.189 52.7268 806.079 52.7267 804.776 54.0039L803.081 55.6647C798.518 60.1347 798.518 67.3693 803.081 71.8397L819.59 88.0147C822.868 91.2266 827.777 92.2343 832.097 90.582C832.526 90.4179 833.009 90.6256 833.177 91.0458C833.344 91.4662 833.132 91.9399 832.703 92.104C827.762 93.9941 822.153 92.8368 818.41 89.17L801.901 72.9951C796.7 67.8986 796.7 59.6059 801.901 54.5094L803.597 52.8486C805.552 50.933 808.716 50.9327 810.672 52.8486L815.315 57.3978C817.266 59.309 817.266 62.4187 815.315 64.3299L813.374 66.2315C812.451 67.1361 812.451 68.6003 813.374 69.505L821.973 77.9295C822.894 78.8321 824.393 78.8321 825.314 77.9295L827.255 76.028C829.205 74.1169 832.379 74.1168 834.33 76.028L838.973 80.5772ZM843.831 45H822.985C820.686 45 818.816 46.8324 818.816 49.0848V57.2544C818.816 59.5068 820.686 61.3392 822.985 61.3392H823.819V63.9943C823.819 64.4463 824.193 64.8113 824.653 64.8113C824.971 64.8113 824.548 65.0076 831.011 61.2235C831.406 60.9921 831.535 60.4905 831.299 60.1032C831.063 59.7158 830.551 59.5895 830.156 59.8209L825.487 62.5544V60.5223C825.487 60.0711 825.113 59.7053 824.653 59.7053H822.985C821.606 59.7053 820.484 58.6058 820.484 57.2544V49.0848C820.484 47.7334 821.606 46.6339 822.985 46.6339H843.831C845.21 46.6339 846.332 47.7334 846.332 49.0848V57.2544C846.332 58.6058 845.21 59.7053 843.831 59.7053H835.145C834.685 59.7053 834.311 60.0711 834.311 60.5223C834.311 60.9734 834.685 61.3392 835.145 61.3392H843.831C846.13 61.3392 848 59.5068 848 57.2544V49.0848C848 46.8324 846.13 45 843.831 45ZM825.382 53.9866C826.647 53.9866 827.675 52.9787 827.675 51.7399C827.675 50.5011 826.647 49.4933 825.382 49.4933H823.923C823.463 49.4933 823.089 49.8591 823.089 50.3102C823.089 50.7614 823.463 51.1272 823.923 51.1272H825.382C825.727 51.1272 826.008 51.402 826.008 51.7399C826.008 52.0778 825.727 52.3526 825.382 52.3526C824.118 52.3526 823.089 53.3605 823.089 54.5993V56.029C823.089 56.4801 823.463 56.8459 823.923 56.8459H826.841C827.302 56.8459 827.675 56.4801 827.675 56.029C827.675 55.5778 827.302 55.212 826.841 55.212H824.757V54.5993C824.757 54.2614 825.037 53.9866 825.382 53.9866ZM832.678 56.8459C833.139 56.8459 833.512 56.4801 833.512 56.029C833.512 55.3349 833.512 51.007 833.512 50.3102C833.512 49.8591 833.139 49.4933 832.678 49.4933C832.218 49.4933 831.844 49.8591 831.844 50.3102V52.3526H830.594V50.3102C830.594 49.8591 830.22 49.4933 829.76 49.4933C829.299 49.4933 828.926 49.8591 828.926 50.3102V53.1696C828.926 53.6208 829.299 53.9866 829.76 53.9866H831.844V56.029C831.844 56.4801 832.218 56.8459 832.678 56.8459ZM840.863 56.8461C841.209 56.8461 841.532 56.6333 841.651 56.2946L843.658 50.5759C843.843 50.046 843.441 49.4933 842.869 49.4933H839.974C839.514 49.4933 839.141 49.8591 839.141 50.3102C839.141 50.7614 839.514 51.1272 839.974 51.1272H841.701L840.074 55.7634C839.887 56.296 840.294 56.8464 840.863 56.8461ZM836.382 56.2249L837.841 50.5062C837.953 50.0684 837.681 49.6249 837.234 49.5154C836.787 49.4062 836.335 49.6722 836.223 50.1099L834.764 55.8286C834.652 56.2664 834.924 56.7099 835.371 56.8194C835.818 56.9287 836.27 56.6622 836.382 56.2249Z" fill="#9E3040"/>
</g>
<defs>
<filter id="filter0_d_1_65" x="384" y="0" width="138" height="138" filterUnits="userSpaceOnUse" color-interpolation-filters="sRGB">
<feFlood flood-opacity="0" result="BackgroundImageFix"/>
<feColorMatrix in="SourceAlpha" type="matrix" values="0 0 0 0 0 0 0 0 0 0 0 0 0 0 0 0 0 0 127 0" result="hardAlpha"/>
<feOffset/>
<feGaussianBlur stdDeviation="9.5"/>
<feColorMatrix type="matrix" values="0 0 0 0 0 0 0 0 0 0 0 0 0 0 0 0 0 0 0.19 0"/>
<feBlend mode="normal" in2="BackgroundImageFix" result="effect1_dropShadow_1_65"/>
<feBlend mode="normal" in="SourceGraphic" in2="effect1_dropShadow_1_65" result="shape"/>
</filter>
<filter id="filter1_d_1_65" x="27" y="0" width="138" height="138" filterUnits="userSpaceOnUse" color-interpolation-filters="sRGB">
<feFlood flood-opacity="0" result="BackgroundImageFix"/>
<feColorMatrix in="SourceAlpha" type="matrix" values="0 0 0 0 0 0 0 0 0 0 0 0 0 0 0 0 0 0 127 0" result="hardAlpha"/>
<feOffset/>
<feGaussianBlur stdDeviation="9.5"/>
<feColorMatrix type="matrix" values="0 0 0 0 0 0 0 0 0 0 0 0 0 0 0 0 0 0 0.19 0"/>
<feBlend mode="normal" in2="BackgroundImageFix" result="effect1_dropShadow_1_65"/>
<feBlend mode="normal" in="SourceGraphic" in2="effect1_dropShadow_1_65" result="shape"/>
</filter>
<filter id="filter2_d_1_65" x="754" y="0" width="138" height="138" filterUnits="userSpaceOnUse" color-interpolation-filters="sRGB">
<feFlood flood-opacity="0" result="BackgroundImageFix"/>
<feColorMatrix in="SourceAlpha" type="matrix" values="0 0 0 0 0 0 0 0 0 0 0 0 0 0 0 0 0 0 127 0" result="hardAlpha"/>
<feOffset/>
<feGaussianBlur stdDeviation="9.5"/>
<feColorMatrix type="matrix" values="0 0 0 0 0 0 0 0 0 0 0 0 0 0 0 0 0 0 0.19 0"/>
<feBlend mode="normal" in2="BackgroundImageFix" result="effect1_dropShadow_1_65"/>
<feBlend mode="normal" in="SourceGraphic" in2="effect1_dropShadow_1_65" result="shape"/>
</filter>
</defs>
</svg>
