<svg width="155" height="236" viewBox="0 0 155 236" fill="none" xmlns="http://www.w3.org/2000/svg">
<path d="M33.3633 78.4004C33.3633 79.6289 32.9427 80.5752 32.1016 81.2393C31.266 81.8978 30.0679 82.2271 28.5073 82.2271H27.0796V87H25.6685V74.8643H28.8145C31.847 74.8643 33.3633 76.043 33.3633 78.4004ZM27.0796 81.0151H28.3496C29.6003 81.0151 30.505 80.8132 31.064 80.4092C31.6229 80.0052 31.9023 79.3577 31.9023 78.4668C31.9023 77.6644 31.6395 77.0667 31.1138 76.6738C30.5881 76.2809 29.769 76.0845 28.6567 76.0845H27.0796V81.0151ZM39.8545 77.7363C40.2585 77.7363 40.6209 77.7695 40.9419 77.8359L40.751 79.1143C40.3747 79.0312 40.0426 78.9897 39.7549 78.9897C39.0189 78.9897 38.388 79.2886 37.8623 79.8862C37.3421 80.4839 37.082 81.2282 37.082 82.1191V87H35.7041V77.9023H36.8413L36.999 79.5874H37.0654C37.403 78.9953 37.8097 78.5387 38.2856 78.2178C38.7616 77.8968 39.2845 77.7363 39.8545 77.7363ZM44.0215 87H42.6436V77.9023H44.0215V87ZM42.5273 75.437C42.5273 75.1216 42.6048 74.8919 42.7598 74.748C42.9147 74.5986 43.1084 74.5239 43.3408 74.5239C43.5622 74.5239 43.7531 74.5986 43.9136 74.748C44.0741 74.8975 44.1543 75.1271 44.1543 75.437C44.1543 75.7469 44.0741 75.9793 43.9136 76.1343C43.7531 76.2837 43.5622 76.3584 43.3408 76.3584C43.1084 76.3584 42.9147 76.2837 42.7598 76.1343C42.6048 75.9793 42.5273 75.7469 42.5273 75.437ZM48.9355 87L45.4824 77.9023H46.96L48.9189 83.2979C49.3617 84.5596 49.6217 85.3786 49.6992 85.7549H49.7656C49.8265 85.4616 50.0174 84.8556 50.3384 83.937C50.6649 83.0129 51.3926 81.0013 52.5215 77.9023H53.999L50.5459 87H48.9355ZM61.0547 87L60.7808 85.7051H60.7144C60.2606 86.2751 59.8068 86.6624 59.353 86.8672C58.9048 87.0664 58.3431 87.166 57.668 87.166C56.766 87.166 56.0576 86.9336 55.543 86.4688C55.0339 86.0039 54.7793 85.3426 54.7793 84.4849C54.7793 82.6476 56.2485 81.6847 59.187 81.5962L60.731 81.5464V80.9819C60.731 80.2681 60.576 79.7424 60.2661 79.4048C59.9618 79.0617 59.472 78.8901 58.7969 78.8901C58.0387 78.8901 57.181 79.1226 56.2236 79.5874L55.8003 78.5332C56.2485 78.2897 56.7383 78.0988 57.2695 77.9604C57.8063 77.8221 58.3431 77.7529 58.8799 77.7529C59.9645 77.7529 60.7669 77.9937 61.2871 78.4751C61.8128 78.9565 62.0757 79.7285 62.0757 80.791V87H61.0547ZM57.9419 86.0288C58.7996 86.0288 59.472 85.7936 59.959 85.3232C60.4515 84.8529 60.6978 84.1943 60.6978 83.3477V82.5259L59.3198 82.584C58.2241 82.6227 57.4328 82.7943 56.9458 83.0986C56.4644 83.3975 56.2236 83.8651 56.2236 84.5015C56.2236 84.9995 56.373 85.3786 56.6719 85.6387C56.9762 85.8988 57.3996 86.0288 57.9419 86.0288ZM68.5586 87.166C67.2415 87.166 66.2205 86.762 65.4956 85.9541C64.7762 85.1406 64.4165 83.9924 64.4165 82.5093C64.4165 80.9875 64.7817 79.8115 65.5122 78.9814C66.2482 78.1514 67.2941 77.7363 68.6499 77.7363C69.0871 77.7363 69.5243 77.7834 69.9614 77.8774C70.3986 77.9715 70.7417 78.0822 70.9907 78.2095L70.5674 79.3799C70.263 79.2581 69.931 79.1585 69.5713 79.0811C69.2116 78.998 68.8934 78.9565 68.6167 78.9565C66.7684 78.9565 65.8442 80.1353 65.8442 82.4927C65.8442 83.6105 66.0684 84.4683 66.5166 85.0659C66.9704 85.6636 67.64 85.9624 68.5254 85.9624C69.2835 85.9624 70.061 85.7992 70.8579 85.4727V86.6929C70.2492 87.0083 69.4827 87.166 68.5586 87.166ZM71.5801 77.9023H73.0576L75.0498 83.0903C75.487 84.2746 75.7581 85.1296 75.8633 85.6553H75.9297C76.0016 85.373 76.151 84.8916 76.3779 84.2109C76.6104 83.5247 77.363 81.4219 78.6357 77.9023H80.1133L76.2036 88.2617C75.8162 89.2855 75.3625 90.0104 74.8423 90.4365C74.3276 90.8682 73.694 91.084 72.9414 91.084C72.5208 91.084 72.1058 91.0369 71.6963 90.9429V89.8389C72.0007 89.9053 72.341 89.9385 72.7173 89.9385C73.6636 89.9385 74.3387 89.4072 74.7427 88.3447L75.249 87.0498L71.5801 77.9023ZM93.9092 78.4004C93.9092 79.6289 93.4886 80.5752 92.6475 81.2393C91.8118 81.8978 90.6138 82.2271 89.0532 82.2271H87.6255V87H86.2144V74.8643H89.3604C92.3929 74.8643 93.9092 76.043 93.9092 78.4004ZM87.6255 81.0151H88.8955C90.1462 81.0151 91.0509 80.8132 91.6099 80.4092C92.1688 80.0052 92.4482 79.3577 92.4482 78.4668C92.4482 77.6644 92.1854 77.0667 91.6597 76.6738C91.134 76.2809 90.3149 76.0845 89.2026 76.0845H87.6255V81.0151ZM104.103 82.4429C104.103 83.9259 103.729 85.0853 102.982 85.9209C102.235 86.751 101.203 87.166 99.8857 87.166C99.0723 87.166 98.3501 86.9751 97.7192 86.5933C97.0884 86.2114 96.6014 85.6636 96.2583 84.9497C95.9152 84.2358 95.7437 83.4002 95.7437 82.4429C95.7437 80.9598 96.1144 79.806 96.856 78.9814C97.5975 78.1514 98.6268 77.7363 99.9438 77.7363C101.217 77.7363 102.227 78.1597 102.974 79.0063C103.726 79.853 104.103 80.9985 104.103 82.4429ZM97.1714 82.4429C97.1714 83.605 97.4038 84.4904 97.8687 85.0991C98.3335 85.7078 99.0169 86.0122 99.9189 86.0122C100.821 86.0122 101.504 85.7106 101.969 85.1074C102.44 84.4987 102.675 83.6105 102.675 82.4429C102.675 81.2863 102.44 80.4092 101.969 79.8115C101.504 79.2083 100.815 78.9067 99.9023 78.9067C99.0003 78.9067 98.3197 79.2028 97.8604 79.7949C97.401 80.387 97.1714 81.2697 97.1714 82.4429ZM107.904 87H106.526V74.084H107.904V87ZM112.204 87H110.826V77.9023H112.204V87ZM110.71 75.437C110.71 75.1216 110.787 74.8919 110.942 74.748C111.097 74.5986 111.291 74.5239 111.523 74.5239C111.745 74.5239 111.936 74.5986 112.096 74.748C112.257 74.8975 112.337 75.1271 112.337 75.437C112.337 75.7469 112.257 75.9793 112.096 76.1343C111.936 76.2837 111.745 76.3584 111.523 76.3584C111.291 76.3584 111.097 76.2837 110.942 76.1343C110.787 75.9793 110.71 75.7469 110.71 75.437ZM118.762 87.166C117.445 87.166 116.424 86.762 115.699 85.9541C114.979 85.1406 114.62 83.9924 114.62 82.5093C114.62 80.9875 114.985 79.8115 115.715 78.9814C116.451 78.1514 117.497 77.7363 118.853 77.7363C119.29 77.7363 119.727 77.7834 120.165 77.8774C120.602 77.9715 120.945 78.0822 121.194 78.2095L120.771 79.3799C120.466 79.2581 120.134 79.1585 119.774 79.0811C119.415 78.998 119.097 78.9565 118.82 78.9565C116.972 78.9565 116.047 80.1353 116.047 82.4927C116.047 83.6105 116.271 84.4683 116.72 85.0659C117.174 85.6636 117.843 85.9624 118.729 85.9624C119.487 85.9624 120.264 85.7992 121.061 85.4727V86.6929C120.452 87.0083 119.686 87.166 118.762 87.166ZM121.783 77.9023H123.261L125.253 83.0903C125.69 84.2746 125.961 85.1296 126.066 85.6553H126.133C126.205 85.373 126.354 84.8916 126.581 84.2109C126.813 83.5247 127.566 81.4219 128.839 77.9023H130.316L126.407 88.2617C126.019 89.2855 125.566 90.0104 125.045 90.4365C124.531 90.8682 123.897 91.084 123.145 91.084C122.724 91.084 122.309 91.0369 121.899 90.9429V89.8389C122.204 89.9053 122.544 89.9385 122.92 89.9385C123.867 89.9385 124.542 89.4072 124.946 88.3447L125.452 87.0498L121.783 77.9023Z" fill="#303030"/>
<path d="M27.0796 129.953V135H25.6685V122.864H28.9971C30.4857 122.864 31.5841 123.149 32.2925 123.719C33.0063 124.289 33.3633 125.147 33.3633 126.292C33.3633 127.897 32.5498 128.982 30.9229 129.546L34.2183 135H32.5498L29.6113 129.953H27.0796ZM27.0796 128.741H29.0137C30.0098 128.741 30.7402 128.545 31.2051 128.152C31.6699 127.753 31.9023 127.159 31.9023 126.367C31.9023 125.565 31.6644 124.986 31.1885 124.632C30.7181 124.278 29.96 124.101 28.9141 124.101H27.0796V128.741ZM39.813 135.166C38.4683 135.166 37.4058 134.757 36.6255 133.938C35.8507 133.118 35.4634 131.981 35.4634 130.526C35.4634 129.059 35.8231 127.895 36.5425 127.031C37.2674 126.168 38.2386 125.736 39.4561 125.736C40.596 125.736 41.498 126.113 42.1621 126.865C42.8262 127.612 43.1582 128.6 43.1582 129.829V130.7H36.8911C36.9188 131.768 37.1872 132.579 37.6963 133.132C38.2109 133.686 38.9331 133.962 39.8628 133.962C40.8423 133.962 41.8107 133.758 42.7681 133.348V134.577C42.2811 134.787 41.819 134.936 41.3818 135.025C40.9502 135.119 40.4272 135.166 39.813 135.166ZM39.4395 126.89C38.709 126.89 38.1252 127.128 37.688 127.604C37.2563 128.08 37.0018 128.738 36.9243 129.58H41.6807C41.6807 128.711 41.487 128.047 41.0996 127.587C40.7122 127.123 40.1589 126.89 39.4395 126.89ZM48.4541 134.029C48.6976 134.029 48.9328 134.012 49.1597 133.979C49.3866 133.94 49.5664 133.902 49.6992 133.863V134.917C49.5498 134.989 49.3285 135.047 49.0352 135.091C48.7474 135.141 48.4873 135.166 48.2549 135.166C46.4951 135.166 45.6152 134.239 45.6152 132.385V126.973H44.312V126.309L45.6152 125.736L46.1963 123.794H46.9932V125.902H49.6328V126.973H46.9932V132.327C46.9932 132.875 47.1232 133.296 47.3833 133.589C47.6434 133.882 48.0003 134.029 48.4541 134.029ZM52.8203 125.902V131.804C52.8203 132.546 52.9891 133.099 53.3267 133.464C53.6642 133.83 54.1927 134.012 54.9121 134.012C55.8639 134.012 56.5584 133.752 56.9956 133.232C57.4383 132.712 57.6597 131.862 57.6597 130.684V125.902H59.0376V135H57.9004L57.7012 133.78H57.6265C57.3442 134.228 56.9513 134.571 56.4478 134.809C55.9497 135.047 55.3797 135.166 54.7378 135.166C53.631 135.166 52.8009 134.903 52.2476 134.377C51.6997 133.852 51.4258 133.011 51.4258 131.854V125.902H52.8203ZM66.1182 125.736C66.5221 125.736 66.8846 125.77 67.2056 125.836L67.0146 127.114C66.6383 127.031 66.3063 126.99 66.0186 126.99C65.2826 126.99 64.6517 127.289 64.126 127.886C63.6058 128.484 63.3457 129.228 63.3457 130.119V135H61.9678V125.902H63.105L63.2627 127.587H63.3291C63.6667 126.995 64.0734 126.539 64.5493 126.218C65.0252 125.897 65.5482 125.736 66.1182 125.736ZM75.1328 135V129.115C75.1328 128.373 74.964 127.82 74.6265 127.455C74.2889 127.089 73.7604 126.907 73.041 126.907C72.0892 126.907 71.3919 127.164 70.9492 127.679C70.5065 128.193 70.2852 129.043 70.2852 130.227V135H68.9072V125.902H70.0278L70.252 127.147H70.3184C70.6006 126.699 70.9963 126.353 71.5054 126.11C72.0145 125.861 72.5817 125.736 73.207 125.736C74.3027 125.736 75.1273 126.002 75.6807 126.533C76.234 127.059 76.5107 127.903 76.5107 129.065V135H75.1328ZM91.668 126.4C91.668 127.629 91.2474 128.575 90.4062 129.239C89.5706 129.898 88.3726 130.227 86.812 130.227H85.3843V135H83.9731V122.864H87.1191C90.1517 122.864 91.668 124.043 91.668 126.4ZM85.3843 129.015H86.6543C87.9049 129.015 88.8097 128.813 89.3687 128.409C89.9276 128.005 90.207 127.358 90.207 126.467C90.207 125.664 89.9442 125.067 89.4185 124.674C88.8927 124.281 88.0737 124.084 86.9614 124.084H85.3843V129.015ZM101.861 130.443C101.861 131.926 101.488 133.085 100.741 133.921C99.9937 134.751 98.9616 135.166 97.6445 135.166C96.8311 135.166 96.1089 134.975 95.478 134.593C94.8472 134.211 94.3602 133.664 94.0171 132.95C93.674 132.236 93.5024 131.4 93.5024 130.443C93.5024 128.96 93.8732 127.806 94.6147 126.981C95.3563 126.151 96.3856 125.736 97.7026 125.736C98.9754 125.736 99.9854 126.16 100.732 127.006C101.485 127.853 101.861 128.999 101.861 130.443ZM94.9302 130.443C94.9302 131.605 95.1626 132.49 95.6274 133.099C96.0923 133.708 96.7757 134.012 97.6777 134.012C98.5798 134.012 99.2632 133.711 99.728 133.107C100.198 132.499 100.434 131.611 100.434 130.443C100.434 129.286 100.198 128.409 99.728 127.812C99.2632 127.208 98.5742 126.907 97.6611 126.907C96.7591 126.907 96.0785 127.203 95.6191 127.795C95.1598 128.387 94.9302 129.27 94.9302 130.443ZM105.663 135H104.285V122.084H105.663V135ZM109.963 135H108.585V125.902H109.963V135ZM108.469 123.437C108.469 123.122 108.546 122.892 108.701 122.748C108.856 122.599 109.05 122.524 109.282 122.524C109.504 122.524 109.694 122.599 109.855 122.748C110.015 122.897 110.096 123.127 110.096 123.437C110.096 123.747 110.015 123.979 109.855 124.134C109.694 124.284 109.504 124.358 109.282 124.358C109.05 124.358 108.856 124.284 108.701 124.134C108.546 123.979 108.469 123.747 108.469 123.437ZM116.521 135.166C115.203 135.166 114.182 134.762 113.458 133.954C112.738 133.141 112.378 131.992 112.378 130.509C112.378 128.987 112.744 127.812 113.474 126.981C114.21 126.151 115.256 125.736 116.612 125.736C117.049 125.736 117.486 125.783 117.923 125.877C118.361 125.972 118.704 126.082 118.953 126.209L118.529 127.38C118.225 127.258 117.893 127.159 117.533 127.081C117.174 126.998 116.855 126.957 116.579 126.957C114.73 126.957 113.806 128.135 113.806 130.493C113.806 131.611 114.03 132.468 114.479 133.066C114.932 133.664 115.602 133.962 116.487 133.962C117.245 133.962 118.023 133.799 118.82 133.473V134.693C118.211 135.008 117.445 135.166 116.521 135.166ZM119.542 125.902H121.02L123.012 131.09C123.449 132.275 123.72 133.13 123.825 133.655H123.892C123.964 133.373 124.113 132.892 124.34 132.211C124.572 131.525 125.325 129.422 126.598 125.902H128.075L124.166 136.262C123.778 137.285 123.324 138.01 122.804 138.437C122.29 138.868 121.656 139.084 120.903 139.084C120.483 139.084 120.068 139.037 119.658 138.943V137.839C119.963 137.905 120.303 137.938 120.679 137.938C121.625 137.938 122.301 137.407 122.705 136.345L123.211 135.05L119.542 125.902Z" fill="#303030"/>
<path d="M29.4038 183H27.9927V172.118H24.1494V170.864H33.2471V172.118H29.4038V183ZM38.7173 183.166C37.3726 183.166 36.3101 182.757 35.5298 181.938C34.755 181.118 34.3677 179.981 34.3677 178.526C34.3677 177.059 34.7274 175.895 35.4468 175.031C36.1717 174.168 37.1429 173.736 38.3604 173.736C39.5003 173.736 40.4023 174.113 41.0664 174.865C41.7305 175.612 42.0625 176.6 42.0625 177.829V178.7H35.7954C35.8231 179.768 36.0915 180.579 36.6006 181.132C37.1152 181.686 37.8374 181.962 38.7671 181.962C39.7466 181.962 40.715 181.758 41.6724 181.348V182.577C41.1854 182.787 40.7233 182.936 40.2861 183.025C39.8545 183.119 39.3315 183.166 38.7173 183.166ZM38.3438 174.89C37.6133 174.89 37.0295 175.128 36.5923 175.604C36.1606 176.08 35.9061 176.738 35.8286 177.58H40.585C40.585 176.711 40.3913 176.047 40.0039 175.587C39.6165 175.123 39.0632 174.89 38.3438 174.89ZM48.5703 173.736C48.9743 173.736 49.3368 173.77 49.6577 173.836L49.4668 175.114C49.0905 175.031 48.7585 174.99 48.4707 174.99C47.7347 174.99 47.1038 175.289 46.5781 175.886C46.0579 176.484 45.7979 177.228 45.7979 178.119V183H44.4199V173.902H45.5571L45.7148 175.587H45.7812C46.1188 174.995 46.5256 174.539 47.0015 174.218C47.4774 173.897 48.0003 173.736 48.5703 173.736ZM62.9556 183V177.082C62.9556 176.357 62.8006 175.814 62.4907 175.455C62.1808 175.089 61.6994 174.907 61.0464 174.907C60.1886 174.907 59.555 175.153 59.1455 175.646C58.736 176.138 58.5312 176.896 58.5312 177.92V183H57.1533V177.082C57.1533 176.357 56.9984 175.814 56.6885 175.455C56.3786 175.089 55.8944 174.907 55.2358 174.907C54.3726 174.907 53.7389 175.167 53.335 175.687C52.9365 176.202 52.7373 177.048 52.7373 178.227V183H51.3594V173.902H52.48L52.7041 175.147H52.7705C53.0306 174.705 53.3958 174.359 53.8662 174.11C54.3421 173.861 54.8734 173.736 55.46 173.736C56.8822 173.736 57.8118 174.251 58.249 175.28H58.3154C58.5866 174.804 58.9795 174.428 59.4941 174.151C60.0088 173.875 60.5954 173.736 61.2539 173.736C62.2832 173.736 63.0524 174.002 63.5615 174.533C64.0762 175.059 64.3335 175.903 64.3335 177.065V183H62.9556ZM73.0493 180.518C73.0493 181.365 72.7339 182.018 72.103 182.477C71.4722 182.936 70.5868 183.166 69.4468 183.166C68.2404 183.166 67.2996 182.975 66.6245 182.593V181.315C67.0617 181.536 67.5293 181.711 68.0273 181.838C68.5309 181.965 69.0151 182.029 69.48 182.029C70.1994 182.029 70.7528 181.915 71.1401 181.688C71.5275 181.456 71.7212 181.105 71.7212 180.634C71.7212 180.28 71.5662 179.979 71.2563 179.729C70.952 179.475 70.3543 179.176 69.4634 178.833C68.6167 178.518 68.0135 178.244 67.6538 178.011C67.2996 177.773 67.034 177.505 66.8569 177.206C66.6854 176.907 66.5996 176.55 66.5996 176.135C66.5996 175.394 66.9012 174.81 67.5044 174.384C68.1076 173.952 68.9349 173.736 69.9863 173.736C70.9658 173.736 71.9232 173.936 72.8584 174.334L72.3687 175.455C71.4556 175.078 70.6283 174.89 69.8867 174.89C69.2337 174.89 68.7412 174.993 68.4092 175.197C68.0771 175.402 67.9111 175.684 67.9111 176.044C67.9111 176.287 67.972 176.495 68.0938 176.667C68.221 176.838 68.423 177.001 68.6997 177.156C68.9764 177.311 69.5076 177.535 70.2935 177.829C71.3726 178.222 72.1003 178.617 72.4766 179.016C72.8584 179.414 73.0493 179.915 73.0493 180.518ZM87.5674 178.443C87.5674 179.926 87.1938 181.085 86.4468 181.921C85.6997 182.751 84.6676 183.166 83.3506 183.166C82.5371 183.166 81.8149 182.975 81.1841 182.593C80.5532 182.211 80.0662 181.664 79.7231 180.95C79.38 180.236 79.2085 179.4 79.2085 178.443C79.2085 176.96 79.5793 175.806 80.3208 174.981C81.0623 174.151 82.0916 173.736 83.4087 173.736C84.6815 173.736 85.6914 174.16 86.4385 175.006C87.1911 175.853 87.5674 176.999 87.5674 178.443ZM80.6362 178.443C80.6362 179.605 80.8687 180.49 81.3335 181.099C81.7983 181.708 82.4818 182.012 83.3838 182.012C84.2858 182.012 84.9692 181.711 85.4341 181.107C85.9045 180.499 86.1396 179.611 86.1396 178.443C86.1396 177.286 85.9045 176.409 85.4341 175.812C84.9692 175.208 84.2803 174.907 83.3672 174.907C82.4652 174.907 81.7845 175.203 81.3252 175.795C80.8659 176.387 80.6362 177.27 80.6362 178.443ZM94.0918 174.973H91.7759V183H90.3979V174.973H88.771V174.351L90.3979 173.853V173.346C90.3979 171.111 91.3747 169.993 93.3281 169.993C93.8096 169.993 94.374 170.09 95.0215 170.283L94.6646 171.387C94.1333 171.216 93.6795 171.13 93.3032 171.13C92.783 171.13 92.3984 171.304 92.1494 171.653C91.9004 171.996 91.7759 172.549 91.7759 173.313V173.902H94.0918V174.973ZM107.224 179.771C107.224 180.839 106.836 181.672 106.062 182.27C105.287 182.867 104.235 183.166 102.907 183.166C101.468 183.166 100.362 182.981 99.5869 182.61V181.249C100.085 181.459 100.627 181.625 101.214 181.747C101.8 181.868 102.382 181.929 102.957 181.929C103.898 181.929 104.606 181.752 105.082 181.398C105.558 181.038 105.796 180.54 105.796 179.904C105.796 179.483 105.71 179.14 105.539 178.875C105.373 178.603 105.09 178.354 104.692 178.127C104.299 177.901 103.699 177.643 102.891 177.355C101.762 176.951 100.954 176.473 100.467 175.919C99.9854 175.366 99.7446 174.644 99.7446 173.753C99.7446 172.818 100.096 172.073 100.799 171.52C101.502 170.967 102.431 170.69 103.588 170.69C104.794 170.69 105.904 170.911 106.917 171.354L106.477 172.583C105.475 172.162 104.501 171.952 103.555 171.952C102.808 171.952 102.224 172.112 101.803 172.433C101.383 172.754 101.172 173.2 101.172 173.77C101.172 174.19 101.25 174.536 101.405 174.807C101.56 175.073 101.82 175.319 102.185 175.546C102.556 175.767 103.12 176.014 103.878 176.285C105.151 176.738 106.026 177.225 106.501 177.746C106.983 178.266 107.224 178.941 107.224 179.771ZM113.341 183.166C111.997 183.166 110.934 182.757 110.154 181.938C109.379 181.118 108.992 179.981 108.992 178.526C108.992 177.059 109.351 175.895 110.071 175.031C110.796 174.168 111.767 173.736 112.984 173.736C114.124 173.736 115.026 174.113 115.69 174.865C116.354 175.612 116.687 176.6 116.687 177.829V178.7H110.419C110.447 179.768 110.715 180.579 111.225 181.132C111.739 181.686 112.461 181.962 113.391 181.962C114.371 181.962 115.339 181.758 116.296 181.348V182.577C115.809 182.787 115.347 182.936 114.91 183.025C114.479 183.119 113.956 183.166 113.341 183.166ZM112.968 174.89C112.237 174.89 111.653 175.128 111.216 175.604C110.785 176.08 110.53 176.738 110.453 177.58H115.209C115.209 176.711 115.015 176.047 114.628 175.587C114.241 175.123 113.687 174.89 112.968 174.89ZM123.194 173.736C123.598 173.736 123.961 173.77 124.282 173.836L124.091 175.114C123.715 175.031 123.382 174.99 123.095 174.99C122.359 174.99 121.728 175.289 121.202 175.886C120.682 176.484 120.422 177.228 120.422 178.119V183H119.044V173.902H120.181L120.339 175.587H120.405C120.743 174.995 121.15 174.539 121.625 174.218C122.101 173.897 122.624 173.736 123.194 173.736ZM127.976 183L124.522 173.902H126L127.959 179.298C128.402 180.56 128.662 181.379 128.739 181.755H128.806C128.867 181.462 129.057 180.856 129.378 179.937C129.705 179.013 130.433 177.001 131.562 173.902H133.039L129.586 183H127.976ZM135.878 183H134.5V173.902H135.878V183ZM134.384 171.437C134.384 171.122 134.461 170.892 134.616 170.748C134.771 170.599 134.965 170.524 135.197 170.524C135.419 170.524 135.61 170.599 135.77 170.748C135.931 170.897 136.011 171.127 136.011 171.437C136.011 171.747 135.931 171.979 135.77 172.134C135.61 172.284 135.419 172.358 135.197 172.358C134.965 172.358 134.771 172.284 134.616 172.134C134.461 171.979 134.384 171.747 134.384 171.437ZM142.436 183.166C141.118 183.166 140.097 182.762 139.373 181.954C138.653 181.141 138.293 179.992 138.293 178.509C138.293 176.987 138.659 175.812 139.389 174.981C140.125 174.151 141.171 173.736 142.527 173.736C142.964 173.736 143.401 173.783 143.838 173.877C144.276 173.972 144.619 174.082 144.868 174.209L144.444 175.38C144.14 175.258 143.808 175.159 143.448 175.081C143.089 174.998 142.77 174.957 142.494 174.957C140.645 174.957 139.721 176.135 139.721 178.493C139.721 179.611 139.945 180.468 140.394 181.066C140.847 181.664 141.517 181.962 142.402 181.962C143.16 181.962 143.938 181.799 144.735 181.473V182.693C144.126 183.008 143.36 183.166 142.436 183.166ZM150.745 183.166C149.4 183.166 148.337 182.757 147.557 181.938C146.782 181.118 146.395 179.981 146.395 178.526C146.395 177.059 146.755 175.895 147.474 175.031C148.199 174.168 149.17 173.736 150.388 173.736C151.528 173.736 152.43 174.113 153.094 174.865C153.758 175.612 154.09 176.6 154.09 177.829V178.7H147.823C147.85 179.768 148.119 180.579 148.628 181.132C149.143 181.686 149.865 181.962 150.794 181.962C151.774 181.962 152.742 181.758 153.7 181.348V182.577C153.213 182.787 152.751 182.936 152.313 183.025C151.882 183.119 151.359 183.166 150.745 183.166ZM150.371 174.89C149.641 174.89 149.057 175.128 148.62 175.604C148.188 176.08 147.933 176.738 147.856 177.58H152.612C152.612 176.711 152.419 176.047 152.031 175.587C151.644 175.123 151.09 174.89 150.371 174.89Z" fill="#303030"/>
<path d="M30.8647 219.952C29.5311 219.952 28.4769 220.397 27.7021 221.288C26.9329 222.174 26.5483 223.388 26.5483 224.932C26.5483 226.52 26.9191 227.749 27.6606 228.618C28.4077 229.481 29.4702 229.913 30.8481 229.913C31.6948 229.913 32.6605 229.76 33.7451 229.456V230.693C32.904 231.008 31.8664 231.166 30.6323 231.166C28.8449 231.166 27.4642 230.624 26.4902 229.539C25.5218 228.454 25.0376 226.913 25.0376 224.916C25.0376 223.665 25.27 222.569 25.7349 221.628C26.2052 220.688 26.8804 219.963 27.7603 219.454C28.6457 218.944 29.686 218.69 30.8813 218.69C32.1541 218.69 33.2664 218.922 34.2183 219.387L33.6206 220.599C32.702 220.167 31.7834 219.952 30.8647 219.952ZM44.0381 226.443C44.0381 227.926 43.6646 229.085 42.9175 229.921C42.1704 230.751 41.1383 231.166 39.8213 231.166C39.0078 231.166 38.2856 230.975 37.6548 230.593C37.0239 230.211 36.5369 229.664 36.1938 228.95C35.8507 228.236 35.6792 227.4 35.6792 226.443C35.6792 224.96 36.05 223.806 36.7915 222.981C37.533 222.151 38.5623 221.736 39.8794 221.736C41.1522 221.736 42.1621 222.16 42.9092 223.006C43.6618 223.853 44.0381 224.999 44.0381 226.443ZM37.1069 226.443C37.1069 227.605 37.3394 228.49 37.8042 229.099C38.269 229.708 38.9525 230.012 39.8545 230.012C40.7565 230.012 41.4399 229.711 41.9048 229.107C42.3752 228.499 42.6104 227.611 42.6104 226.443C42.6104 225.286 42.3752 224.409 41.9048 223.812C41.4399 223.208 40.751 222.907 39.8379 222.907C38.9359 222.907 38.2552 223.203 37.7959 223.795C37.3366 224.387 37.1069 225.27 37.1069 226.443ZM52.6875 231V225.115C52.6875 224.373 52.5187 223.82 52.1812 223.455C51.8436 223.089 51.3151 222.907 50.5957 222.907C49.6439 222.907 48.9466 223.164 48.5039 223.679C48.0612 224.193 47.8398 225.043 47.8398 226.227V231H46.4619V221.902H47.5825L47.8066 223.147H47.873C48.1553 222.699 48.5509 222.353 49.0601 222.11C49.5692 221.861 50.1364 221.736 50.7617 221.736C51.8574 221.736 52.682 222.002 53.2354 222.533C53.7887 223.059 54.0654 223.903 54.0654 225.065V231H52.6875ZM59.8428 230.029C60.0863 230.029 60.3215 230.012 60.5483 229.979C60.7752 229.94 60.9551 229.902 61.0879 229.863V230.917C60.9385 230.989 60.7171 231.047 60.4238 231.091C60.1361 231.141 59.876 231.166 59.6436 231.166C57.8838 231.166 57.0039 230.239 57.0039 228.385V222.973H55.7007V222.309L57.0039 221.736L57.585 219.794H58.3818V221.902H61.0215V222.973H58.3818V228.327C58.3818 228.875 58.5119 229.296 58.772 229.589C59.0321 229.882 59.389 230.029 59.8428 230.029ZM68.5088 231L68.2349 229.705H68.1685C67.7147 230.275 67.2609 230.662 66.8071 230.867C66.3589 231.066 65.7972 231.166 65.1221 231.166C64.2201 231.166 63.5117 230.934 62.9971 230.469C62.488 230.004 62.2334 229.343 62.2334 228.485C62.2334 226.648 63.7026 225.685 66.6411 225.596L68.1851 225.546V224.982C68.1851 224.268 68.0301 223.742 67.7202 223.405C67.4159 223.062 66.9261 222.89 66.251 222.89C65.4928 222.89 64.6351 223.123 63.6777 223.587L63.2544 222.533C63.7026 222.29 64.1924 222.099 64.7236 221.96C65.2604 221.822 65.7972 221.753 66.334 221.753C67.4186 221.753 68.221 221.994 68.7412 222.475C69.2669 222.957 69.5298 223.729 69.5298 224.791V231H68.5088ZM65.396 230.029C66.2537 230.029 66.9261 229.794 67.4131 229.323C67.9056 228.853 68.1519 228.194 68.1519 227.348V226.526L66.7739 226.584C65.6782 226.623 64.8869 226.794 64.3999 227.099C63.9185 227.397 63.6777 227.865 63.6777 228.501C63.6777 229 63.8271 229.379 64.126 229.639C64.4303 229.899 64.8537 230.029 65.396 230.029ZM76.0127 231.166C74.6956 231.166 73.6746 230.762 72.9497 229.954C72.2303 229.141 71.8706 227.992 71.8706 226.509C71.8706 224.987 72.2358 223.812 72.9663 222.981C73.7023 222.151 74.7482 221.736 76.104 221.736C76.5412 221.736 76.9784 221.783 77.4155 221.877C77.8527 221.972 78.1958 222.082 78.4448 222.209L78.0215 223.38C77.7171 223.258 77.3851 223.159 77.0254 223.081C76.6657 222.998 76.3475 222.957 76.0708 222.957C74.2225 222.957 73.2983 224.135 73.2983 226.493C73.2983 227.611 73.5225 228.468 73.9707 229.066C74.4245 229.664 75.0941 229.962 75.9795 229.962C76.7376 229.962 77.5151 229.799 78.312 229.473V230.693C77.7033 231.008 76.9368 231.166 76.0127 231.166ZM83.417 230.029C83.6605 230.029 83.8957 230.012 84.1226 229.979C84.3494 229.94 84.5293 229.902 84.6621 229.863V230.917C84.5127 230.989 84.2913 231.047 83.998 231.091C83.7103 231.141 83.4502 231.166 83.2178 231.166C81.458 231.166 80.5781 230.239 80.5781 228.385V222.973H79.2749V222.309L80.5781 221.736L81.1592 219.794H81.9561V221.902H84.5957V222.973H81.9561V228.327C81.9561 228.875 82.0861 229.296 82.3462 229.589C82.6063 229.882 82.9632 230.029 83.417 230.029Z" fill="#303030"/>
<path d="M20.4 23.83C20.4 26.03 19.96 27.94 19.08 29.56C18.2 31.18 16.96 32.39 15.36 33.19L21.51 36.76L17.25 38.41L11.31 34.21H10.86C7.96 34.21 5.64 33.26 3.9 31.36C2.16 29.46 1.29 26.95 1.29 23.83C1.29 20.69 2.15 18.17 3.87 16.27C5.61 14.37 7.93 13.42 10.83 13.42C13.77 13.42 16.1 14.37 17.82 16.27C19.54 18.15 20.4 20.67 20.4 23.83ZM5.34 23.83C5.34 25.95 5.84 27.63 6.84 28.87C7.84 30.11 9.18 30.73 10.86 30.73C12.56 30.73 13.9 30.12 14.88 28.9C15.86 27.66 16.35 25.97 16.35 23.83C16.35 21.69 15.86 20 14.88 18.76C13.9 17.52 12.55 16.9 10.83 16.9C9.13 16.9 7.79 17.52 6.81 18.76C5.83 20 5.34 21.69 5.34 23.83ZM36.8555 34H33.2255V31.51C32.4255 33.27 30.8655 34.15 28.5455 34.15C27.0055 34.15 25.8055 33.71 24.9455 32.83C24.0855 31.95 23.6555 30.7 23.6555 29.08V18.79H27.2555V28.24C27.2555 29.2 27.4855 29.93 27.9455 30.43C28.4255 30.93 29.0755 31.18 29.8955 31.18C30.9355 31.18 31.7455 30.83 32.3255 30.13C32.9255 29.43 33.2255 28.37 33.2255 26.95V18.79H36.8555V34ZM44.5184 34H40.9184V18.79H44.5184V34ZM44.8784 14.23C44.8784 14.85 44.6684 15.37 44.2484 15.79C43.8284 16.21 43.3184 16.42 42.7184 16.42C42.1184 16.42 41.6084 16.21 41.1884 15.79C40.7684 15.37 40.5584 14.85 40.5584 14.23C40.5584 13.63 40.7684 13.12 41.1884 12.7C41.6084 12.28 42.1184 12.07 42.7184 12.07C43.3184 12.07 43.8284 12.28 44.2484 12.7C44.6684 13.12 44.8784 13.63 44.8784 14.23ZM59.5713 33.34C58.5113 33.96 57.1913 34.27 55.6113 34.27C53.2713 34.27 51.3713 33.53 49.9113 32.05C48.4713 30.57 47.7513 28.7 47.7513 26.44C47.7713 24.22 48.4913 22.35 49.9113 20.83C51.3513 19.31 53.3113 18.55 55.7913 18.55C57.2713 18.55 58.5313 18.83 59.5713 19.39V22.57C58.5713 21.93 57.4313 21.61 56.1513 21.61C54.7513 21.61 53.6213 22.05 52.7613 22.93C51.9013 23.81 51.4613 24.98 51.4413 26.44C51.4813 27.88 51.9113 29.04 52.7313 29.92C53.5713 30.8 54.7013 31.24 56.1213 31.24C57.3613 31.24 58.5113 30.9 59.5713 30.22V33.34ZM66.2531 34H62.6531V13.15H66.2531V25.93L71.6231 18.79H75.8231L70.2431 26.05L75.9431 34H71.7131L66.2531 26.14V34ZM89.3133 34H85.7133V12.79H89.3133V34ZM97.1063 34H93.5063V18.79H97.1063V34ZM97.4663 14.23C97.4663 14.85 97.2563 15.37 96.8363 15.79C96.4163 16.21 95.9063 16.42 95.3063 16.42C94.7063 16.42 94.1963 16.21 93.7763 15.79C93.3563 15.37 93.1463 14.85 93.1463 14.23C93.1463 13.63 93.3563 13.12 93.7763 12.7C94.1963 12.28 94.7063 12.07 95.3063 12.07C95.9063 12.07 96.4163 12.28 96.8363 12.7C97.2563 13.12 97.4663 13.63 97.4663 14.23ZM114.349 34H110.749V24.64C110.749 23.64 110.509 22.89 110.029 22.39C109.549 21.87 108.899 21.61 108.079 21.61C107.139 21.61 106.349 21.98 105.709 22.72C105.069 23.44 104.749 24.48 104.749 25.84V34H101.149V18.79H104.749V21.4C105.609 19.54 107.169 18.61 109.429 18.61C110.949 18.61 112.149 19.07 113.029 19.99C113.909 20.91 114.349 22.21 114.349 23.89V34ZM121.712 34H118.112V13.15H121.712V25.93L127.082 18.79H131.282L125.702 26.05L131.402 34H127.172L121.712 26.14V34ZM143.716 29.62C143.716 31.04 143.206 32.15 142.186 32.95C141.166 33.75 139.806 34.15 138.106 34.15C136.226 34.15 134.706 33.84 133.546 33.22V29.92C134.886 30.82 136.336 31.27 137.896 31.27C138.556 31.27 139.066 31.15 139.426 30.91C139.806 30.65 139.996 30.3 139.996 29.86C139.996 29.6 139.936 29.37 139.816 29.17C139.696 28.95 139.466 28.74 139.126 28.54C138.786 28.34 138.516 28.2 138.316 28.12C138.136 28.02 137.766 27.85 137.206 27.61C137.146 27.59 137.096 27.57 137.056 27.55C137.036 27.53 136.996 27.51 136.936 27.49C136.876 27.47 136.826 27.45 136.786 27.43C134.566 26.43 133.456 24.99 133.456 23.11C133.456 21.71 133.986 20.61 135.046 19.81C136.106 19.01 137.436 18.61 139.036 18.61C140.576 18.61 141.856 18.83 142.876 19.27V22.45C141.876 21.85 140.626 21.55 139.126 21.55C138.506 21.55 138.016 21.69 137.656 21.97C137.316 22.23 137.146 22.57 137.146 22.99C137.146 23.15 137.166 23.3 137.206 23.44C137.266 23.58 137.356 23.72 137.476 23.86C137.616 23.98 137.746 24.09 137.866 24.19C137.986 24.29 138.156 24.4 138.376 24.52C138.596 24.62 138.786 24.71 138.946 24.79C139.106 24.87 139.326 24.97 139.606 25.09C139.886 25.21 140.106 25.31 140.266 25.39C141.326 25.91 142.166 26.49 142.786 27.13C143.406 27.77 143.716 28.6 143.716 29.62Z" fill="#232323"/>
</svg>
