<svg width="294" height="260" viewBox="0 0 294 260" fill="none" xmlns="http://www.w3.org/2000/svg">
<path d="M16.86 33.04C15.62 33.84 13.88 34.24 11.64 34.24C8.64 34.24 6.16 33.3 4.2 31.42C2.26 29.52 1.29 27.01 1.29 23.89C1.29 20.83 2.25 18.34 4.17 16.42C6.11 14.48 8.6 13.51 11.64 13.51C13.86 13.51 15.59 13.88 16.83 14.62V18.31C15.31 17.43 13.63 16.99 11.79 16.99C9.95 16.99 8.41 17.62 7.17 18.88C5.95 20.12 5.34 21.79 5.34 23.89C5.34 25.99 5.95 27.66 7.17 28.9C8.41 30.14 10.02 30.76 12 30.76C13.9 30.76 15.52 30.26 16.86 29.26V33.04ZM34.0913 26.35C34.0913 28.65 33.4413 30.54 32.1413 32.02C30.8613 33.5 29.0613 34.24 26.7413 34.24C24.4413 34.24 22.6413 33.52 21.3413 32.08C20.0613 30.64 19.4213 28.8 19.4213 26.56C19.4213 24.24 20.0913 22.33 21.4313 20.83C22.7713 19.31 24.5413 18.55 26.7413 18.55C29.0813 18.55 30.8913 19.29 32.1713 20.77C33.4513 22.23 34.0913 24.09 34.0913 26.35ZM23.2013 26.44C23.2013 27.84 23.5113 29.01 24.1313 29.95C24.7513 30.89 25.6313 31.36 26.7713 31.36C27.9513 31.36 28.8413 30.9 29.4413 29.98C30.0413 29.06 30.3413 27.89 30.3413 26.47C30.3413 25.01 30.0513 23.82 29.4713 22.9C28.8913 21.96 27.9813 21.49 26.7413 21.49C25.6013 21.49 24.7213 21.96 24.1013 22.9C23.5013 23.84 23.2013 25.02 23.2013 26.44ZM50.3941 34H46.7941V24.64C46.7941 23.64 46.5541 22.89 46.0741 22.39C45.5941 21.87 44.9441 21.61 44.1241 21.61C43.1841 21.61 42.3941 21.98 41.7541 22.72C41.1141 23.44 40.7941 24.48 40.7941 25.84V34H37.1941V18.79H40.7941V21.4C41.6541 19.54 43.2141 18.61 45.4741 18.61C46.9941 18.61 48.1941 19.07 49.0741 19.99C49.9541 20.91 50.3941 22.21 50.3941 23.89V34ZM62.557 33.64C61.857 33.98 60.957 34.15 59.857 34.15C56.577 34.15 54.937 32.49 54.937 29.17V21.49H52.657V18.79H54.937V15.13H58.537V18.79H62.317V21.49H58.537V29.23C58.537 29.87 58.707 30.36 59.047 30.7C59.387 31.02 59.857 31.18 60.457 31.18C61.217 31.18 61.917 30.97 62.557 30.55V33.64ZM70.7442 31.45C71.5442 31.45 72.1642 31.22 72.6042 30.76C73.0642 30.28 73.2942 29.66 73.2942 28.9V27.46H71.4342C70.4942 27.46 69.7742 27.66 69.2742 28.06C68.7742 28.44 68.5242 28.93 68.5242 29.53C68.5242 30.81 69.2642 31.45 70.7442 31.45ZM73.4442 32.17C72.7442 33.47 71.4242 34.12 69.4842 34.12C68.0442 34.12 66.8942 33.7 66.0342 32.86C65.1942 32.02 64.7742 30.96 64.7742 29.68C64.7742 28.24 65.3142 27.11 66.3942 26.29C67.4742 25.47 69.0342 25.06 71.0742 25.06H73.2942V24.13C73.2942 23.29 73.0742 22.65 72.6342 22.21C72.1942 21.77 71.4442 21.55 70.3842 21.55C68.7642 21.55 67.2742 22 65.9142 22.9V19.57C67.0542 18.87 68.6942 18.52 70.8342 18.52C74.9542 18.52 77.0142 20.44 77.0142 24.28V34H73.4442V32.17ZM91.7393 33.34C90.6793 33.96 89.3593 34.27 87.7793 34.27C85.4393 34.27 83.5393 33.53 82.0793 32.05C80.6393 30.57 79.9193 28.7 79.9193 26.44C79.9393 24.22 80.6593 22.35 82.0793 20.83C83.5193 19.31 85.4793 18.55 87.9593 18.55C89.4393 18.55 90.6993 18.83 91.7393 19.39V22.57C90.7393 21.93 89.5993 21.61 88.3193 21.61C86.9193 21.61 85.7893 22.05 84.9293 22.93C84.0693 23.81 83.6293 24.98 83.6093 26.44C83.6493 27.88 84.0793 29.04 84.8993 29.92C85.7393 30.8 86.8693 31.24 88.2893 31.24C89.5293 31.24 90.6793 30.9 91.7393 30.22V33.34ZM103.221 33.64C102.521 33.98 101.621 34.15 100.521 34.15C97.2411 34.15 95.6011 32.49 95.6011 29.17V21.49H93.3211V18.79H95.6011V15.13H99.2011V18.79H102.981V21.49H99.2011V29.23C99.2011 29.87 99.3711 30.36 99.7111 30.7C100.051 31.02 100.521 31.18 101.121 31.18C101.881 31.18 102.581 30.97 103.221 30.55V33.64ZM129.265 26.23C129.265 28.85 128.555 30.85 127.135 32.23C125.735 33.59 123.805 34.27 121.345 34.27C118.945 34.27 117.025 33.6 115.585 32.26C114.165 30.9 113.455 28.96 113.455 26.44V13.78H117.235V26.41C117.235 27.95 117.615 29.07 118.375 29.77C119.135 30.45 120.125 30.79 121.345 30.79C124.105 30.79 125.485 29.28 125.485 26.26V13.78H129.265V26.23ZM143.13 29.62C143.13 31.04 142.62 32.15 141.6 32.95C140.58 33.75 139.22 34.15 137.52 34.15C135.64 34.15 134.12 33.84 132.96 33.22V29.92C134.3 30.82 135.75 31.27 137.31 31.27C137.97 31.27 138.48 31.15 138.84 30.91C139.22 30.65 139.41 30.3 139.41 29.86C139.41 29.6 139.35 29.37 139.23 29.17C139.11 28.95 138.88 28.74 138.54 28.54C138.2 28.34 137.93 28.2 137.73 28.12C137.55 28.02 137.18 27.85 136.62 27.61C136.56 27.59 136.51 27.57 136.47 27.55C136.45 27.53 136.41 27.51 136.35 27.49C136.29 27.47 136.24 27.45 136.2 27.43C133.98 26.43 132.87 24.99 132.87 23.11C132.87 21.71 133.4 20.61 134.46 19.81C135.52 19.01 136.85 18.61 138.45 18.61C139.99 18.61 141.27 18.83 142.29 19.27V22.45C141.29 21.85 140.04 21.55 138.54 21.55C137.92 21.55 137.43 21.69 137.07 21.97C136.73 22.23 136.56 22.57 136.56 22.99C136.56 23.15 136.58 23.3 136.62 23.44C136.68 23.58 136.77 23.72 136.89 23.86C137.03 23.98 137.16 24.09 137.28 24.19C137.4 24.29 137.57 24.4 137.79 24.52C138.01 24.62 138.2 24.71 138.36 24.79C138.52 24.87 138.74 24.97 139.02 25.09C139.3 25.21 139.52 25.31 139.68 25.39C140.74 25.91 141.58 26.49 142.2 27.13C142.82 27.77 143.13 28.6 143.13 29.62Z" fill="#232323"/>
<path d="M54.5166 251.771C54.5166 252.839 54.1292 253.672 53.3545 254.27C52.5798 254.867 51.5283 255.166 50.2002 255.166C48.7614 255.166 47.6546 254.981 46.8799 254.61V253.249C47.3779 253.459 47.9202 253.625 48.5068 253.747C49.0934 253.868 49.6745 253.929 50.25 253.929C51.1908 253.929 51.8991 253.752 52.375 253.398C52.8509 253.038 53.0889 252.54 53.0889 251.904C53.0889 251.483 53.0031 251.14 52.8315 250.875C52.6655 250.603 52.3833 250.354 51.9849 250.127C51.592 249.901 50.9915 249.643 50.1836 249.355C49.0547 248.951 48.2467 248.473 47.7598 247.919C47.2783 247.366 47.0376 246.644 47.0376 245.753C47.0376 244.818 47.389 244.073 48.0918 243.52C48.7946 242.967 49.7243 242.69 50.8809 242.69C52.0872 242.69 53.1968 242.911 54.2095 243.354L53.7695 244.583C52.7679 244.162 51.7939 243.952 50.8477 243.952C50.1006 243.952 49.5168 244.112 49.0962 244.433C48.6756 244.754 48.4653 245.2 48.4653 245.77C48.4653 246.19 48.5428 246.536 48.6978 246.807C48.8527 247.073 49.1128 247.319 49.478 247.546C49.8488 247.767 50.4132 248.014 51.1714 248.285C52.4442 248.738 53.3185 249.225 53.7944 249.746C54.2759 250.266 54.5166 250.941 54.5166 251.771ZM58.0859 245.902V251.804C58.0859 252.546 58.2547 253.099 58.5923 253.464C58.9299 253.83 59.4583 254.012 60.1777 254.012C61.1296 254.012 61.8241 253.752 62.2612 253.232C62.7039 252.712 62.9253 251.862 62.9253 250.684V245.902H64.3032V255H63.166L62.9668 253.78H62.8921C62.6099 254.228 62.217 254.571 61.7134 254.809C61.2153 255.047 60.6453 255.166 60.0034 255.166C58.8966 255.166 58.0666 254.903 57.5132 254.377C56.9653 253.852 56.6914 253.011 56.6914 251.854V245.902H58.0859ZM71.4668 255.166C70.8747 255.166 70.3324 255.058 69.8398 254.842C69.3529 254.621 68.9434 254.283 68.6113 253.83H68.5117C68.5781 254.361 68.6113 254.864 68.6113 255.34V259.084H67.2334V245.902H68.354L68.5449 247.147H68.6113C68.9655 246.649 69.3778 246.29 69.8481 246.068C70.3185 245.847 70.8581 245.736 71.4668 245.736C72.6732 245.736 73.6029 246.149 74.2559 246.973C74.9144 247.798 75.2437 248.954 75.2437 250.443C75.2437 251.937 74.9089 253.099 74.2393 253.929C73.5752 254.754 72.651 255.166 71.4668 255.166ZM71.2676 246.907C70.3379 246.907 69.6655 247.164 69.2505 247.679C68.8354 248.193 68.6224 249.012 68.6113 250.136V250.443C68.6113 251.721 68.8244 252.637 69.2505 253.19C69.6766 253.738 70.36 254.012 71.3008 254.012C72.0866 254.012 72.7008 253.694 73.1436 253.058C73.5918 252.421 73.8159 251.544 73.8159 250.426C73.8159 249.292 73.5918 248.423 73.1436 247.82C72.7008 247.211 72.0755 246.907 71.2676 246.907ZM81.8926 255.166C81.3005 255.166 80.7581 255.058 80.2656 254.842C79.7786 254.621 79.3691 254.283 79.0371 253.83H78.9375C79.0039 254.361 79.0371 254.864 79.0371 255.34V259.084H77.6592V245.902H78.7798L78.9707 247.147H79.0371C79.3913 246.649 79.8035 246.29 80.2739 246.068C80.7443 245.847 81.2839 245.736 81.8926 245.736C83.099 245.736 84.0286 246.149 84.6816 246.973C85.3402 247.798 85.6694 248.954 85.6694 250.443C85.6694 251.937 85.3346 253.099 84.665 253.929C84.001 254.754 83.0768 255.166 81.8926 255.166ZM81.6934 246.907C80.7637 246.907 80.0913 247.164 79.6763 247.679C79.2612 248.193 79.0482 249.012 79.0371 250.136V250.443C79.0371 251.721 79.2502 252.637 79.6763 253.19C80.1024 253.738 80.7858 254.012 81.7266 254.012C82.5124 254.012 83.1266 253.694 83.5693 253.058C84.0176 252.421 84.2417 251.544 84.2417 250.426C84.2417 249.292 84.0176 248.423 83.5693 247.82C83.1266 247.211 82.5013 246.907 81.6934 246.907ZM95.9375 250.443C95.9375 251.926 95.564 253.085 94.8169 253.921C94.0698 254.751 93.0378 255.166 91.7207 255.166C90.9072 255.166 90.1851 254.975 89.5542 254.593C88.9233 254.211 88.4364 253.664 88.0933 252.95C87.7502 252.236 87.5786 251.4 87.5786 250.443C87.5786 248.96 87.9494 247.806 88.6909 246.981C89.4325 246.151 90.4618 245.736 91.7788 245.736C93.0516 245.736 94.0615 246.16 94.8086 247.006C95.5612 247.853 95.9375 248.999 95.9375 250.443ZM89.0063 250.443C89.0063 251.605 89.2388 252.49 89.7036 253.099C90.1685 253.708 90.8519 254.012 91.7539 254.012C92.6559 254.012 93.3394 253.711 93.8042 253.107C94.2746 252.499 94.5098 251.611 94.5098 250.443C94.5098 249.286 94.2746 248.409 93.8042 247.812C93.3394 247.208 92.6504 246.907 91.7373 246.907C90.8353 246.907 90.1546 247.203 89.6953 247.795C89.236 248.387 89.0063 249.27 89.0063 250.443ZM102.512 245.736C102.916 245.736 103.278 245.77 103.599 245.836L103.408 247.114C103.032 247.031 102.7 246.99 102.412 246.99C101.676 246.99 101.045 247.289 100.52 247.886C99.9993 248.484 99.7393 249.228 99.7393 250.119V255H98.3613V245.902H99.4985L99.6562 247.587H99.7227C100.06 246.995 100.467 246.539 100.943 246.218C101.419 245.897 101.942 245.736 102.512 245.736ZM108.239 254.029C108.483 254.029 108.718 254.012 108.945 253.979C109.172 253.94 109.352 253.902 109.484 253.863V254.917C109.335 254.989 109.114 255.047 108.82 255.091C108.533 255.141 108.272 255.166 108.04 255.166C106.28 255.166 105.4 254.239 105.4 252.385V246.973H104.097V246.309L105.4 245.736L105.981 243.794H106.778V245.902H109.418V246.973H106.778V252.327C106.778 252.875 106.908 253.296 107.168 253.589C107.429 253.882 107.785 254.029 108.239 254.029ZM124.127 248.949C124.127 249.735 124.005 250.454 123.762 251.107C123.518 251.76 123.175 252.266 122.732 252.626C122.29 252.986 121.781 253.166 121.205 253.166C120.729 253.166 120.328 253.022 120.001 252.734C119.675 252.446 119.481 252.078 119.42 251.63H119.354C119.133 252.111 118.814 252.488 118.399 252.759C117.99 253.03 117.503 253.166 116.938 253.166C116.108 253.166 115.458 252.883 114.988 252.319C114.523 251.749 114.291 250.977 114.291 250.003C114.291 248.874 114.617 247.958 115.27 247.255C115.923 246.547 116.781 246.193 117.843 246.193C118.22 246.193 118.646 246.229 119.122 246.301C119.597 246.367 120.026 246.461 120.408 246.583L120.201 250.484V250.667C120.201 251.652 120.569 252.145 121.305 252.145C121.808 252.145 122.218 251.848 122.533 251.256C122.849 250.659 123.006 249.884 123.006 248.932C123.006 247.931 122.802 247.053 122.392 246.301C121.983 245.548 121.399 244.97 120.641 244.566C119.888 244.156 119.022 243.952 118.042 243.952C116.808 243.952 115.735 244.209 114.822 244.724C113.909 245.233 113.211 245.963 112.73 246.915C112.249 247.861 112.008 248.957 112.008 250.202C112.008 251.89 112.453 253.188 113.344 254.095C114.235 255.003 115.519 255.457 117.196 255.457C118.358 255.457 119.564 255.219 120.815 254.743V255.847C119.752 256.312 118.546 256.544 117.196 256.544C115.187 256.544 113.626 255.993 112.514 254.892C111.407 253.785 110.854 252.241 110.854 250.26C110.854 248.821 111.15 247.54 111.742 246.417C112.334 245.294 113.178 244.425 114.274 243.811C115.37 243.191 116.626 242.881 118.042 242.881C119.232 242.881 120.289 243.133 121.213 243.636C122.143 244.134 122.86 244.845 123.363 245.77C123.872 246.688 124.127 247.748 124.127 248.949ZM115.544 250.036C115.544 251.442 116.083 252.145 117.163 252.145C118.308 252.145 118.931 251.278 119.03 249.546L119.146 247.38C118.748 247.269 118.314 247.214 117.843 247.214C117.124 247.214 116.559 247.463 116.15 247.961C115.746 248.459 115.544 249.151 115.544 250.036ZM130.236 255.166C128.919 255.166 127.898 254.762 127.173 253.954C126.454 253.141 126.094 251.992 126.094 250.509C126.094 248.987 126.459 247.812 127.19 246.981C127.926 246.151 128.972 245.736 130.328 245.736C130.765 245.736 131.202 245.783 131.639 245.877C132.076 245.972 132.419 246.082 132.668 246.209L132.245 247.38C131.941 247.258 131.609 247.159 131.249 247.081C130.889 246.998 130.571 246.957 130.294 246.957C128.446 246.957 127.522 248.135 127.522 250.493C127.522 251.611 127.746 252.468 128.194 253.066C128.648 253.664 129.318 253.962 130.203 253.962C130.961 253.962 131.739 253.799 132.536 253.473V254.693C131.927 255.008 131.16 255.166 130.236 255.166ZM142.555 250.443C142.555 251.926 142.181 253.085 141.434 253.921C140.687 254.751 139.655 255.166 138.338 255.166C137.524 255.166 136.802 254.975 136.171 254.593C135.541 254.211 135.054 253.664 134.71 252.95C134.367 252.236 134.196 251.4 134.196 250.443C134.196 248.96 134.567 247.806 135.308 246.981C136.05 246.151 137.079 245.736 138.396 245.736C139.669 245.736 140.679 246.16 141.426 247.006C142.178 247.853 142.555 248.999 142.555 250.443ZM135.624 250.443C135.624 251.605 135.856 252.49 136.321 253.099C136.786 253.708 137.469 254.012 138.371 254.012C139.273 254.012 139.957 253.711 140.421 253.107C140.892 252.499 141.127 251.611 141.127 250.443C141.127 249.286 140.892 248.409 140.421 247.812C139.957 247.208 139.268 246.907 138.354 246.907C137.452 246.907 136.772 247.203 136.312 247.795C135.853 248.387 135.624 249.27 135.624 250.443ZM151.204 255V249.115C151.204 248.373 151.035 247.82 150.698 247.455C150.36 247.089 149.832 246.907 149.112 246.907C148.16 246.907 147.463 247.164 147.021 247.679C146.578 248.193 146.356 249.043 146.356 250.227V255H144.979V245.902H146.099L146.323 247.147H146.39C146.672 246.699 147.068 246.353 147.577 246.11C148.086 245.861 148.653 245.736 149.278 245.736C150.374 245.736 151.199 246.002 151.752 246.533C152.305 247.059 152.582 247.903 152.582 249.065V255H151.204ZM159.057 255.166C157.74 255.166 156.719 254.762 155.994 253.954C155.274 253.141 154.915 251.992 154.915 250.509C154.915 248.987 155.28 247.812 156.01 246.981C156.746 246.151 157.792 245.736 159.148 245.736C159.585 245.736 160.022 245.783 160.459 245.877C160.897 245.972 161.24 246.082 161.489 246.209L161.065 247.38C160.761 247.258 160.429 247.159 160.069 247.081C159.71 246.998 159.391 246.957 159.115 246.957C157.266 246.957 156.342 248.135 156.342 250.493C156.342 251.611 156.566 252.468 157.015 253.066C157.468 253.664 158.138 253.962 159.023 253.962C159.782 253.962 160.559 253.799 161.356 253.473V254.693C160.747 255.008 159.981 255.166 159.057 255.166ZM167.366 255.166C166.021 255.166 164.958 254.757 164.178 253.938C163.403 253.118 163.016 251.981 163.016 250.526C163.016 249.059 163.376 247.895 164.095 247.031C164.82 246.168 165.791 245.736 167.009 245.736C168.149 245.736 169.051 246.113 169.715 246.865C170.379 247.612 170.711 248.6 170.711 249.829V250.7H164.444C164.472 251.768 164.74 252.579 165.249 253.132C165.764 253.686 166.486 253.962 167.416 253.962C168.395 253.962 169.363 253.758 170.321 253.348V254.577C169.834 254.787 169.372 254.936 168.935 255.025C168.503 255.119 167.98 255.166 167.366 255.166ZM166.992 246.89C166.262 246.89 165.678 247.128 165.241 247.604C164.809 248.08 164.555 248.738 164.477 249.58H169.233C169.233 248.711 169.04 248.047 168.652 247.587C168.265 247.123 167.712 246.89 166.992 246.89ZM176.007 254.029C176.25 254.029 176.486 254.012 176.712 253.979C176.939 253.94 177.119 253.902 177.252 253.863V254.917C177.103 254.989 176.881 255.047 176.588 255.091C176.3 255.141 176.04 255.166 175.808 255.166C174.048 255.166 173.168 254.239 173.168 252.385V246.973H171.865V246.309L173.168 245.736L173.749 243.794H174.546V245.902H177.186V246.973H174.546V252.327C174.546 252.875 174.676 253.296 174.936 253.589C175.196 253.882 175.553 254.029 176.007 254.029ZM182.017 254.029C182.26 254.029 182.495 254.012 182.722 253.979C182.949 253.94 183.129 253.902 183.262 253.863V254.917C183.112 254.989 182.891 255.047 182.598 255.091C182.31 255.141 182.05 255.166 181.817 255.166C180.058 255.166 179.178 254.239 179.178 252.385V246.973H177.875V246.309L179.178 245.736L179.759 243.794H180.556V245.902H183.195V246.973H180.556V252.327C180.556 252.875 180.686 253.296 180.946 253.589C181.206 253.882 181.563 254.029 182.017 254.029ZM186.466 255H185.088V245.902H186.466V255ZM184.972 243.437C184.972 243.122 185.049 242.892 185.204 242.748C185.359 242.599 185.553 242.524 185.785 242.524C186.007 242.524 186.197 242.599 186.358 242.748C186.518 242.897 186.599 243.127 186.599 243.437C186.599 243.747 186.518 243.979 186.358 244.134C186.197 244.284 186.007 244.358 185.785 244.358C185.553 244.358 185.359 244.284 185.204 244.134C185.049 243.979 184.972 243.747 184.972 243.437ZM188.624 251.074V249.812H192.7V251.074H188.624ZM201.059 253.78H200.984C200.347 254.704 199.396 255.166 198.128 255.166C196.939 255.166 196.012 254.759 195.348 253.946C194.689 253.132 194.36 251.976 194.36 250.476C194.36 248.976 194.692 247.812 195.356 246.981C196.02 246.151 196.944 245.736 198.128 245.736C199.362 245.736 200.309 246.185 200.967 247.081H201.075L201.017 246.425L200.984 245.786V242.084H202.362V255H201.241L201.059 253.78ZM198.303 254.012C199.243 254.012 199.924 253.758 200.345 253.249C200.771 252.734 200.984 251.907 200.984 250.767V250.476C200.984 249.187 200.768 248.268 200.336 247.72C199.91 247.167 199.227 246.89 198.286 246.89C197.478 246.89 196.858 247.206 196.427 247.836C196.001 248.462 195.788 249.347 195.788 250.493C195.788 251.655 196.001 252.532 196.427 253.124C196.853 253.716 197.478 254.012 198.303 254.012ZM206.67 255H205.292V245.902H206.67V255ZM205.176 243.437C205.176 243.122 205.253 242.892 205.408 242.748C205.563 242.599 205.757 242.524 205.989 242.524C206.211 242.524 206.402 242.599 206.562 242.748C206.722 242.897 206.803 243.127 206.803 243.437C206.803 243.747 206.722 243.979 206.562 244.134C206.402 244.284 206.211 244.358 205.989 244.358C205.757 244.358 205.563 244.284 205.408 244.134C205.253 243.979 205.176 243.747 205.176 243.437ZM208.828 251.074V249.812H212.904V251.074H208.828ZM216.448 255H215.07V242.084H216.448V255ZM220.665 245.902V251.804C220.665 252.546 220.834 253.099 221.171 253.464C221.509 253.83 222.037 254.012 222.757 254.012C223.709 254.012 224.403 253.752 224.84 253.232C225.283 252.712 225.504 251.862 225.504 250.684V245.902H226.882V255H225.745L225.546 253.78H225.471C225.189 254.228 224.796 254.571 224.292 254.809C223.794 255.047 223.224 255.166 222.583 255.166C221.476 255.166 220.646 254.903 220.092 254.377C219.544 253.852 219.271 253.011 219.271 251.854V245.902H220.665ZM235.681 252.518C235.681 253.365 235.366 254.018 234.735 254.477C234.104 254.936 233.219 255.166 232.079 255.166C230.872 255.166 229.931 254.975 229.256 254.593V253.315C229.694 253.536 230.161 253.711 230.659 253.838C231.163 253.965 231.647 254.029 232.112 254.029C232.831 254.029 233.385 253.915 233.772 253.688C234.159 253.456 234.353 253.105 234.353 252.634C234.353 252.28 234.198 251.979 233.888 251.729C233.584 251.475 232.986 251.176 232.095 250.833C231.249 250.518 230.645 250.244 230.286 250.011C229.931 249.773 229.666 249.505 229.489 249.206C229.317 248.907 229.231 248.55 229.231 248.135C229.231 247.394 229.533 246.81 230.136 246.384C230.739 245.952 231.567 245.736 232.618 245.736C233.598 245.736 234.555 245.936 235.49 246.334L235 247.455C234.087 247.078 233.26 246.89 232.519 246.89C231.866 246.89 231.373 246.993 231.041 247.197C230.709 247.402 230.543 247.684 230.543 248.044C230.543 248.287 230.604 248.495 230.726 248.667C230.853 248.838 231.055 249.001 231.332 249.156C231.608 249.311 232.139 249.535 232.925 249.829C234.004 250.222 234.732 250.617 235.108 251.016C235.49 251.414 235.681 251.915 235.681 252.518ZM243.799 252.518C243.799 253.365 243.484 254.018 242.853 254.477C242.222 254.936 241.337 255.166 240.197 255.166C238.99 255.166 238.05 254.975 237.375 254.593V253.315C237.812 253.536 238.279 253.711 238.777 253.838C239.281 253.965 239.765 254.029 240.23 254.029C240.949 254.029 241.503 253.915 241.89 253.688C242.278 253.456 242.471 253.105 242.471 252.634C242.471 252.28 242.316 251.979 242.006 251.729C241.702 251.475 241.104 251.176 240.213 250.833C239.367 250.518 238.764 250.244 238.404 250.011C238.05 249.773 237.784 249.505 237.607 249.206C237.435 248.907 237.35 248.55 237.35 248.135C237.35 247.394 237.651 246.81 238.254 246.384C238.858 245.952 239.685 245.736 240.736 245.736C241.716 245.736 242.673 245.936 243.608 246.334L243.119 247.455C242.206 247.078 241.378 246.89 240.637 246.89C239.984 246.89 239.491 246.993 239.159 247.197C238.827 247.402 238.661 247.684 238.661 248.044C238.661 248.287 238.722 248.495 238.844 248.667C238.971 248.838 239.173 249.001 239.45 249.156C239.726 249.311 240.258 249.535 241.043 249.829C242.123 250.222 242.85 250.617 243.227 251.016C243.608 251.414 243.799 251.915 243.799 252.518ZM253.901 250.443C253.901 251.926 253.528 253.085 252.781 253.921C252.034 254.751 251.002 255.166 249.685 255.166C248.871 255.166 248.149 254.975 247.518 254.593C246.887 254.211 246.4 253.664 246.057 252.95C245.714 252.236 245.542 251.4 245.542 250.443C245.542 248.96 245.913 247.806 246.655 246.981C247.396 246.151 248.426 245.736 249.743 245.736C251.015 245.736 252.025 246.16 252.772 247.006C253.525 247.853 253.901 248.999 253.901 250.443ZM246.97 250.443C246.97 251.605 247.203 252.49 247.667 253.099C248.132 253.708 248.816 254.012 249.718 254.012C250.62 254.012 251.303 253.711 251.768 253.107C252.238 252.499 252.474 251.611 252.474 250.443C252.474 249.286 252.238 248.409 251.768 247.812C251.303 247.208 250.614 246.907 249.701 246.907C248.799 246.907 248.118 247.203 247.659 247.795C247.2 248.387 246.97 249.27 246.97 250.443ZM256.126 254.12C256.126 253.749 256.209 253.47 256.375 253.282C256.547 253.088 256.79 252.991 257.105 252.991C257.426 252.991 257.675 253.088 257.853 253.282C258.035 253.47 258.126 253.749 258.126 254.12C258.126 254.48 258.035 254.757 257.853 254.95C257.67 255.144 257.421 255.241 257.105 255.241C256.823 255.241 256.588 255.155 256.4 254.983C256.217 254.806 256.126 254.519 256.126 254.12ZM264.493 255.166C263.176 255.166 262.155 254.762 261.43 253.954C260.711 253.141 260.351 251.992 260.351 250.509C260.351 248.987 260.716 247.812 261.447 246.981C262.183 246.151 263.229 245.736 264.584 245.736C265.022 245.736 265.459 245.783 265.896 245.877C266.333 245.972 266.676 246.082 266.925 246.209L266.502 247.38C266.198 247.258 265.866 247.159 265.506 247.081C265.146 246.998 264.828 246.957 264.551 246.957C262.703 246.957 261.779 248.135 261.779 250.493C261.779 251.611 262.003 252.468 262.451 253.066C262.905 253.664 263.575 253.962 264.46 253.962C265.218 253.962 265.996 253.799 266.792 253.473V254.693C266.184 255.008 265.417 255.166 264.493 255.166ZM276.812 250.443C276.812 251.926 276.438 253.085 275.691 253.921C274.944 254.751 273.912 255.166 272.595 255.166C271.781 255.166 271.059 254.975 270.428 254.593C269.797 254.211 269.31 253.664 268.967 252.95C268.624 252.236 268.453 251.4 268.453 250.443C268.453 248.96 268.823 247.806 269.565 246.981C270.306 246.151 271.336 245.736 272.653 245.736C273.926 245.736 274.936 246.16 275.683 247.006C276.435 247.853 276.812 248.999 276.812 250.443ZM269.88 250.443C269.88 251.605 270.113 252.49 270.578 253.099C271.042 253.708 271.726 254.012 272.628 254.012C273.53 254.012 274.213 253.711 274.678 253.107C275.149 252.499 275.384 251.611 275.384 250.443C275.384 249.286 275.149 248.409 274.678 247.812C274.213 247.208 273.524 246.907 272.611 246.907C271.709 246.907 271.029 247.203 270.569 247.795C270.11 248.387 269.88 249.27 269.88 250.443ZM290.832 255V249.082C290.832 248.357 290.677 247.814 290.367 247.455C290.057 247.089 289.575 246.907 288.922 246.907C288.065 246.907 287.431 247.153 287.021 247.646C286.612 248.138 286.407 248.896 286.407 249.92V255H285.029V249.082C285.029 248.357 284.874 247.814 284.564 247.455C284.255 247.089 283.77 246.907 283.112 246.907C282.249 246.907 281.615 247.167 281.211 247.687C280.812 248.202 280.613 249.048 280.613 250.227V255H279.235V245.902H280.356L280.58 247.147H280.646C280.907 246.705 281.272 246.359 281.742 246.11C282.218 245.861 282.749 245.736 283.336 245.736C284.758 245.736 285.688 246.251 286.125 247.28H286.191C286.463 246.804 286.855 246.428 287.37 246.151C287.885 245.875 288.471 245.736 289.13 245.736C290.159 245.736 290.928 246.002 291.438 246.533C291.952 247.059 292.209 247.903 292.209 249.065V255H290.832Z" fill="#303030"/>
<path d="M26.7651 240H8.89233C7.2969 240 6 241.297 6 242.892V255.108C6 256.703 7.2969 258 8.89233 258H26.7602C28.3556 258 29.6525 256.703 29.6525 255.108V242.897C29.6574 241.302 28.3605 240 26.7651 240ZM28.3361 255.108C28.3361 255.974 27.6313 256.679 26.7651 256.679H8.89233C8.0261 256.679 7.32137 255.974 7.32137 255.108V242.897C7.32137 242.031 8.0261 241.326 8.89233 241.326H26.7602C27.6264 241.326 28.3312 242.031 28.3312 242.897V255.108H28.3361Z" fill="#9E3040"/>
<path d="M20.9168 248.848L26.7015 243.661C26.9707 243.416 26.9951 243 26.7504 242.726C26.5057 242.457 26.0897 242.432 25.8157 242.677L17.8385 249.837L16.2822 248.447C16.2773 248.442 16.2724 248.437 16.2724 248.432C16.2382 248.398 16.2039 248.369 16.1648 248.339L9.83199 242.672C9.55793 242.427 9.14194 242.452 8.89724 242.726C8.65254 243 8.67701 243.416 8.95107 243.661L14.8043 248.892L8.97554 254.349C8.71127 254.599 8.69659 255.015 8.94618 255.284C9.07832 255.421 9.2545 255.494 9.43068 255.494C9.59218 255.494 9.75368 255.436 9.88093 255.318L15.7977 249.783L17.403 251.217C17.5302 251.33 17.6868 251.383 17.8434 251.383C18 251.383 18.1615 251.325 18.2839 251.212L19.9331 249.734L25.8157 255.323C25.9429 255.445 26.1093 255.504 26.2708 255.504C26.447 255.504 26.6183 255.436 26.7504 255.299C27 255.034 26.9902 254.613 26.726 254.364L20.9168 248.848Z" fill="#9E3040"/>
<path d="M50.8477 190.69C51.9544 190.69 52.8315 190.947 53.479 191.462C54.1265 191.977 54.4502 192.688 54.4502 193.595C54.4502 194.193 54.2648 194.738 53.894 195.23C53.5233 195.723 52.9312 196.171 52.1177 196.575C53.1027 197.046 53.8027 197.541 54.2178 198.061C54.6328 198.576 54.8403 199.173 54.8403 199.854C54.8403 200.861 54.4889 201.666 53.7861 202.27C53.0833 202.867 52.1204 203.166 50.8975 203.166C49.6025 203.166 48.6064 202.884 47.9092 202.319C47.2119 201.749 46.8633 200.944 46.8633 199.904C46.8633 198.515 47.71 197.433 49.4033 196.658C48.6396 196.227 48.0918 195.762 47.7598 195.264C47.4277 194.76 47.2617 194.198 47.2617 193.579C47.2617 192.699 47.5854 191.999 48.2329 191.479C48.8859 190.953 49.7575 190.69 50.8477 190.69ZM48.2246 199.937C48.2246 200.601 48.4543 201.118 48.9136 201.489C49.3784 201.86 50.0286 202.045 50.8643 202.045C51.6888 202.045 52.3307 201.852 52.79 201.464C53.2493 201.077 53.479 200.546 53.479 199.871C53.479 199.334 53.2632 198.858 52.8315 198.443C52.3999 198.022 51.6473 197.616 50.5737 197.223C49.7492 197.577 49.1515 197.97 48.7808 198.401C48.41 198.827 48.2246 199.339 48.2246 199.937ZM50.8311 191.811C50.1393 191.811 49.597 191.977 49.2041 192.309C48.8112 192.641 48.6147 193.083 48.6147 193.637C48.6147 194.146 48.778 194.583 49.1045 194.948C49.431 195.313 50.0342 195.679 50.9141 196.044C51.7054 195.712 52.2643 195.355 52.5908 194.973C52.9229 194.591 53.0889 194.146 53.0889 193.637C53.0889 193.078 52.8869 192.635 52.4829 192.309C52.0845 191.977 51.5339 191.811 50.8311 191.811ZM64.6021 196.916C64.6021 199.013 64.27 200.579 63.606 201.614C62.9474 202.649 61.9375 203.166 60.5762 203.166C59.2702 203.166 58.2769 202.638 57.5962 201.581C56.9155 200.518 56.5752 198.963 56.5752 196.916C56.5752 194.802 56.9045 193.233 57.563 192.209C58.2215 191.185 59.2259 190.673 60.5762 190.673C61.8932 190.673 62.8921 191.207 63.5728 192.275C64.259 193.343 64.6021 194.89 64.6021 196.916ZM57.9697 196.916C57.9697 198.681 58.1772 199.967 58.5923 200.775C59.0073 201.578 59.6686 201.979 60.5762 201.979C61.4948 201.979 62.1589 201.572 62.5684 200.759C62.9834 199.94 63.1909 198.659 63.1909 196.916C63.1909 195.172 62.9834 193.897 62.5684 193.089C62.1589 192.275 61.4948 191.869 60.5762 191.869C59.6686 191.869 59.0073 192.27 58.5923 193.072C58.1772 193.869 57.9697 195.15 57.9697 196.916ZM71.3921 203H70.0474V194.351C70.0474 193.631 70.0695 192.951 70.1138 192.309C69.9976 192.425 69.8675 192.547 69.7236 192.674C69.5798 192.801 68.9212 193.341 67.748 194.292L67.0176 193.346L70.23 190.864H71.3921V203ZM75.8828 199.074V197.812H79.9585V199.074H75.8828ZM90.0439 200.211H88.2427V203H86.9229V200.211H81.021V199.007L86.7817 190.798H88.2427V198.958H90.0439V200.211ZM86.9229 198.958V194.923C86.9229 194.132 86.9505 193.238 87.0059 192.242H86.9395C86.6738 192.773 86.4248 193.213 86.1924 193.562L82.3989 198.958H86.9229ZM91.3638 197.812C91.3638 195.427 91.8258 193.645 92.75 192.466C93.6797 191.282 95.0521 190.69 96.8672 190.69C97.4925 190.69 97.985 190.743 98.3447 190.848V192.035C97.9186 191.896 97.4316 191.827 96.8838 191.827C95.5833 191.827 94.59 192.234 93.9038 193.047C93.2176 193.855 92.8413 195.128 92.7749 196.866H92.8745C93.4832 195.914 94.4461 195.438 95.7632 195.438C96.8534 195.438 97.7111 195.767 98.3364 196.426C98.9673 197.084 99.2827 197.978 99.2827 199.107C99.2827 200.369 98.9368 201.362 98.2451 202.087C97.5589 202.806 96.6292 203.166 95.4561 203.166C94.1999 203.166 93.2038 202.696 92.4678 201.755C91.7318 200.809 91.3638 199.494 91.3638 197.812ZM95.4395 201.996C96.2253 201.996 96.834 201.749 97.2656 201.257C97.7028 200.759 97.9214 200.042 97.9214 199.107C97.9214 198.305 97.7194 197.674 97.3154 197.214C96.9115 196.755 96.3083 196.525 95.5059 196.525C95.0078 196.525 94.5513 196.628 94.1362 196.833C93.7212 197.037 93.3892 197.319 93.1401 197.679C92.8966 198.039 92.7749 198.412 92.7749 198.8C92.7749 199.37 92.8856 199.901 93.1069 200.394C93.3283 200.886 93.641 201.276 94.0449 201.564C94.4544 201.852 94.9193 201.996 95.4395 201.996ZM108.928 203H100.951V201.813L104.147 198.601C105.121 197.616 105.763 196.913 106.073 196.492C106.383 196.072 106.615 195.662 106.77 195.264C106.925 194.865 107.002 194.436 107.002 193.977C107.002 193.33 106.806 192.818 106.413 192.441C106.02 192.06 105.475 191.869 104.778 191.869C104.274 191.869 103.796 191.952 103.342 192.118C102.894 192.284 102.393 192.585 101.839 193.022L101.109 192.084C102.227 191.155 103.444 190.69 104.761 190.69C105.901 190.69 106.795 190.983 107.442 191.57C108.09 192.151 108.414 192.934 108.414 193.919C108.414 194.688 108.198 195.449 107.766 196.202C107.334 196.954 106.527 197.906 105.342 199.057L102.686 201.655V201.722H108.928V203ZM110.547 199.074V197.812H114.623V199.074H110.547ZM116.299 197.812C116.299 195.427 116.761 193.645 117.686 192.466C118.615 191.282 119.988 190.69 121.803 190.69C122.428 190.69 122.921 190.743 123.28 190.848V192.035C122.854 191.896 122.367 191.827 121.819 191.827C120.519 191.827 119.526 192.234 118.839 193.047C118.153 193.855 117.777 195.128 117.71 196.866H117.81C118.419 195.914 119.382 195.438 120.699 195.438C121.789 195.438 122.647 195.767 123.272 196.426C123.903 197.084 124.218 197.978 124.218 199.107C124.218 200.369 123.872 201.362 123.181 202.087C122.494 202.806 121.565 203.166 120.392 203.166C119.135 203.166 118.139 202.696 117.403 201.755C116.667 200.809 116.299 199.494 116.299 197.812ZM120.375 201.996C121.161 201.996 121.77 201.749 122.201 201.257C122.638 200.759 122.857 200.042 122.857 199.107C122.857 198.305 122.655 197.674 122.251 197.214C121.847 196.755 121.244 196.525 120.441 196.525C119.943 196.525 119.487 196.628 119.072 196.833C118.657 197.037 118.325 197.319 118.076 197.679C117.832 198.039 117.71 198.412 117.71 198.8C117.71 199.37 117.821 199.901 118.042 200.394C118.264 200.886 118.576 201.276 118.98 201.564C119.39 201.852 119.855 201.996 120.375 201.996ZM133.864 203H125.887V201.813L129.083 198.601C130.056 197.616 130.698 196.913 131.008 196.492C131.318 196.072 131.551 195.662 131.706 195.264C131.861 194.865 131.938 194.436 131.938 193.977C131.938 193.33 131.742 192.818 131.349 192.441C130.956 192.06 130.411 191.869 129.713 191.869C129.21 191.869 128.731 191.952 128.277 192.118C127.829 192.284 127.328 192.585 126.775 193.022L126.044 192.084C127.162 191.155 128.38 190.69 129.697 190.69C130.837 190.69 131.73 190.983 132.378 191.57C133.025 192.151 133.349 192.934 133.349 193.919C133.349 194.688 133.133 195.449 132.702 196.202C132.27 196.954 131.462 197.906 130.278 199.057L127.622 201.655V201.722H133.864V203ZM140.72 203H139.375V194.351C139.375 193.631 139.398 192.951 139.442 192.309C139.326 192.425 139.196 192.547 139.052 192.674C138.908 192.801 138.249 193.341 137.076 194.292L136.346 193.346L139.558 190.864H140.72V203ZM153.387 196.916C153.387 199.013 153.055 200.579 152.391 201.614C151.733 202.649 150.723 203.166 149.361 203.166C148.055 203.166 147.062 202.638 146.381 201.581C145.701 200.518 145.36 198.963 145.36 196.916C145.36 194.802 145.69 193.233 146.348 192.209C147.007 191.185 148.011 190.673 149.361 190.673C150.678 190.673 151.677 191.207 152.358 192.275C153.044 193.343 153.387 194.89 153.387 196.916ZM146.755 196.916C146.755 198.681 146.962 199.967 147.377 200.775C147.792 201.578 148.454 201.979 149.361 201.979C150.28 201.979 150.944 201.572 151.354 200.759C151.769 199.94 151.976 198.659 151.976 196.916C151.976 195.172 151.769 193.897 151.354 193.089C150.944 192.275 150.28 191.869 149.361 191.869C148.454 191.869 147.792 192.27 147.377 193.072C146.962 193.869 146.755 195.15 146.755 196.916Z" fill="#303030"/>
<path d="M24.3709 199.628C23.9205 199.159 23.3773 198.908 22.8015 198.908C22.2304 198.908 21.6825 199.155 21.2135 199.624L19.7463 201.086C19.6255 201.021 19.5048 200.961 19.3887 200.9C19.2216 200.817 19.0637 200.738 18.929 200.654C17.5546 199.781 16.3056 198.644 15.1076 197.172C14.5272 196.438 14.1372 195.821 13.854 195.194C14.2347 194.846 14.5876 194.483 14.9312 194.135C15.0612 194.005 15.1912 193.871 15.3212 193.741C16.2963 192.765 16.2963 191.502 15.3212 190.527L14.0536 189.26C13.9097 189.116 13.7611 188.967 13.6218 188.819C13.3432 188.531 13.0507 188.234 12.7489 187.955C12.2985 187.509 11.7599 187.272 11.1934 187.272C10.6269 187.272 10.079 187.509 9.61468 187.955C9.61004 187.96 9.61004 187.96 9.6054 187.964L8.02669 189.557C7.43236 190.151 7.0934 190.876 7.01911 191.716C6.90767 193.072 7.30699 194.335 7.61344 195.161C8.36565 197.19 9.48932 199.071 11.1655 201.086C13.1993 203.515 15.6463 205.432 18.4415 206.783C19.5095 207.29 20.9349 207.888 22.5276 207.991C22.6251 207.995 22.7272 208 22.8201 208C23.8927 208 24.7935 207.615 25.4992 206.848C25.5039 206.839 25.5132 206.834 25.5178 206.825C25.7593 206.533 26.0379 206.268 26.3304 205.985C26.53 205.794 26.7343 205.595 26.934 205.386C27.3937 204.908 27.6351 204.35 27.6351 203.779C27.6351 203.203 27.389 202.651 26.9201 202.187L24.3709 199.628ZM26.0332 204.517C26.0286 204.517 26.0286 204.522 26.0332 204.517C25.8521 204.713 25.6664 204.889 25.4667 205.084C25.1649 205.372 24.8585 205.674 24.5706 206.013C24.1016 206.514 23.5491 206.751 22.8247 206.751C22.7551 206.751 22.6808 206.751 22.6111 206.746C21.2321 206.658 19.9506 206.119 18.9894 205.66C16.3613 204.387 14.0536 202.581 12.136 200.292C10.5526 198.384 9.49396 196.619 8.79283 194.725C8.36101 193.569 8.20314 192.668 8.27278 191.818C8.31922 191.275 8.52816 190.825 8.91355 190.439L10.4969 188.856C10.7244 188.642 10.9659 188.526 11.2027 188.526C11.4952 188.526 11.732 188.703 11.8806 188.851C11.8852 188.856 11.8899 188.86 11.8945 188.865C12.1778 189.13 12.4471 189.404 12.7303 189.696C12.8742 189.845 13.0228 189.993 13.1714 190.147L14.439 191.414C14.9312 191.906 14.9312 192.361 14.439 192.854C14.3044 192.988 14.1744 193.123 14.0397 193.253C13.6497 193.652 13.2782 194.024 12.8742 194.386C12.865 194.395 12.8557 194.4 12.851 194.409C12.4517 194.808 12.526 195.198 12.6096 195.463C12.6142 195.477 12.6189 195.491 12.6235 195.505C12.9532 196.304 13.4175 197.056 14.1233 197.952L14.1279 197.957C15.4095 199.535 16.7606 200.766 18.2511 201.708C18.4415 201.829 18.6365 201.927 18.8222 202.019C18.9894 202.103 19.1473 202.182 19.2819 202.266C19.3005 202.275 19.3191 202.289 19.3377 202.298C19.4955 202.377 19.6441 202.414 19.7973 202.414C20.1827 202.414 20.4242 202.173 20.5031 202.094L22.0911 200.506C22.249 200.348 22.4997 200.157 22.7922 200.157C23.0801 200.157 23.3169 200.339 23.4609 200.496C23.4655 200.501 23.4655 200.501 23.4701 200.506L26.0286 203.064C26.5068 203.538 26.5068 204.025 26.0332 204.517Z" fill="#9E3040"/>
<path d="M18.8733 191.233C20.0899 191.438 21.195 192.013 22.0772 192.896C22.9594 193.778 23.5305 194.883 23.7395 196.099C23.7905 196.406 24.0552 196.619 24.357 196.619C24.3942 196.619 24.4267 196.615 24.4638 196.61C24.8074 196.554 25.0349 196.229 24.9792 195.886C24.7285 194.414 24.032 193.072 22.9687 192.009C21.9054 190.945 20.5635 190.249 19.0916 189.998C18.748 189.942 18.4276 190.17 18.3672 190.509C18.3069 190.848 18.5297 191.178 18.8733 191.233Z" fill="#9E3040"/>
<path d="M28.9585 195.705C28.5453 193.281 27.403 191.075 25.6479 189.32C23.8927 187.565 21.6872 186.423 19.2634 186.01C18.9244 185.949 18.6041 186.181 18.5437 186.52C18.488 186.864 18.7155 187.184 19.0591 187.245C21.2229 187.611 23.1962 188.638 24.7657 190.202C26.3351 191.772 27.3566 193.745 27.7234 195.909C27.7745 196.215 28.0391 196.429 28.341 196.429C28.3781 196.429 28.4106 196.424 28.4478 196.42C28.7867 196.369 29.0189 196.044 28.9585 195.705Z" fill="#9E3040"/>
<path d="M50.8477 74.6899C51.9544 74.6899 52.8315 74.9473 53.479 75.4619C54.1265 75.9766 54.4502 76.6877 54.4502 77.5952C54.4502 78.1929 54.2648 78.738 53.894 79.2305C53.5233 79.723 52.9312 80.1712 52.1177 80.5752C53.1027 81.0456 53.8027 81.5409 54.2178 82.061C54.6328 82.5757 54.8403 83.1733 54.8403 83.854C54.8403 84.8612 54.4889 85.6663 53.7861 86.2695C53.0833 86.8672 52.1204 87.166 50.8975 87.166C49.6025 87.166 48.6064 86.8838 47.9092 86.3193C47.2119 85.7493 46.8633 84.9442 46.8633 83.9038C46.8633 82.5148 47.71 81.4329 49.4033 80.6582C48.6396 80.2266 48.0918 79.7617 47.7598 79.2637C47.4277 78.7601 47.2617 78.1984 47.2617 77.5786C47.2617 76.6987 47.5854 75.9987 48.2329 75.4785C48.8859 74.9528 49.7575 74.6899 50.8477 74.6899ZM48.2246 83.937C48.2246 84.6011 48.4543 85.1185 48.9136 85.4893C49.3784 85.86 50.0286 86.0454 50.8643 86.0454C51.6888 86.0454 52.3307 85.8517 52.79 85.4644C53.2493 85.077 53.479 84.5457 53.479 83.8706C53.479 83.3338 53.2632 82.8579 52.8315 82.4429C52.3999 82.0223 51.6473 81.6156 50.5737 81.2227C49.7492 81.5768 49.1515 81.9697 48.7808 82.4014C48.41 82.8275 48.2246 83.3394 48.2246 83.937ZM50.8311 75.8105C50.1393 75.8105 49.597 75.9766 49.2041 76.3086C48.8112 76.6406 48.6147 77.0833 48.6147 77.6367C48.6147 78.1458 48.778 78.583 49.1045 78.9482C49.431 79.3135 50.0342 79.6787 50.9141 80.0439C51.7054 79.7119 52.2643 79.355 52.5908 78.9731C52.9229 78.5913 53.0889 78.1458 53.0889 77.6367C53.0889 77.0778 52.8869 76.6351 52.4829 76.3086C52.0845 75.9766 51.5339 75.8105 50.8311 75.8105ZM64.0791 77.7197C64.0791 78.4945 63.8605 79.1281 63.4233 79.6206C62.9917 80.1131 62.3774 80.4424 61.5806 80.6084V80.6748C62.5545 80.7965 63.2767 81.1064 63.7471 81.6045C64.2174 82.1025 64.4526 82.7555 64.4526 83.5635C64.4526 84.7201 64.0514 85.611 63.249 86.2363C62.4466 86.8561 61.3066 87.166 59.8291 87.166C59.1872 87.166 58.5978 87.1162 58.061 87.0166C57.5298 86.9225 57.0124 86.7537 56.5088 86.5103V85.1987C57.0345 85.4588 57.5934 85.658 58.1855 85.7964C58.7832 85.9292 59.3477 85.9956 59.8789 85.9956C61.9762 85.9956 63.0249 85.1738 63.0249 83.5303C63.0249 82.0583 61.8683 81.3223 59.5552 81.3223H58.3599V80.1353H59.5718C60.5181 80.1353 61.2679 79.9277 61.8213 79.5127C62.3747 79.0921 62.6514 78.5111 62.6514 77.7695C62.6514 77.1774 62.4466 76.7126 62.0371 76.375C61.6331 76.0374 61.0825 75.8687 60.3853 75.8687C59.854 75.8687 59.3532 75.9406 58.8828 76.0845C58.4124 76.2284 57.8757 76.494 57.2725 76.8813L56.5752 75.9517C57.0732 75.5588 57.646 75.2516 58.2935 75.0303C58.9465 74.8034 59.6326 74.6899 60.3521 74.6899C61.5308 74.6899 62.4466 74.9611 63.0996 75.5034C63.7526 76.0402 64.0791 76.779 64.0791 77.7197ZM70.3047 74.6899C71.4115 74.6899 72.2886 74.9473 72.936 75.4619C73.5835 75.9766 73.9072 76.6877 73.9072 77.5952C73.9072 78.1929 73.7218 78.738 73.3511 79.2305C72.9803 79.723 72.3882 80.1712 71.5747 80.5752C72.5597 81.0456 73.2598 81.5409 73.6748 82.061C74.0898 82.5757 74.2974 83.1733 74.2974 83.854C74.2974 84.8612 73.946 85.6663 73.2432 86.2695C72.5404 86.8672 71.5775 87.166 70.3545 87.166C69.0596 87.166 68.0635 86.8838 67.3662 86.3193C66.6689 85.7493 66.3203 84.9442 66.3203 83.9038C66.3203 82.5148 67.167 81.4329 68.8604 80.6582C68.0967 80.2266 67.5488 79.7617 67.2168 79.2637C66.8848 78.7601 66.7188 78.1984 66.7188 77.5786C66.7188 76.6987 67.0425 75.9987 67.6899 75.4785C68.3429 74.9528 69.2145 74.6899 70.3047 74.6899ZM67.6816 83.937C67.6816 84.6011 67.9113 85.1185 68.3706 85.4893C68.8354 85.86 69.4857 86.0454 70.3213 86.0454C71.1458 86.0454 71.7878 85.8517 72.2471 85.4644C72.7064 85.077 72.936 84.5457 72.936 83.8706C72.936 83.3338 72.7202 82.8579 72.2886 82.4429C71.8569 82.0223 71.1043 81.6156 70.0308 81.2227C69.2062 81.5768 68.6086 81.9697 68.2378 82.4014C67.867 82.8275 67.6816 83.3394 67.6816 83.937ZM70.2881 75.8105C69.5964 75.8105 69.054 75.9766 68.6611 76.3086C68.2682 76.6406 68.0718 77.0833 68.0718 77.6367C68.0718 78.1458 68.235 78.583 68.5615 78.9482C68.888 79.3135 69.4912 79.6787 70.3711 80.0439C71.1624 79.7119 71.7214 79.355 72.0479 78.9731C72.3799 78.5913 72.5459 78.1458 72.5459 77.6367C72.5459 77.0778 72.3439 76.6351 71.9399 76.3086C71.5415 75.9766 70.9909 75.8105 70.2881 75.8105ZM79.8091 79.5874C81.0874 79.5874 82.0918 79.9056 82.8223 80.542C83.5583 81.1729 83.9263 82.0389 83.9263 83.1401C83.9263 84.3963 83.5251 85.3813 82.7227 86.0952C81.9258 86.8091 80.8245 87.166 79.4189 87.166C78.0521 87.166 77.009 86.9474 76.2896 86.5103V85.1821C76.6769 85.4312 77.1584 85.6276 77.7339 85.7715C78.3094 85.9098 78.8766 85.979 79.4355 85.979C80.4095 85.979 81.1649 85.7493 81.7017 85.29C82.244 84.8307 82.5151 84.1667 82.5151 83.2979C82.5151 81.6045 81.4775 80.7578 79.4023 80.7578C78.8766 80.7578 78.1738 80.8381 77.2939 80.9985L76.5801 80.542L77.0366 74.8643H83.0713V76.1343H78.2153L77.9082 79.7783C78.5446 79.651 79.1782 79.5874 79.8091 79.5874ZM97.8467 83.771C97.8467 84.839 97.4593 85.6719 96.6846 86.2695C95.9098 86.8672 94.8584 87.166 93.5303 87.166C92.0915 87.166 90.9847 86.9806 90.21 86.6099V85.2485C90.708 85.4588 91.2503 85.6248 91.8369 85.7466C92.4235 85.8683 93.0046 85.9292 93.5801 85.9292C94.5208 85.9292 95.2292 85.7521 95.7051 85.3979C96.181 85.0382 96.4189 84.5402 96.4189 83.9038C96.4189 83.4832 96.3332 83.1401 96.1616 82.8745C95.9956 82.6034 95.7134 82.3543 95.3149 82.1274C94.922 81.9006 94.3216 81.6432 93.5137 81.3555C92.3848 80.9515 91.5768 80.4728 91.0898 79.9194C90.6084 79.366 90.3677 78.6439 90.3677 77.7529C90.3677 76.8177 90.7191 76.0734 91.4219 75.52C92.1247 74.9666 93.0544 74.6899 94.2109 74.6899C95.4173 74.6899 96.5269 74.9113 97.5396 75.354L97.0996 76.5825C96.098 76.1619 95.124 75.9517 94.1777 75.9517C93.4307 75.9517 92.8468 76.1121 92.4263 76.4331C92.0057 76.7541 91.7954 77.1995 91.7954 77.7695C91.7954 78.1901 91.8729 78.536 92.0278 78.8071C92.1828 79.0728 92.4429 79.319 92.8081 79.5459C93.1789 79.7673 93.7433 80.0135 94.5015 80.2847C95.7743 80.7384 96.6486 81.2254 97.1245 81.7456C97.606 82.2658 97.8467 82.9409 97.8467 83.771ZM107.974 82.4429C107.974 83.9259 107.6 85.0853 106.853 85.9209C106.106 86.751 105.074 87.166 103.757 87.166C102.943 87.166 102.221 86.9751 101.59 86.5933C100.959 86.2114 100.472 85.6636 100.129 84.9497C99.7863 84.2358 99.6147 83.4002 99.6147 82.4429C99.6147 80.9598 99.9855 79.806 100.727 78.9814C101.469 78.1514 102.498 77.7363 103.815 77.7363C105.088 77.7363 106.098 78.1597 106.845 79.0063C107.597 79.853 107.974 80.9985 107.974 82.4429ZM101.042 82.4429C101.042 83.605 101.275 84.4904 101.74 85.0991C102.205 85.7078 102.888 86.0122 103.79 86.0122C104.692 86.0122 105.375 85.7106 105.84 85.1074C106.311 84.4987 106.546 83.6105 106.546 82.4429C106.546 81.2863 106.311 80.4092 105.84 79.8115C105.375 79.2083 104.687 78.9067 103.773 78.9067C102.871 78.9067 102.191 79.2028 101.731 79.7949C101.272 80.387 101.042 81.2697 101.042 82.4429ZM111.692 77.9023V83.8042C111.692 84.5457 111.861 85.0991 112.199 85.4644C112.536 85.8296 113.065 86.0122 113.784 86.0122C114.736 86.0122 115.431 85.7521 115.868 85.2319C116.31 84.7118 116.532 83.8623 116.532 82.6836V77.9023H117.91V87H116.772L116.573 85.7798H116.499C116.216 86.228 115.823 86.5711 115.32 86.8091C114.822 87.047 114.252 87.166 113.61 87.166C112.503 87.166 111.673 86.9032 111.12 86.3774C110.572 85.8517 110.298 85.0106 110.298 83.854V77.9023H111.692ZM123.778 86.0288C124.022 86.0288 124.257 86.0122 124.484 85.979C124.711 85.9403 124.891 85.9015 125.023 85.8628V86.917C124.874 86.9889 124.653 87.047 124.359 87.0913C124.072 87.1411 123.812 87.166 123.579 87.166C121.819 87.166 120.939 86.2391 120.939 84.3853V78.9731H119.636V78.3091L120.939 77.7363L121.521 75.7939H122.317V77.9023H124.957V78.9731H122.317V84.3271C122.317 84.875 122.447 85.2956 122.708 85.5889C122.968 85.8822 123.325 86.0288 123.778 86.0288ZM133.075 87V81.1147C133.075 80.3732 132.906 79.8198 132.569 79.4546C132.231 79.0894 131.703 78.9067 130.983 78.9067C130.026 78.9067 129.326 79.1668 128.883 79.687C128.446 80.2072 128.228 81.0594 128.228 82.2437V87H126.85V74.084H128.228V77.9937C128.228 78.464 128.205 78.8542 128.161 79.1641H128.244C128.515 78.7269 128.9 78.3838 129.398 78.1348C129.902 77.8802 130.474 77.7529 131.116 77.7529C132.229 77.7529 133.061 78.0186 133.615 78.5498C134.174 79.0755 134.453 79.9139 134.453 81.0649V87H133.075ZM149.544 87L148.033 83.1401H143.169L141.675 87H140.247L145.045 74.8145H146.232L151.005 87H149.544ZM147.593 81.8701L146.182 78.1099C146 77.634 145.811 77.0501 145.618 76.3584C145.496 76.8896 145.322 77.4735 145.095 78.1099L143.667 81.8701H147.593ZM153.844 87H152.466V74.084H153.844V87ZM158.144 87H156.766V74.084H158.144V87ZM164.909 87.166C163.564 87.166 162.501 86.7565 161.721 85.9375C160.946 85.1185 160.559 83.9813 160.559 82.5259C160.559 81.0594 160.919 79.8945 161.638 79.0312C162.363 78.168 163.334 77.7363 164.552 77.7363C165.692 77.7363 166.594 78.1126 167.258 78.8652C167.922 79.6123 168.254 80.6001 168.254 81.8286V82.7002H161.987C162.014 83.7682 162.283 84.5789 162.792 85.1323C163.307 85.6857 164.029 85.9624 164.958 85.9624C165.938 85.9624 166.906 85.7576 167.864 85.3481V86.5767C167.377 86.7869 166.915 86.9364 166.478 87.0249C166.046 87.119 165.523 87.166 164.909 87.166ZM164.535 78.8901C163.805 78.8901 163.221 79.1281 162.784 79.604C162.352 80.0799 162.097 80.7384 162.02 81.5796H166.776C166.776 80.7108 166.583 80.0467 166.195 79.5874C165.808 79.1226 165.255 78.8901 164.535 78.8901ZM176.837 87V81.1147C176.837 80.3732 176.668 79.8198 176.331 79.4546C175.993 79.0894 175.465 78.9067 174.745 78.9067C173.793 78.9067 173.096 79.1641 172.653 79.6787C172.211 80.1934 171.989 81.0428 171.989 82.2271V87H170.611V77.9023H171.732L171.956 79.1475H172.022C172.305 78.6992 172.7 78.3534 173.209 78.1099C173.719 77.8608 174.286 77.7363 174.911 77.7363C176.007 77.7363 176.831 78.002 177.385 78.5332C177.938 79.0589 178.215 79.9028 178.215 81.0649V87H176.837ZM192.525 83.771C192.525 84.839 192.138 85.6719 191.363 86.2695C190.589 86.8672 189.537 87.166 188.209 87.166C186.77 87.166 185.663 86.9806 184.889 86.6099V85.2485C185.387 85.4588 185.929 85.6248 186.516 85.7466C187.102 85.8683 187.683 85.9292 188.259 85.9292C189.2 85.9292 189.908 85.7521 190.384 85.3979C190.86 85.0382 191.098 84.5402 191.098 83.9038C191.098 83.4832 191.012 83.1401 190.84 82.8745C190.674 82.6034 190.392 82.3543 189.994 82.1274C189.601 81.9006 189 81.6432 188.192 81.3555C187.063 80.9515 186.256 80.4728 185.769 79.9194C185.287 79.366 185.046 78.6439 185.046 77.7529C185.046 76.8177 185.398 76.0734 186.101 75.52C186.803 74.9666 187.733 74.6899 188.89 74.6899C190.096 74.6899 191.206 74.9113 192.218 75.354L191.778 76.5825C190.777 76.1619 189.803 75.9517 188.856 75.9517C188.109 75.9517 187.526 76.1121 187.105 76.4331C186.684 76.7541 186.474 77.1995 186.474 77.7695C186.474 78.1901 186.552 78.536 186.707 78.8071C186.861 79.0728 187.122 79.319 187.487 79.5459C187.858 79.7673 188.422 80.0135 189.18 80.2847C190.453 80.7384 191.327 81.2254 191.803 81.7456C192.285 82.2658 192.525 82.9409 192.525 83.771ZM197.738 86.0288C197.982 86.0288 198.217 86.0122 198.444 85.979C198.671 85.9403 198.851 85.9015 198.983 85.8628V86.917C198.834 86.9889 198.613 87.047 198.319 87.0913C198.032 87.1411 197.771 87.166 197.539 87.166C195.779 87.166 194.899 86.2391 194.899 84.3853V78.9731H193.596V78.3091L194.899 77.7363L195.48 75.7939H196.277V77.9023H198.917V78.9731H196.277V84.3271C196.277 84.875 196.407 85.2956 196.667 85.5889C196.928 85.8822 197.285 86.0288 197.738 86.0288ZM204.96 77.7363C205.364 77.7363 205.726 77.7695 206.047 77.8359L205.856 79.1143C205.48 79.0312 205.148 78.9897 204.86 78.9897C204.124 78.9897 203.493 79.2886 202.968 79.8862C202.448 80.4839 202.188 81.2282 202.188 82.1191V87H200.81V77.9023H201.947L202.104 79.5874H202.171C202.508 78.9953 202.915 78.5387 203.391 78.2178C203.867 77.8968 204.39 77.7363 204.96 77.7363ZM211.592 87.166C210.248 87.166 209.185 86.7565 208.405 85.9375C207.63 85.1185 207.243 83.9813 207.243 82.5259C207.243 81.0594 207.602 79.8945 208.322 79.0312C209.047 78.168 210.018 77.7363 211.235 77.7363C212.375 77.7363 213.277 78.1126 213.941 78.8652C214.605 79.6123 214.938 80.6001 214.938 81.8286V82.7002H208.67C208.698 83.7682 208.966 84.5789 209.476 85.1323C209.99 85.6857 210.712 85.9624 211.642 85.9624C212.622 85.9624 213.59 85.7576 214.547 85.3481V86.5767C214.06 86.7869 213.598 86.9364 213.161 87.0249C212.729 87.119 212.207 87.166 211.592 87.166ZM211.219 78.8901C210.488 78.8901 209.904 79.1281 209.467 79.604C209.036 80.0799 208.781 80.7384 208.704 81.5796H213.46C213.46 80.7108 213.266 80.0467 212.879 79.5874C212.492 79.1226 211.938 78.8901 211.219 78.8901ZM221.138 87.166C219.793 87.166 218.731 86.7565 217.951 85.9375C217.176 85.1185 216.789 83.9813 216.789 82.5259C216.789 81.0594 217.148 79.8945 217.868 79.0312C218.593 78.168 219.564 77.7363 220.781 77.7363C221.921 77.7363 222.823 78.1126 223.487 78.8652C224.151 79.6123 224.483 80.6001 224.483 81.8286V82.7002H218.216C218.244 83.7682 218.512 84.5789 219.021 85.1323C219.536 85.6857 220.258 85.9624 221.188 85.9624C222.167 85.9624 223.136 85.7576 224.093 85.3481V86.5767C223.606 86.7869 223.144 86.9364 222.707 87.0249C222.275 87.119 221.752 87.166 221.138 87.166ZM220.765 78.8901C220.034 78.8901 219.45 79.1281 219.013 79.604C218.582 80.0799 218.327 80.7384 218.25 81.5796H223.006C223.006 80.7108 222.812 80.0467 222.425 79.5874C222.037 79.1226 221.484 78.8901 220.765 78.8901ZM229.779 86.0288C230.023 86.0288 230.258 86.0122 230.485 85.979C230.712 85.9403 230.892 85.9015 231.024 85.8628V86.917C230.875 86.9889 230.654 87.047 230.36 87.0913C230.073 87.1411 229.812 87.166 229.58 87.166C227.82 87.166 226.94 86.2391 226.94 84.3853V78.9731H225.637V78.3091L226.94 77.7363L227.521 75.7939H228.318V77.9023H230.958V78.9731H228.318V84.3271C228.318 84.875 228.448 85.2956 228.708 85.5889C228.969 85.8822 229.326 86.0288 229.779 86.0288ZM234.295 85.0244L234.419 85.2153C234.276 85.7687 234.068 86.4106 233.797 87.1411C233.526 87.8771 233.243 88.5605 232.95 89.1914H231.913C232.062 88.6159 232.225 87.9048 232.402 87.0581C232.585 86.2114 232.712 85.5335 232.784 85.0244H234.295ZM54.5166 115.771C54.5166 116.839 54.1292 117.672 53.3545 118.27C52.5798 118.867 51.5283 119.166 50.2002 119.166C48.7614 119.166 47.6546 118.981 46.8799 118.61V117.249C47.3779 117.459 47.9202 117.625 48.5068 117.747C49.0934 117.868 49.6745 117.929 50.25 117.929C51.1908 117.929 51.8991 117.752 52.375 117.398C52.8509 117.038 53.0889 116.54 53.0889 115.904C53.0889 115.483 53.0031 115.14 52.8315 114.875C52.6655 114.603 52.3833 114.354 51.9849 114.127C51.592 113.901 50.9915 113.643 50.1836 113.355C49.0547 112.951 48.2467 112.473 47.7598 111.919C47.2783 111.366 47.0376 110.644 47.0376 109.753C47.0376 108.818 47.389 108.073 48.0918 107.52C48.7946 106.967 49.7243 106.69 50.8809 106.69C52.0872 106.69 53.1968 106.911 54.2095 107.354L53.7695 108.583C52.7679 108.162 51.7939 107.952 50.8477 107.952C50.1006 107.952 49.5168 108.112 49.0962 108.433C48.6756 108.754 48.4653 109.2 48.4653 109.77C48.4653 110.19 48.5428 110.536 48.6978 110.807C48.8527 111.073 49.1128 111.319 49.478 111.546C49.8488 111.767 50.4132 112.014 51.1714 112.285C52.4442 112.738 53.3185 113.225 53.7944 113.746C54.2759 114.266 54.5166 114.941 54.5166 115.771ZM58.0859 109.902V115.804C58.0859 116.546 58.2547 117.099 58.5923 117.464C58.9299 117.83 59.4583 118.012 60.1777 118.012C61.1296 118.012 61.8241 117.752 62.2612 117.232C62.7039 116.712 62.9253 115.862 62.9253 114.684V109.902H64.3032V119H63.166L62.9668 117.78H62.8921C62.6099 118.228 62.217 118.571 61.7134 118.809C61.2153 119.047 60.6453 119.166 60.0034 119.166C58.8966 119.166 58.0666 118.903 57.5132 118.377C56.9653 117.852 56.6914 117.011 56.6914 115.854V109.902H58.0859ZM68.6113 119H67.2334V109.902H68.6113V119ZM67.1172 107.437C67.1172 107.122 67.1947 106.892 67.3496 106.748C67.5046 106.599 67.6982 106.524 67.9307 106.524C68.152 106.524 68.3429 106.599 68.5034 106.748C68.6639 106.897 68.7441 107.127 68.7441 107.437C68.7441 107.747 68.6639 107.979 68.5034 108.134C68.3429 108.284 68.152 108.358 67.9307 108.358C67.6982 108.358 67.5046 108.284 67.3496 108.134C67.1947 107.979 67.1172 107.747 67.1172 107.437ZM74.4717 118.029C74.7152 118.029 74.9504 118.012 75.1772 117.979C75.4041 117.94 75.584 117.902 75.7168 117.863V118.917C75.5674 118.989 75.346 119.047 75.0527 119.091C74.765 119.141 74.5049 119.166 74.2725 119.166C72.5127 119.166 71.6328 118.239 71.6328 116.385V110.973H70.3296V110.309L71.6328 109.736L72.2139 107.794H73.0107V109.902H75.6504V110.973H73.0107V116.327C73.0107 116.875 73.1408 117.296 73.4009 117.589C73.661 117.882 74.0179 118.029 74.4717 118.029ZM81.3862 119.166C80.0415 119.166 78.979 118.757 78.1987 117.938C77.424 117.118 77.0366 115.981 77.0366 114.526C77.0366 113.059 77.3963 111.895 78.1157 111.031C78.8407 110.168 79.8118 109.736 81.0293 109.736C82.1693 109.736 83.0713 110.113 83.7354 110.865C84.3994 111.612 84.7314 112.6 84.7314 113.829V114.7H78.4644C78.492 115.768 78.7604 116.579 79.2695 117.132C79.7842 117.686 80.5063 117.962 81.436 117.962C82.4155 117.962 83.384 117.758 84.3413 117.348V118.577C83.8543 118.787 83.3923 118.936 82.9551 119.025C82.5234 119.119 82.0005 119.166 81.3862 119.166ZM81.0127 110.89C80.2822 110.89 79.6984 111.128 79.2612 111.604C78.8296 112.08 78.575 112.738 78.4976 113.58H83.2539C83.2539 112.711 83.0602 112.047 82.6729 111.587C82.2855 111.123 81.7321 110.89 81.0127 110.89ZM95.979 119H94.6343V110.351C94.6343 109.631 94.6564 108.951 94.7007 108.309C94.5845 108.425 94.4544 108.547 94.3105 108.674C94.1667 108.801 93.5081 109.341 92.335 110.292L91.6045 109.346L94.8169 106.864H95.979V119ZM105.708 119H104.363V110.351C104.363 109.631 104.385 108.951 104.429 108.309C104.313 108.425 104.183 108.547 104.039 108.674C103.895 108.801 103.237 109.341 102.063 110.292L101.333 109.346L104.545 106.864H105.708V119ZM115.436 119H114.091V110.351C114.091 109.631 114.113 108.951 114.158 108.309C114.042 108.425 113.911 108.547 113.768 108.674C113.624 108.801 112.965 109.341 111.792 110.292L111.062 109.346L114.274 106.864H115.436V119ZM122.135 117.024L122.259 117.215C122.115 117.769 121.908 118.411 121.637 119.141C121.366 119.877 121.083 120.561 120.79 121.191H119.752C119.902 120.616 120.065 119.905 120.242 119.058C120.425 118.211 120.552 117.534 120.624 117.024H122.135ZM54.5166 147.771C54.5166 148.839 54.1292 149.672 53.3545 150.27C52.5798 150.867 51.5283 151.166 50.2002 151.166C48.7614 151.166 47.6546 150.981 46.8799 150.61V149.249C47.3779 149.459 47.9202 149.625 48.5068 149.747C49.0934 149.868 49.6745 149.929 50.25 149.929C51.1908 149.929 51.8991 149.752 52.375 149.398C52.8509 149.038 53.0889 148.54 53.0889 147.904C53.0889 147.483 53.0031 147.14 52.8315 146.875C52.6655 146.603 52.3833 146.354 51.9849 146.127C51.592 145.901 50.9915 145.643 50.1836 145.355C49.0547 144.951 48.2467 144.473 47.7598 143.919C47.2783 143.366 47.0376 142.644 47.0376 141.753C47.0376 140.818 47.389 140.073 48.0918 139.52C48.7946 138.967 49.7243 138.69 50.8809 138.69C52.0872 138.69 53.1968 138.911 54.2095 139.354L53.7695 140.583C52.7679 140.162 51.7939 139.952 50.8477 139.952C50.1006 139.952 49.5168 140.112 49.0962 140.433C48.6756 140.754 48.4653 141.2 48.4653 141.77C48.4653 142.19 48.5428 142.536 48.6978 142.807C48.8527 143.073 49.1128 143.319 49.478 143.546C49.8488 143.767 50.4132 144.014 51.1714 144.285C52.4442 144.738 53.3185 145.225 53.7944 145.746C54.2759 146.266 54.5166 146.941 54.5166 147.771ZM62.3857 151L62.1118 149.705H62.0454C61.5916 150.275 61.1379 150.662 60.6841 150.867C60.2358 151.066 59.6742 151.166 58.999 151.166C58.097 151.166 57.3887 150.934 56.874 150.469C56.3649 150.004 56.1104 149.343 56.1104 148.485C56.1104 146.648 57.5796 145.685 60.5181 145.596L62.062 145.546V144.982C62.062 144.268 61.9071 143.742 61.5972 143.405C61.2928 143.062 60.8031 142.89 60.1279 142.89C59.3698 142.89 58.512 143.123 57.5547 143.587L57.1313 142.533C57.5796 142.29 58.0693 142.099 58.6006 141.96C59.1374 141.822 59.6742 141.753 60.2109 141.753C61.2956 141.753 62.098 141.994 62.6182 142.475C63.1439 142.957 63.4067 143.729 63.4067 144.791V151H62.3857ZM59.2729 150.029C60.1307 150.029 60.8031 149.794 61.29 149.323C61.7826 148.853 62.0288 148.194 62.0288 147.348V146.526L60.6509 146.584C59.5552 146.623 58.7638 146.794 58.2769 147.099C57.7954 147.397 57.5547 147.865 57.5547 148.501C57.5547 149 57.7041 149.379 58.0029 149.639C58.3073 149.899 58.7306 150.029 59.2729 150.029ZM72.4795 151V145.115C72.4795 144.373 72.3107 143.82 71.9731 143.455C71.6356 143.089 71.1071 142.907 70.3877 142.907C69.4359 142.907 68.7386 143.164 68.2959 143.679C67.8532 144.193 67.6318 145.043 67.6318 146.227V151H66.2539V141.902H67.3745L67.5986 143.147H67.665C67.9473 142.699 68.3429 142.353 68.8521 142.11C69.3612 141.861 69.9284 141.736 70.5537 141.736C71.6494 141.736 72.474 142.002 73.0273 142.533C73.5807 143.059 73.8574 143.903 73.8574 145.065V151H72.4795ZM82.8887 149.78H82.814C82.1776 150.704 81.2257 151.166 79.9585 151.166C78.7687 151.166 77.8418 150.759 77.1777 149.946C76.5192 149.132 76.1899 147.976 76.1899 146.476C76.1899 144.976 76.522 143.812 77.186 142.981C77.8501 142.151 78.7743 141.736 79.9585 141.736C81.1925 141.736 82.1388 142.185 82.7974 143.081H82.9053L82.8472 142.425L82.814 141.786V138.084H84.1919V151H83.0713L82.8887 149.78ZM80.1328 150.012C81.0736 150.012 81.7542 149.758 82.1748 149.249C82.6009 148.734 82.814 147.907 82.814 146.767V146.476C82.814 145.187 82.5981 144.268 82.1665 143.72C81.7404 143.167 81.057 142.89 80.1162 142.89C79.3083 142.89 78.6885 143.206 78.2568 143.836C77.8307 144.462 77.6177 145.347 77.6177 146.493C77.6177 147.655 77.8307 148.532 78.2568 149.124C78.6829 149.716 79.3083 150.012 80.1328 150.012ZM85.6777 141.902H87.1553L89.1475 147.09C89.5846 148.275 89.8558 149.13 89.9609 149.655H90.0273C90.0993 149.373 90.2487 148.892 90.4756 148.211C90.708 147.525 91.4606 145.422 92.7334 141.902H94.2109L90.3013 152.262C89.9139 153.285 89.4601 154.01 88.9399 154.437C88.4253 154.868 87.7917 155.084 87.0391 155.084C86.6185 155.084 86.2035 155.037 85.7939 154.943V153.839C86.0983 153.905 86.4386 153.938 86.8149 153.938C87.7612 153.938 88.4364 153.407 88.8403 152.345L89.3467 151.05L85.6777 141.902ZM109.476 138.864V146.717C109.476 148.1 109.058 149.188 108.223 149.979C107.387 150.77 106.239 151.166 104.778 151.166C103.317 151.166 102.185 150.768 101.383 149.971C100.586 149.174 100.188 148.078 100.188 146.684V138.864H101.599V146.783C101.599 147.796 101.875 148.573 102.429 149.116C102.982 149.658 103.796 149.929 104.869 149.929C105.893 149.929 106.681 149.658 107.235 149.116C107.788 148.568 108.065 147.785 108.065 146.767V138.864H109.476ZM116.432 151H115.021V140.118H111.178V138.864H120.275V140.118H116.432V151ZM129.705 138.69C130.812 138.69 131.689 138.947 132.336 139.462C132.984 139.977 133.308 140.688 133.308 141.595C133.308 142.193 133.122 142.738 132.751 143.23C132.381 143.723 131.789 144.171 130.975 144.575C131.96 145.046 132.66 145.541 133.075 146.061C133.49 146.576 133.698 147.173 133.698 147.854C133.698 148.861 133.346 149.666 132.644 150.27C131.941 150.867 130.978 151.166 129.755 151.166C128.46 151.166 127.464 150.884 126.767 150.319C126.069 149.749 125.721 148.944 125.721 147.904C125.721 146.515 126.567 145.433 128.261 144.658C127.497 144.227 126.949 143.762 126.617 143.264C126.285 142.76 126.119 142.198 126.119 141.579C126.119 140.699 126.443 139.999 127.09 139.479C127.743 138.953 128.615 138.69 129.705 138.69ZM127.082 147.937C127.082 148.601 127.312 149.118 127.771 149.489C128.236 149.86 128.886 150.045 129.722 150.045C130.546 150.045 131.188 149.852 131.647 149.464C132.107 149.077 132.336 148.546 132.336 147.871C132.336 147.334 132.121 146.858 131.689 146.443C131.257 146.022 130.505 145.616 129.431 145.223C128.607 145.577 128.009 145.97 127.638 146.401C127.267 146.827 127.082 147.339 127.082 147.937ZM129.688 139.811C128.997 139.811 128.454 139.977 128.062 140.309C127.669 140.641 127.472 141.083 127.472 141.637C127.472 142.146 127.635 142.583 127.962 142.948C128.288 143.313 128.892 143.679 129.771 144.044C130.563 143.712 131.122 143.355 131.448 142.973C131.78 142.591 131.946 142.146 131.946 141.637C131.946 141.078 131.744 140.635 131.34 140.309C130.942 139.977 130.391 139.811 129.688 139.811ZM143.966 148.211H142.165V151H140.845V148.211H134.943V147.007L140.704 138.798H142.165V146.958H143.966V148.211ZM140.845 146.958V142.923C140.845 142.132 140.872 141.238 140.928 140.242H140.861C140.596 140.773 140.347 141.213 140.114 141.562L136.321 146.958H140.845ZM153.188 144.916C153.188 147.013 152.856 148.579 152.192 149.614C151.533 150.649 150.523 151.166 149.162 151.166C147.856 151.166 146.863 150.638 146.182 149.581C145.501 148.518 145.161 146.963 145.161 144.916C145.161 142.802 145.49 141.233 146.149 140.209C146.807 139.185 147.812 138.673 149.162 138.673C150.479 138.673 151.478 139.207 152.159 140.275C152.845 141.343 153.188 142.89 153.188 144.916ZM146.556 144.916C146.556 146.681 146.763 147.967 147.178 148.775C147.593 149.578 148.255 149.979 149.162 149.979C150.081 149.979 150.745 149.572 151.154 148.759C151.569 147.94 151.777 146.659 151.777 144.916C151.777 143.172 151.569 141.897 151.154 141.089C150.745 140.275 150.081 139.869 149.162 139.869C148.255 139.869 147.593 140.27 147.178 141.072C146.763 141.869 146.556 143.15 146.556 144.916ZM156.409 151L161.439 140.134H154.823V138.864H162.9V139.968L157.936 151H156.409ZM172.645 144.916C172.645 147.013 172.313 148.579 171.649 149.614C170.99 150.649 169.98 151.166 168.619 151.166C167.313 151.166 166.32 150.638 165.639 149.581C164.958 148.518 164.618 146.963 164.618 144.916C164.618 142.802 164.947 141.233 165.606 140.209C166.264 139.185 167.269 138.673 168.619 138.673C169.936 138.673 170.935 139.207 171.616 140.275C172.302 141.343 172.645 142.89 172.645 144.916ZM166.013 144.916C166.013 146.681 166.22 147.967 166.635 148.775C167.05 149.578 167.712 149.979 168.619 149.979C169.538 149.979 170.202 149.572 170.611 148.759C171.026 147.94 171.234 146.659 171.234 144.916C171.234 143.172 171.026 141.897 170.611 141.089C170.202 140.275 169.538 139.869 168.619 139.869C167.712 139.869 167.05 140.27 166.635 141.072C166.22 141.869 166.013 143.15 166.013 144.916Z" fill="#303030"/>
<path d="M17.75 70C22.2999 70 26 73.7001 26 78.25C26 83.9686 18.553 91.4816 18.2368 91.7993C18.102 91.9326 17.926 92 17.75 92C17.574 92 17.398 91.9326 17.2632 91.7993C16.947 91.4816 9.5 83.9686 9.5 78.25C9.5 73.7001 13.2001 70 17.75 70ZM17.75 90.3184C19.3918 88.5611 24.625 82.6184 24.625 78.25C24.625 74.4591 21.5409 71.375 17.75 71.375C13.9591 71.375 10.875 74.4591 10.875 78.25C10.875 82.6143 16.1082 88.5611 17.75 90.3184Z" fill="#9E3040"/>
<path d="M17.75 74.125C20.0243 74.125 21.875 75.9757 21.875 78.25C21.875 80.5243 20.0243 82.375 17.75 82.375C15.4757 82.375 13.625 80.5243 13.625 78.25C13.625 75.9757 15.4757 74.125 17.75 74.125ZM17.75 81C19.2666 81 20.5 79.7666 20.5 78.25C20.5 76.7334 19.2666 75.5 17.75 75.5C16.2334 75.5 15 76.7334 15 78.25C15 79.7666 16.2334 81 17.75 81Z" fill="#9E3040"/>
</svg>
