<svg width="55" height="105" viewBox="0 0 55 105" fill="none" xmlns="http://www.w3.org/2000/svg">
<path d="M43.5108 0H11.8733C5.55265 0 0.4104 5.14225 0.4104 11.4629V38.9711C0.4104 45.2917 5.55265 50.4339 11.8733 50.4339H26.7044C26.1826 67.5609 19.6843 76.4643 6.88303 77.6289C5.70235 77.7365 4.79816 78.7264 4.79816 79.9121V102.707C4.79816 103.338 5.05768 103.94 5.51574 104.373C5.94262 104.777 6.50636 105 7.09051 105C7.13338 105 7.17648 104.999 7.21935 104.996C23.017 104.108 35.0767 98.6709 43.0636 88.8367C50.9665 79.1058 54.9737 64.8866 54.9737 46.5741V11.4629C54.9737 5.14225 49.8315 0 43.5108 0ZM50.3886 46.5741C50.3886 80.1934 36.969 97.7745 9.38332 100.243V81.9397C16.3555 80.8553 21.7483 77.6099 25.433 72.2739C29.3416 66.6136 31.3235 58.4944 31.3235 48.1414C31.3235 46.8754 30.2971 45.8488 29.0309 45.8488H11.8733C8.0809 45.8488 4.99555 42.7634 4.99555 38.9711V11.4629C4.99555 7.6705 8.0809 4.58515 11.8733 4.58515H39.3842V21.558C39.3842 22.824 40.4106 23.8506 41.6768 23.8506C42.943 23.8506 43.9693 22.824 43.9693 21.558V4.60212C47.5485 4.83917 50.3886 7.82479 50.3886 11.4629V46.5741Z" fill="white"/>
</svg>
