<svg width="56" height="105" viewBox="0 0 56 105" fill="none" xmlns="http://www.w3.org/2000/svg">
<path d="M3.1092 83.9083C1.84301 83.9083 0.816628 84.9349 0.816628 86.2009V93.5371C0.816628 99.8578 5.95888 105 12.2795 105H43.9171C50.2377 105 55.3799 99.8578 55.3799 93.5371V66.029C55.3799 59.7083 50.2377 54.5661 43.9171 54.5661H29.0859C29.6077 37.4391 36.106 28.5357 48.9073 27.3711C50.0882 27.2636 50.9922 26.2736 50.9922 25.0879V2.29258C50.9922 1.66212 50.7327 1.05963 50.2746 0.626561C49.8477 0.223297 49.284 -5.96046e-07 48.6998 -5.96046e-07C48.657 -5.96046e-07 48.6139 0.00114368 48.571 0.00366551C32.7733 0.892268 20.7137 6.32911 12.7268 16.1633C4.82382 25.8944 0.816628 40.1134 0.816628 58.4259V66.6376C0.816628 67.9036 1.84301 68.9302 3.1092 68.9302C4.37539 68.9302 5.40178 67.9036 5.40178 66.6376V58.4259C5.40178 24.8066 18.8214 7.22551 46.4068 4.75733V23.0603C39.4348 24.1447 34.042 27.3901 30.3572 32.7261C26.4485 38.3867 24.4666 46.5058 24.4666 56.8586C24.4666 58.1246 25.493 59.1512 26.7592 59.1512H43.9171C47.7094 59.1512 50.7948 62.2366 50.7948 66.029V93.5371C50.7948 97.3295 47.7094 100.415 43.9171 100.415H12.2795C8.48713 100.415 5.40178 97.3295 5.40178 93.5371V86.2009C5.40178 84.9349 4.37539 83.9083 3.1092 83.9083Z" fill="white"/>
</svg>
