<svg width="17" height="22" viewBox="0 0 17 22" fill="none" xmlns="http://www.w3.org/2000/svg">
<path d="M8.75 0C13.2999 0 17 3.70012 17 8.25C17 13.9686 9.553 21.4816 9.23675 21.7992C9.102 21.9326 8.926 22 8.75 22C8.574 22 8.398 21.9326 8.26325 21.7992C7.947 21.4816 0.5 13.9686 0.5 8.25C0.5 3.70012 4.20012 0 8.75 0ZM8.75 20.3184C10.3917 18.5611 15.625 12.6184 15.625 8.25C15.625 4.45913 12.5409 1.375 8.75 1.375C4.95913 1.375 1.875 4.45913 1.875 8.25C1.875 12.6143 7.10825 18.5611 8.75 20.3184Z" fill="#9E3040"/>
</svg>
