<svg width="56" height="105" viewBox="0 0 56 105" fill="none" xmlns="http://www.w3.org/2000/svg">
<path d="M52.8646 21.0917C54.1308 21.0917 55.1572 20.0651 55.1572 18.7991V11.4629C55.1572 5.14225 50.0149 0 43.6943 0H12.0568C5.73612 0 0.593872 5.14225 0.593872 11.4629V38.9711C0.593872 45.2917 5.73612 50.4339 12.0568 50.4339H26.8879C26.3661 67.5609 19.8678 76.4643 7.0665 77.6289C5.8856 77.7365 4.98163 78.7264 4.98163 79.9121V102.707C4.98163 103.338 5.24115 103.94 5.69921 104.373C6.12609 104.777 6.68983 105 7.27398 105C7.31685 105 7.35995 104.999 7.40282 104.996C23.2005 104.108 35.2601 98.6709 43.247 88.8367C51.15 79.1056 55.1572 64.8866 55.1572 46.5741V38.3624C55.1572 37.0964 54.1308 36.0698 52.8646 36.0698C51.5984 36.0698 50.572 37.0964 50.572 38.3624V46.5741C50.572 80.1934 37.1524 97.7745 9.56702 100.243V81.9397C16.539 80.8553 21.9318 77.6099 25.6167 72.2739C29.5253 66.6133 31.5072 58.4942 31.5072 48.1414C31.5072 46.8754 30.4808 45.8488 29.2146 45.8488H12.0568C8.26437 45.8488 5.17902 42.7634 5.17902 38.9711V11.4629C5.17902 7.6705 8.26437 4.58515 12.0568 4.58515H43.6943C47.4867 4.58515 50.572 7.6705 50.572 11.4629V18.7991C50.572 20.0651 51.5984 21.0917 52.8646 21.0917Z" fill="white"/>
</svg>
