<svg width="24" height="18" viewBox="0 0 24 18" fill="none" xmlns="http://www.w3.org/2000/svg">
<path d="M20.7651 0H2.89233C1.2969 0 0 1.2969 0 2.89233V15.1077C0 16.7031 1.2969 18 2.89233 18H20.7602C22.3556 18 23.6525 16.7031 23.6525 15.1077V2.89723C23.6574 1.30179 22.3605 0 20.7651 0ZM22.3361 15.1077C22.3361 15.9739 21.6313 16.6786 20.7651 16.6786H2.89233C2.0261 16.6786 1.32137 15.9739 1.32137 15.1077V2.89723C1.32137 2.03099 2.0261 1.32626 2.89233 1.32626H20.7602C21.6264 1.32626 22.3312 2.03099 22.3312 2.89723V15.1077H22.3361Z" fill="#9E3040"/>
</svg>
