<svg width="21" height="21" viewBox="0 0 21 21" fill="none" xmlns="http://www.w3.org/2000/svg">
<path d="M17.3709 12.6282C16.9205 12.1592 16.3773 11.9084 15.8015 11.9084C15.2304 11.9084 14.6825 12.1545 14.2135 12.6235L12.7463 14.0861C12.6255 14.0211 12.5048 13.9608 12.3887 13.9004C12.2216 13.8168 12.0637 13.7379 11.929 13.6543C10.5546 12.7814 9.30561 11.6438 8.10765 10.1719C7.52724 9.43824 7.13721 8.82069 6.85397 8.19385C7.23472 7.8456 7.5876 7.48343 7.93121 7.13518C8.06122 7.00517 8.19123 6.87052 8.32124 6.74051C9.29632 5.76543 9.29632 4.50246 8.32124 3.52738L7.05363 2.25977C6.90969 2.11583 6.76111 1.96725 6.62181 1.81866C6.34321 1.53078 6.05069 1.23361 5.74888 0.955019C5.29848 0.509267 4.75987 0.272461 4.19339 0.272461C3.62691 0.272461 3.07901 0.509267 2.61468 0.955019C2.61004 0.959662 2.61004 0.959662 2.6054 0.964305L1.02669 2.55694C0.432356 3.15128 0.0933983 3.87562 0.0191063 4.71605C-0.0923317 6.07188 0.306988 7.33485 0.613442 8.16134C1.36565 10.1904 2.48932 12.071 4.16553 14.0861C6.19927 16.5146 8.64627 18.4322 11.4415 19.7834C12.5094 20.2895 13.9349 20.8885 15.5276 20.9906C15.6251 20.9953 15.7272 20.9999 15.8201 20.9999C16.8927 20.9999 17.7935 20.6145 18.4992 19.8484C18.5039 19.8391 18.5132 19.8345 18.5178 19.8252C18.7593 19.5327 19.0379 19.268 19.3304 18.9848C19.53 18.7944 19.7343 18.5947 19.934 18.3858C20.3937 17.9075 20.6351 17.3503 20.6351 16.7792C20.6351 16.2035 20.389 15.6509 19.9201 15.1866L17.3709 12.6282ZM19.0332 17.5175C19.0286 17.5175 19.0286 17.5221 19.0332 17.5175C18.8521 17.7125 18.6664 17.889 18.4667 18.084C18.1649 18.3719 17.8585 18.6737 17.5706 19.0126C17.1016 19.5141 16.5491 19.7509 15.8247 19.7509C15.7551 19.7509 15.6808 19.7509 15.6111 19.7463C14.2321 19.658 12.9506 19.1194 11.9894 18.6597C9.36133 17.3875 7.05363 15.5813 5.13597 13.2921C3.55262 11.3838 2.49396 9.61932 1.79283 7.72488C1.36101 6.56871 1.20314 5.66792 1.27278 4.8182C1.31922 4.27494 1.52816 3.82455 1.91355 3.43916L3.4969 1.85581C3.72442 1.64222 3.96587 1.52614 4.20268 1.52614C4.4952 1.52614 4.73201 1.70258 4.88059 1.85117C4.88523 1.85581 4.88988 1.86045 4.89452 1.8651C5.17776 2.12976 5.44707 2.40371 5.7303 2.69624C5.87425 2.84482 6.02283 2.99341 6.17141 3.14663L7.43902 4.41424C7.93121 4.90643 7.93121 5.36146 7.43902 5.85365C7.30437 5.9883 7.17436 6.12296 7.0397 6.25297C6.64967 6.65229 6.27821 7.02375 5.87425 7.38592C5.86496 7.39521 5.85567 7.39985 5.85103 7.40914C5.45171 7.80846 5.526 8.19849 5.60958 8.46315C5.61422 8.47708 5.61887 8.49101 5.62351 8.50494C5.95318 9.30358 6.41751 10.0558 7.12328 10.9519L7.12792 10.9566C8.40946 12.5353 9.76065 13.7657 11.2511 14.7083C11.4415 14.8291 11.6365 14.9266 11.8222 15.0194C11.9894 15.103 12.1473 15.1819 12.2819 15.2655C12.3005 15.2748 12.3191 15.2887 12.3377 15.298C12.4955 15.377 12.6441 15.4141 12.7973 15.4141C13.1827 15.4141 13.4242 15.1727 13.5031 15.0937L15.0911 13.5057C15.249 13.3479 15.4997 13.1575 15.7922 13.1575C16.0801 13.1575 16.3169 13.3386 16.4609 13.4964C16.4655 13.5011 16.4655 13.5011 16.4701 13.5057L19.0286 16.0642C19.5068 16.5378 19.5068 17.0253 19.0332 17.5175Z" fill="#9E3040"/>
</svg>
